<?xml version="1.0" encoding="UTF-8"?>
<svg xmlns="http://www.w3.org/2000/svg" viewBox="0 0 1636.29 1422.41">
  <defs>
    <style>
      .cls-1 {
        fill: #f2f2f2;
      }

      .cls-1, .cls-2 {
        mix-blend-mode: soft-light;
      }

      .cls-3 {
        fill: #fff;
      }

      .cls-4 {
        fill: #3cbcfb;
      }

      .cls-5 {
        isolation: isolate;
      }

      .cls-6 {
        fill: #f2f22b;
      }

      .cls-7 {
        fill: #fc49d2;
      }

      .cls-8 {
        fill: #333;
      }

      .cls-9 {
        fill: #bef628;
      }

      .cls-10 {
        fill: #f7f766;
      }

      .cls-11 {
        fill: #85c4f9;
      }

      .cls-12 {
        fill: none;
      }

      .cls-13 {
        fill: #ff8000;
      }

      .cls-14 {
        fill: #fb0715;
      }

      .cls-15 {
        fill: #40e98a;
      }

      .cls-16 {
        fill: #ed1c24;
      }

      .cls-17 {
        fill: #b010f5;
      }

      .cls-18 {
        fill: #ffc50d;
      }

      .cls-19 {
        fill: #1d1d1b;
      }

      .cls-20 {
        fill: #fcee21;
      }
    </style>
  </defs>
  <g class="cls-5">
    <g id="_Layer_" data-name="&amp;lt;Layer&amp;gt;">
      <g class="cls-2">
        <circle class="cls-12" cx="831.41" cy="768.26" r="634.55"/>
        <path class="cls-19" d="m831.41,1422.41c-360.7,0-654.15-293.45-654.15-654.15S470.71,114.11,831.41,114.11s654.15,293.45,654.15,654.15-293.45,654.15-654.15,654.15Zm0-1269.1c-339.08,0-614.95,275.87-614.95,614.95s275.87,614.95,614.95,614.95,614.95-275.86,614.95-614.95S1170.49,153.31,831.41,153.31Z"/>
      </g>
      <g>
        <g>
          <g>
            <path class="cls-13" d="m834.21,965.96c-61.51,113.51-306.23,372.25-306.23,372.25,0,0,83.18-346.29,144.69-459.79,61.51-113.51,147.54-185.92,192.15-161.75,44.61,24.17,30.9,135.79-30.61,249.29Z"/>
            <path class="cls-6" d="m790.81,994.73c-37.89,69.91-226.83,277.06-226.83,277.06,0,0,70.4-271.4,108.29-341.31,37.89-69.91,95.14-112.21,127.88-94.47,32.74,17.74,28.56,88.8-9.33,158.71Z"/>
            <path class="cls-10" d="m800.02,932.29c-38.05,70.21-194.05,262.02-194.05,262.02,0,0,75.53-235.41,113.58-305.62,38.05-70.21,86.91-117.37,109.13-105.33,22.22,12.04,9.39,78.72-28.67,148.94Z"/>
          </g>
          <path class="cls-16" d="m684.46,868.57h0s1.87-8.13,1.87-8.13h0s12.69-55.18,12.69-55.18l5.56-24.19c.66.25,1.34.47,1.97.76l56.32-245.15s-.8.17-2.27.54l.36-1.59s-4.87,1.01-13.24,3.7h0c-.08.02-.17.05-.24.08-1.39.45-2.85.93-4.43,1.47-.02,0-.04.01-.07.02-1.53.53-3.16,1.11-4.86,1.74-.36.13-.73.27-1.09.41-1.46.54-2.96,1.12-4.52,1.74-.34.13-.66.25-1,.39-1.78.71-3.63,1.47-5.54,2.28-.53.23-1.08.46-1.62.7-1.54.66-3.11,1.36-4.72,2.08-.56.25-1.11.49-1.68.76-2,.92-4.06,1.89-6.16,2.91-.65.31-1.31.65-1.97.97-1.65.81-3.32,1.66-5.03,2.54-.72.37-1.42.73-2.14,1.11-2.21,1.16-4.45,2.37-6.74,3.64-.69.39-1.4.79-2.1,1.19-1.8,1.02-3.62,2.07-5.46,3.16-.8.47-1.59.94-2.39,1.42-2.39,1.44-4.81,2.94-7.26,4.5-.66.42-1.33.87-2,1.31-1.97,1.28-3.96,2.6-5.97,3.96-.84.57-1.67,1.13-2.51,1.71-2.55,1.77-5.12,3.59-7.72,5.49-.54.4-1.09.82-1.63,1.22-2.2,1.63-4.4,3.32-6.62,5.05-.82.65-1.65,1.29-2.47,1.95-2.68,2.14-5.37,4.32-8.07,6.61-.35.3-.71.62-1.06.92-2.44,2.08-4.88,4.24-7.32,6.45-.79.72-1.58,1.43-2.37,2.16-2.69,2.48-5.39,5.01-8.08,7.65-.09.08-.17.16-.26.24-16.53,16.22-32.96,35.52-48.28,58.43-29.34,43.89-54.59,101.09-68.68,175.32-4.71,24.81-8.19,51.49-10.13,80.24,0,0,123.36-79.63,180.92-65.42,2.83.7,5.5,1.62,7.99,2.8h0Z"/>
          <path class="cls-16" d="m834.68,949.98h0s5.79-6,5.79-6c0,0,0,0,0,0l39.3-40.76,17.23-17.86c-.57-.41-1.13-.87-1.72-1.23l174.64-181.03s.3.77.78,2.2l1.13-1.17s1.81,4.64,4.13,13.12h0c.02.07.04.17.07.24.38,1.41.78,2.9,1.18,4.51,0,.02.01.05.02.07.39,1.57.79,3.26,1.2,5.02.08.37.17.76.25,1.14.34,1.52.68,3.09,1.02,4.74.07.35.14.69.22,1.05.38,1.88.75,3.85,1.11,5.89.1.57.2,1.16.3,1.74.29,1.65.56,3.35.83,5.09.09.61.19,1.2.28,1.82.32,2.18.63,4.43.93,6.75.09.71.17,1.45.26,2.18.22,1.83.42,3.69.62,5.6.08.8.17,1.59.24,2.4.23,2.48.44,5.02.62,7.63.05.79.1,1.6.15,2.41.13,2.06.24,4.16.33,6.3.04.92.08,1.84.12,2.78.1,2.79.17,5.64.19,8.54,0,.79,0,1.59,0,2.39,0,2.35-.02,4.74-.06,7.16-.02,1.01-.04,2.01-.07,3.04-.09,3.1-.21,6.25-.39,9.46-.04.67-.09,1.36-.14,2.03-.17,2.73-.38,5.5-.62,8.3-.09,1.04-.18,2.08-.28,3.14-.33,3.41-.69,6.86-1.13,10.37-.06.46-.13.93-.19,1.39-.41,3.18-.89,6.4-1.4,9.65-.17,1.05-.34,2.11-.52,3.17-.61,3.61-1.26,7.25-2,10.95-.02.12-.04.23-.06.35-4.57,22.7-11.76,47-22.6,72.35-20.75,48.55-54.89,100.93-109.39,153.26-18.21,17.49-38.66,34.97-61.7,52.3,0,0-.63-146.82-43.96-187.3-2.13-1.99-4.36-3.72-6.71-5.17h0Z"/>
          <path class="cls-3" d="m495.54,931.2l152.77-43.65c12.91-3.69,21.94-15.34,22.28-28.76h0l-98.49,4.94c-39.01-.37-72.03,28.73-76.56,67.48h0Z"/>
          <path class="cls-3" d="m1187.13,564.51c-106.76,196.99-236.77,316.71-319.33,378.83-13.42,10.09-25.59,18.67-36.19,25.79-12.86-13.39-27.12-25.74-42.67-36.79-10.02-7.16-20.61-13.76-31.71-19.77-15.41-8.35-31.22-15.22-47.24-20.67-2.21-.76-4.39-1.45-6.6-2.16l-20.16-5.56c-4.39-1.05-8.79-2.02-13.22-2.84.12-9.15.45-19.37,1.05-30.58,5.3-100.91,32.33-281.99,143.93-487.92C986.01,47.28,1252.26.05,1252.26.05c0,0,105.88,248.91-65.13,564.46Z"/>
          <path class="cls-16" d="m1252.16,0s-154.31,27.41-303.43,179.71c7.7-1.1,15.45-1.89,23.24-2.4,15.2-.99,30.52-.84,45.83.49,14.79,1.28,68.53,11.75,118.24,35.57,44,21.09,77.93,55.33,104.12,92.76,1.12,1.6,2.23,3.21,3.32,4.83,9.04,13.46,16.96,27.58,23.7,42.21,46.48-208.52-15.02-353.16-15.02-353.16Z"/>
          <path class="cls-8" d="m831.61,969.13s-16.81-21.05-75.77-53c-58.96-31.95-85.82-34.79-85.82-34.79,0,0,41.21-23.64,100.17,8.32,58.96,31.95,61.42,79.47,61.42,79.47Z"/>
          <path class="cls-1" d="m850.96,422.1c-123.64,228.14-138.96,459.09-149.03,453.64-10.06-5.45-11.06-245.25,112.58-473.39,123.64-228.14,325.09-358.23,335.15-352.77s-175.07,144.38-298.7,372.52Z"/>
          <path class="cls-1" d="m589.48,712.89c-47.67,87.97-55.26,176.11-58.94,174.12-3.68-2-2.07-93.38,45.61-181.35,47.67-87.97,123.35-139.21,127.03-137.22,3.68,2-66.03,56.47-113.7,144.44Z"/>
          <path class="cls-3" d="m885.36,1142.45l-46.99-151.55c-4.02-12.95.86-27,12.03-34.69h0l49.86,86.65c21.1,32.15,14.69,75.01-14.89,99.58h0Z"/>
          <g>
            <g>
              <circle class="cls-8" cx="981.54" cy="499.7" r="141.52" transform="translate(-65.85 840.41) rotate(-45)"/>
              <circle class="cls-11" cx="981.53" cy="499.69" r="100.03" transform="translate(350.22 1402.2) rotate(-82.01)"/>
            </g>
            <path class="cls-3" d="m888.25,449.13c-3.57,6.59-11.81,9.04-18.4,5.47-6.59-3.57-9.04-11.81-5.47-18.4,3.57-6.59,11.81-9.04,18.4-5.47,6.59,3.57,9.04,11.81,5.47,18.4Z"/>
            <path class="cls-3" d="m1050.4,401.09c-3.57,6.59-11.81,9.04-18.4,5.47-6.59-3.57-9.04-11.81-5.47-18.4,3.57-6.59,11.81-9.04,18.4-5.47,6.59,3.57,9.04,11.81,5.47,18.4Z"/>
            <path class="cls-3" d="m1100.77,564.31c-3.57,6.59-11.81,9.04-18.4,5.47s-9.04-11.81-5.47-18.4c3.57-6.59,11.81-9.04,18.4-5.47,6.59,3.57,9.04,11.81,5.47,18.4Z"/>
            <path class="cls-3" d="m935.93,612.35c-3.57,6.59-11.81,9.04-18.4,5.47-6.59-3.57-9.04-11.81-5.47-18.4,3.57-6.59,11.81-9.04,18.4-5.47,6.59,3.57,9.04,11.81,5.47,18.4Z"/>
          </g>
        </g>
        <g>
          <polygon class="cls-20" points="179.9 914.09 209.74 859.35 235.04 916.33 296.33 927.79 249.96 969.46 258 1031.29 204.03 1000.06 147.72 1026.81 160.74 965.84 117.89 920.55 179.9 914.09"/>
          <polygon class="cls-20" points="1502.53 279.66 1532.37 224.91 1557.67 281.89 1618.96 293.35 1572.59 335.02 1580.63 396.85 1526.66 365.62 1470.35 392.38 1483.37 331.41 1440.52 286.11 1502.53 279.66"/>
          <path class="cls-4" d="m1376.33,993.14c-26.37,0-47.83-21.45-47.83-47.82s21.46-47.82,47.83-47.82,47.82,21.45,47.82,47.82-21.46,47.82-47.82,47.82Zm0-65.64c-9.83,0-17.82,7.99-17.82,17.82s7.99,17.82,17.82,17.82,17.82-7.99,17.82-17.82-7.99-17.82-17.82-17.82Z"/>
          <path class="cls-15" d="m1529.74,560.78c-29.04,0-52.66-23.62-52.66-52.66s23.63-52.66,52.66-52.66,52.66,23.62,52.66,52.66-23.63,52.66-52.66,52.66Zm0-74.23c-11.89,0-21.57,9.68-21.57,21.57s9.68,21.57,21.57,21.57,21.57-9.68,21.57-21.57-9.68-21.57-21.57-21.57Z"/>
          <g>
            <path class="cls-17" d="m561.43,532.77c-7.52,0-13.64-6.12-13.64-13.64v-68.56c0-7.52,6.12-13.64,13.64-13.64s13.64,6.12,13.64,13.64v68.56c0,7.52-6.12,13.64-13.64,13.64Z"/>
            <path class="cls-17" d="m595.71,498.49h-68.56c-7.52,0-13.64-6.12-13.64-13.64s6.12-13.64,13.64-13.64h68.56c7.52,0,13.64,6.12,13.64,13.64s-6.12,13.64-13.64,13.64Z"/>
          </g>
          <g>
            <path class="cls-4" d="m1034.63,826.54c-7.52,0-13.64-6.12-13.64-13.64v-68.56c0-7.52,6.12-13.64,13.64-13.64s13.64,6.12,13.64,13.64v68.56c0,7.52-6.12,13.64-13.64,13.64Z"/>
            <path class="cls-4" d="m1068.91,792.26h-68.56c-7.52,0-13.64-6.12-13.64-13.64s6.12-13.64,13.64-13.64h68.56c7.52,0,13.64,6.12,13.64,13.64s-6.12,13.64-13.64,13.64Z"/>
          </g>
          <g>
            <path class="cls-14" d="m1588.36,822.7c-7.52,0-13.64-6.12-13.64-13.64v-68.56c0-7.52,6.12-13.64,13.64-13.64s13.64,6.12,13.64,13.64v68.56c0,7.52-6.12,13.64-13.64,13.64Z"/>
            <path class="cls-14" d="m1622.65,788.42h-68.56c-7.52,0-13.64-6.12-13.64-13.64s6.12-13.64,13.64-13.64h68.56c7.52,0,13.64,6.12,13.64,13.64s-6.12,13.64-13.64,13.64Z"/>
          </g>
          <g>
            <path class="cls-9" d="m427.76,1157.46c-7.52,0-13.64-6.12-13.64-13.64v-68.56c0-7.52,6.12-13.64,13.64-13.64s13.64,6.12,13.64,13.64v68.56c0,7.52-6.12,13.64-13.64,13.64Z"/>
            <path class="cls-9" d="m462.05,1123.19h-68.56c-7.52,0-13.64-6.12-13.64-13.64s6.12-13.64,13.64-13.64h68.56c7.52,0,13.64,6.12,13.64,13.64s-6.12,13.64-13.64,13.64Z"/>
          </g>
          <path class="cls-18" d="m1056.75,1153.44c-24.2,0-43.9-19.69-43.9-43.9s19.69-43.89,43.9-43.89,43.9,19.69,43.9,43.89-19.69,43.9-43.9,43.9Zm0-58.67c-8.15,0-14.78,6.63-14.78,14.77s6.63,14.78,14.78,14.78,14.77-6.63,14.77-14.78-6.63-14.77-14.77-14.77Z"/>
          <path class="cls-15" d="m96.38,407.32c-26.59,0-48.22-21.63-48.22-48.22s21.63-48.22,48.22-48.22,48.22,21.63,48.22,48.22-21.63,48.22-48.22,48.22Zm0-66.35c-10,0-18.13,8.13-18.13,18.13s8.13,18.13,18.13,18.13,18.13-8.13,18.13-18.13-8.13-18.13-18.13-18.13Z"/>
          <g>
            <path class="cls-17" d="m1022.73,1045.55c-7.36,0-13.35-5.99-13.35-13.34v-61.28c0-7.36,5.99-13.34,13.35-13.34s13.34,5.99,13.34,13.34v61.28c0,7.36-5.98,13.34-13.34,13.34Z"/>
            <path class="cls-17" d="m1053.36,1014.91h-61.28c-7.36,0-13.34-5.99-13.34-13.34s5.98-13.35,13.34-13.35h61.28c7.36,0,13.34,5.99,13.34,13.35s-5.98,13.34-13.34,13.34Z"/>
          </g>
          <g>
            <path class="cls-7" d="m414.13,253.24c-7.36,0-13.35-5.99-13.35-13.35v-61.27c0-7.36,5.99-13.34,13.35-13.34s13.34,5.99,13.34,13.34v61.27c0,7.36-5.99,13.35-13.34,13.35Z"/>
            <path class="cls-7" d="m444.76,222.6h-61.27c-7.36,0-13.35-5.99-13.35-13.35s5.99-13.34,13.35-13.34h61.27c7.36,0,13.35,5.98,13.35,13.34s-5.99,13.35-13.35,13.35Z"/>
          </g>
          <g>
            <path class="cls-14" d="m43.99,641.41c-7.36,0-13.35-5.98-13.35-13.34v-61.28c0-7.36,5.99-13.34,13.35-13.34s13.34,5.99,13.34,13.34v61.28c0,7.36-5.98,13.34-13.34,13.34Z"/>
            <path class="cls-14" d="m74.62,610.78H13.34c-7.36,0-13.34-5.99-13.34-13.35s5.99-13.34,13.34-13.34h61.27c7.36,0,13.34,5.98,13.34,13.34s-5.98,13.35-13.34,13.35Z"/>
          </g>
          <g>
            <path class="cls-9" d="m729.15,297.22c-7.36,0-13.35-5.99-13.35-13.34v-61.27c0-7.36,5.99-13.35,13.35-13.35s13.35,5.99,13.35,13.35v61.27c0,7.36-5.99,13.34-13.35,13.34Z"/>
            <path class="cls-9" d="m759.79,266.58h-61.27c-7.36,0-13.35-5.98-13.35-13.34s5.99-13.35,13.35-13.35h61.27c7.36,0,13.35,5.99,13.35,13.35s-5.99,13.34-13.35,13.34Z"/>
          </g>
        </g>
      </g>
    </g>
  </g>
</svg>