<?xml version="1.0" encoding="UTF-8"?>
<svg id="Capa_1" data-name="Capa 1" xmlns="http://www.w3.org/2000/svg" viewBox="0 0 1879.75 1685.7">
  <defs>
    <style>
      .cls-1 {
        fill: #4665ae;
      }

      .cls-2 {
        fill: #f9c152;
      }

      .cls-3 {
        fill: #fff;
      }

      .cls-4 {
        fill: #ea4a85;
      }

      .cls-5 {
        fill: #eb5e84;
      }

      .cls-6 {
        fill: #8a4f9a;
      }

      .cls-7 {
        fill: #489ad5;
      }

      .cls-8 {
        fill: #ef7a48;
      }

      .cls-9 {
        fill: #53b57e;
      }
    </style>
  </defs>
  <path class="cls-8" d="m290.3,107.54c6.5,0,9.09-3.84,10.1-9.27-7.02,3.02-14.29,5.74-23.37,9.27h13.27Z"/>
  <path class="cls-4" d="m627.68,107.54l72.98-.22,25.83.03c-.02.31-.03.55-.03.6,0,.17-.01.41-.02.7-.03.44-.07,1-.14,1.68-.21,2.04-.68,5.15-1.72,9.2-.22.84-.47,1.73-.74,2.65-.71,2.41-1.62,5.1-2.77,8.03-1.91,4.88-4.51,10.43-8.03,16.55-3.44,5.98-5.85,14.14-6.4,22.86-.18,2.91-.16,5.87.11,8.84.35,3.95,1.12,7.91,2.38,11.73.46,1.39.98,2.75,1.58,4.1,1.19,2.69,2.65,5.27,4.42,7.71,1.77,2.43,3.83,4.7,6.23,6.76.43.37.87.73,1.31,1.08,2.24,1.76,4.74,3.35,7.54,4.72,7.25,3.57,16.43,5.69,27.88,5.69,56.37,0,57.7-51.49,45.04-73.48-13.72-23.84-13.42-39.2-13.42-39.2h.9s-.01-.08-.02-.12l102.12.12c9.45,0,17.11-10.31,17.8-19.86L913.63,0c-39.97.27-90.21,6.67-145.96,24.65,0,0-5.79,8.68-92.6,11.57-18.6.62-38.93-1.29-60.13-4.12l.06,53.71c0,9.91,2.77,21.71,12.68,21.72Z"/>
  <path class="cls-8" d="m909.14,435.56l1.5,106.9s.19,0,.54-.03c3.57-.23,24.66-2.09,46.38-14.59,5.04-2.91,11.63-5.07,18.8-6,6.98-.91,14.52-.66,21.69,1.21,17.58,4.61,33.01,18.97,33.01,49.83,0,56.37-51.49,57.7-73.49,45.04-23.84-13.72-43.93-13.42-43.93-13.42v106.02c0,9.91,8.04,17.94,17.95,17.94h104.77c-.06-2.54-.98-17.18-13.42-38.8-12.66-22-11.34-73.49,45.04-73.49s57.7,51.49,45.04,73.49c-13.72,23.84-13.42,39.19-13.42,39.19h5.97c0-.26,0-.39,0-.39h106.02c7.68,0,14.23-4.84,16.79-11.64.73-1.96,1.15-4.08,1.15-6.3v-106.02s-.8-.01-2.32.12c-5.13.47-18.46,2.71-36.87,13.3-7.22,4.16-17.62,6.81-28.34,6.5-21.92-.64-45.14-13.67-45.14-51.53s25.4-52.04,48.14-51.54c9.64.21,18.8,2.73,25.34,6.5,18.41,10.59,31.74,12.82,36.87,13.3,1.52.14,2.32.12,2.32.12v-106.02c0-2.22-.42-4.34-1.16-6.3-2.18-5.82-7.3-10.2-13.56-11.34-.98.17-1.99.27-3.03.27h-106.02s-.11,5.96,3.11,16.21c1.97,6.11,5.11,13.69,10.12,22.41,1.46,2.54,2.73,5.47,3.75,8.66,8.16,24.47,1.66,65.41-48.61,65.41-29.35,0-43.77-13.96-49.07-30.45-5.14-15.31-2.29-32.94,3.85-43.62,12.18-21.17,13.31-35.64,13.41-38.62l-110.74-.57h-.02c-9.91,0-22.42,8.35-22.42,18.26Z"/>
  <path class="cls-8" d="m1224.32,97.41c2.91,5.99,9.03,10.13,16.13,10.13l4.92-.04,27.02-.21c-17.06-5.04-34.13-8.81-48.07-9.88Z"/>
  <path class="cls-8" d="m1552.48,1352.93c4.72-.37,9.51-.92,14.32-1.67l-6.89.05c-2.66,0-5.16.59-7.43,1.62Z"/>
  <path class="cls-7" d="m810.25,767.83c-13.72-23.84-13.42-39.2-13.42-39.2l98.11-.18c9.91,0,17.94-8.03,17.94-17.94v-105.26s.27,0,.75,0v-.75s20.09-.3,43.93,13.42c22,12.66,73.49,11.34,73.49-45.04,0-30.86-15.43-45.22-33.01-49.83-7.27-1.58-14.75-1.88-21.69-1.21-7.16.94-13.75,3.1-18.8,6-21.73,12.5-42.82,14.36-46.38,14.59-.35.02-.54.03-.54.03l-1.5-106.9c0-8.62-9.06-15.77-17.94-17.48l-94.25-.2s0-.13,0-.39h-.12s-.3-15.35,13.42-39.19c5.93-10.31,8.79-27.09,4.36-42.02-5.13-16.76-19.55-31.07-49.27-31.07-49.29,0-56.5,39.36-49.07,63.96,1.05,3.38,2.37,6.47,3.9,9.13,5.21,9.06,8.4,16.9,10.36,23.12,3.31,10.41,3.19,16.46,3.19,16.46h-100.7c-1.29,0-2.63-.13-3.99-.39h-1.46c-7.62,0-14.11,4.75-16.71,11.45.86,2.09,1.34,4.38,1.34,6.78v106.02s-1.54.03-4.37-.36c-4.71-.37-18.33-2.38-37.38-13.34-5.04-2.9-11.62-5.07-18.79-6-23.65-2.09-52.13,9.39-52.13,51.32,0,35.01,18.86,48.68,38.44,50.97,12.13,1.24,24.33-1.53,32.48-6.21,22.35-12.87,37.24-13.41,39.01-13.43h.18v106.02c0,9.91,8.04,17.94,17.94,17.94h106.02v.21h1.24s.3,15.35-13.43,39.2c-11.47,19.93-11.46,64.09,30.59,72.2,4.03.7,8.42,1.07,13.22,1.07,56.36,0,57.69-51.49,45.04-73.48Z"/>
  <path class="cls-7" d="m1229.67,230.69c-.87,0-16.01-.1-39.15-13.42-6.53-3.76-15.67-6.29-25.29-6.5-23.05.41-48.2,13.32-48.2,51.54s25.14,51.12,48.18,51.54c9.62-.21,18.77-2.74,25.3-6.5,23.14-13.32,38.28-13.43,39.15-13.42h.04v106.02c0,8.34,7.97,15.36,16.41,17.36h110.36s0,.2,0,.58h.41s.3,15.35-13.42,39.2c-7.66,13.31-10.2,37.41,1.48,54.38,7.7,10.77,21.28,18.52,43.15,18.52,56.38,0,57.7-51.49,45.04-73.49-13.72-23.84-13.42-39.19-13.42-39.19h100.7c1.57,0,3.21.2,4.86.58h.87c9,0,16.43-6.63,17.72-15.27-.13-.87-.23-1.76-.23-2.68v-106.02s.16,0,.44,0h0s15.36-.3,39.2,13.41c6.81,3.92,16.45,6.5,26.52,6.52,10.63-.06,21.7-3,30.37-10.24-32.29-26.87-53.52-52.95-75.63-77.52-16.88,6.48-30.87,8.38-30.87,8.38v-39.96c-11.79-10.77-24.91-21.16-40.63-31.06-47.25-29.75-106.12-40.41-154.89-30.14-14.88-8.23-40.29-18.52-65.74-26.04l-27.02.21c-8.15,2.23-15.66,9.07-15.66,17.17v106.02h-.04Z"/>
  <path class="cls-7" d="m997.41,1246.1c18.01-2.59,34.75-16.43,34.75-51.1,0-37.55-22.86-50.68-44.62-51.51-11.54.08-22.17,2.62-28.87,6.47-11.28,6.49-19.97,9.84-26.01,11.57-7.07,2.06-10.77,2.03-10.77,2.03v-106.02c0-8.62-6.08-15.81-14.19-17.54h-109.64v-.41h-.13s-.3-15.34,13.42-39.19c5.94-10.3,8.79-27.09,4.37-42.01-5.13-16.76-19.55-31.07-49.28-31.07-49.29,0-56.49,39.36-49.07,63.95,1.05,3.38,2.37,6.47,3.91,9.13,5.21,9.07,8.41,16.89,10.35,23.13,3.32,10.41,3.2,16.47,3.2,16.47h-100.7c-1.29,0-2.63-.14-3.98-.41h-1.46c-7.62,0-14.11,4.75-16.71,11.45.85,2.09,1.33,4.38,1.33,6.78v106.01s-1.53.03-4.37-.36c-4.7-.37-18.32-2.37-37.38-13.34-5.04-2.9-11.63-5.06-18.79-6-16.42-1.45-35.16,3.65-45.09,20.93,13.91,26.09,36.64,51.21,72.93,70.39,17.25-8.23,28.44-8.65,29.96-8.67h.18v21.96c63.39,22.64,81.55-7.46,101.21,9.39,20.26,17.36,92.6,15.48,168.56,13.74,14.93-.35,28.73-5.23,41.39-10.9v-34.19h.05v-.18s20.08-.3,43.93,13.42c1.53.88,3.18,1.68,4.91,2.41,3.91.09,7.59,1.1,11.03,3.26,2.96.54,6,.85,9.07.84,2.16-.07,4.34-.21,6.54-.46Z"/>
  <path class="cls-7" d="m1335,1601.02c.14,2,.38,3.96.72,5.88.16.96.35,1.9.56,2.83,1.14,5.12,2.9,9.77,5.08,13.55,13.72,23.84,13.42,39.19,13.42,39.19l-50.41-.43-33.12.25c14.11,13.34,26.97,21.96,37.52,23.41l54.98-26.05s-13.5-30.36-28.75-67.3c-.21,2.91-.21,5.82,0,8.66Z"/>
  <path class="cls-7" d="m1527.25,728.85h-106.02s0-.14,0-.4c.07-2.55.98-17.18,13.42-38.79,11.17-19.41,11.45-61.78-27.38-71.48-5.17-1.29-11.03-2.01-17.66-2.01-56.37,0-57.7,51.49-45.04,73.49,13.73,23.84,13.43,39.19,13.43,39.19h-106.02c-9.91,0-21.16,8.03-21.16,17.94v106.02h-.04c-.87,0-16.01-.11-39.15-13.43-6.54-3.76-15.68-6.29-25.29-6.5-23.05.41-48.2,13.32-48.2,51.54s25.14,51.13,48.18,51.54c9.62-.21,18.77-2.74,25.31-6.51,23.14-13.32,38.29-13.42,39.15-13.42h.04v106.02c0,8.34,7.97,15.35,16.41,17.36h110.37s0,.21-.01.59h.42s.3,15.35-13.43,39.19c-7.66,13.31-10.19,37.41,1.49,54.38,7.69,10.78,21.28,18.53,43.15,18.53,56.37,0,57.7-51.49,45.03-73.48-13.72-23.85-13.42-39.2-13.42-39.2h100.7c1.57,0,3.21.21,4.86.59h.87c9,0,16.42-6.64,17.72-15.27-.14-.87-.22-1.76-.22-2.67v-106.02s.15,0,.44,0h0s15.35-.3,39.19,13.41c6.81,3.92,16.45,6.5,26.51,6.52,22.32-.12,46.54-12.89,46.54-51.55s-24.2-51.41-46.49-51.55c-10.08,0-19.74,2.59-26.56,6.51-23.84,13.72-39.19,13.43-39.19,13.43h0c-.29,0-.44,0-.44,0v-106.02c0-.91.09-1.8.22-2.68-1.3-8.64-8.73-15.27-17.72-15.27Z"/>
  <path class="cls-2" d="m609.58,711.8l.05-107.12h-.18c-1.77.02-16.66.56-39.01,13.43-8.34,4.8-20.54,7.62-32.48,6.21-19.57-2.3-38.44-15.96-38.44-50.97,0-41.93,28.48-53.41,52.13-51.32,8.14.72,15.71,3.04,21.35,6.28,16.32,9.39,28.65,12.21,34.82,13.06,2.84.39,4.37.36,4.37.36v-106.02c0-2.4-.48-4.68-1.34-6.78-2.47-6.05-8.14-10.44-14.9-11.08-.56.05-1.13.09-1.7.09h-106.02v-.17s-.28-15.38,13.42-39.19c3.95-6.85,6.52-16.56,6.52-26.68-.08-22.34-12.84-46.64-51.55-46.64s-51.45,24.27-51.55,46.61c-.02,10.14,2.57,19.86,6.51,26.71,13.72,23.84,13.43,39.19,13.43,39.19v.17h-106.02c-.57,0-1.14-.04-1.7-.09-9.11.86-16.24,8.52-16.24,17.86v106.02s-15.35.3-39.19-13.42c-22-12.66-73.49-11.34-73.49,45.04,0,23.4,8.88,37.31,20.83,44.68,16.77,9.84,39.23,7.19,51.9-.11,23.85-13.72,39.95-12.96,39.95-12.96v106.02c0,9.91,8.04,17.95,17.94,17.95h1.11s106.02-.01,106.02-.01c0,0,.3-15.36-13.42-39.2-12.66-22-11.33-73.49,45.04-73.49s57.7,51.49,45.04,73.49c-13.72,23.84-13.42,39.2-13.42,39.2h105.17c9.74-.13,15.06-7.29,15.06-17.11Z"/>
  <path class="cls-2" d="m1795.2,624.03c-2.81-13.47-5.42-25.18-9-35.2-4.52-12.67-7.27-36.54-11.63-65.09-17.25,4.82-32.23,19.2-32.23,49.6,0,23.4,8.87,37.31,20.83,44.68,9.77,5.73,21.46,7.2,32.04,6.01Z"/>
  <path class="cls-2" d="m1564.44,226c-9.73-10.81-19.66-21.32-30.78-31.48v39.96s13.89-1.93,30.78-8.49Z"/>
  <path class="cls-2" d="m1582.84,307.34c-21.5-12.37-36.09-13.34-38.76-13.41-.29,0-.44,0-.44,0v106.02c0,.91.09,1.8.23,2.68,1.12,7.52,6.9,13.52,14.32,14.93.93-.15,1.88-.25,2.86-.25h106.02s0,.2-.01.57h.54s.3,15.36-13.42,39.2c-8.28,14.38-10.57,41.38,4.59,58.34,8.06,8.66,20.83,14.57,39.91,14.57,56.38,0,57.7-51.49,45.04-73.49-13.72-23.84-13.42-39.19-13.42-39.19h17.92c-13.17-32.39-32.46-61.69-61.85-80.22-17.85-11.25-32.95-22.42-46.21-33.46-8.67,7.24-19.73,10.18-30.37,10.24-10.22.05-20.05-2.54-26.95-6.52Z"/>
  <path class="cls-2" d="m580.6,1235.47c7.51,3.97,15.57,7.69,24.28,11.11,2,.77,3.94,1.5,5.84,2.18l.02-21.96h-.18c-1.52.02-12.71.43-29.96,8.67Z"/>
  <path class="cls-2" d="m552.76,1144.15c8.14.72,15.71,3.04,21.35,6.28,16.32,9.39,28.65,12.21,34.82,13.06,2.84.39,4.37.36,4.37.36v-106.01c0-2.4-.48-4.69-1.33-6.78-2.47-6.05-8.13-10.44-14.91-11.08-.56.05-1.13.09-1.7.09h-104.91c-3.95,22.17-9.27,75.33,17.22,125.02,9.93-17.28,28.67-22.38,45.09-20.93Z"/>
  <path class="cls-2" d="m457.73,927.38c-38.71,0-51.46,24.27-51.55,46.61-.02,10.13,2.57,19.85,6.52,26.7,10.43,18.12,12.75,31.32,13.27,36.61,33.48-1.2,57.98-6.01,64.82-7.48,1.58-6.84,4.91-16.84,11.99-29.14,3.94-6.85,6.52-16.55,6.52-26.68-.08-22.34-12.84-46.64-51.56-46.64Z"/>
  <path class="cls-2" d="m353.46,934.26c24.66,6.07,61.15-2.37,61.15-49.83,0-31.6-16.18-45.9-34.28-50.14-14.18-3.32-29.54-.46-39.21,5.1-22.2,12.77-37.03,13.4-38.97,13.42h-.22v-106.02c0-9.91-8.03-17.94-17.94-17.94h-106.02s0-.14,0-.39c.07-2.54.98-17.18,13.42-38.8,12.66-22,11.34-73.49-45.04-73.49s-57.7,51.49-45.04,73.49c13.72,23.84,13.43,39.19,13.43,39.19H37.25c14.88,44.46,43.71,86,82.2,113.99,63.66,46.3,34.93,58.42,57.89,89.87,34.47,47.21,79.45,74.02,124.59,88.7v-105.36s3.89-.07,10.79,1.59c6.81,1.66,16.56,5.01,28.41,11.82,3.48,2,7.7,3.66,12.34,4.8Z"/>
  <path class="cls-2" d="m1876.13,848.32c-11.44,4.17-18.7,4.47-20.01,4.48h-.23v-60.92c-13.16-22.7-23.23-43.7-31.07-63.04h-92.89s0-.14,0-.39c.07-2.54.98-17.18,13.42-38.8,12.66-22,11.34-73.49-45.04-73.49s-57.69,51.49-45.03,73.49c13.72,23.84,13.42,39.19,13.42,39.19h-106.02c-9,0-16.43,6.63-17.72,15.27-.14.88-.22,1.77-.22,2.68v106.02s.15,0,.44,0c2.66-.07,17.25-1.04,38.75-13.41,6.92-3.98,16.76-6.58,27-6.51,22.3.14,46.49,12.91,46.49,51.55s-24.22,51.43-46.54,51.55c-10.22.06-20.04-2.54-26.95-6.52-21.5-12.37-36.09-13.34-38.75-13.41-.29,0-.44,0-.44,0v106.02c0,.91.09,1.8.22,2.67,1.12,7.52,6.9,13.52,14.32,14.94.93-.15,1.88-.25,2.86-.25h106.02s0,.21,0,.59h.54s.3,15.35-13.42,39.19c-8.29,14.39-10.58,41.37,4.59,58.34,8.06,8.66,20.83,14.57,39.91,14.57,56.38,0,57.7-51.49,45.04-73.48-13.72-23.85-13.42-39.2-13.42-39.2h106.02c1.16,0,2.29.12,3.39.34,8.54-1.37,15.08-8.76,15.08-17.69v-106.02s3.89-.07,10.79,1.59c3.4.83,7.54,2.08,12.31,3.98,1.55-25.85.72-51.13-2.87-73.29Z"/>
  <path class="cls-9" d="m629.03,417.48c1.36.26,2.7.39,3.99.39h100.7s.12-6.05-3.19-16.46c-1.96-6.16-5.12-13.86-10.23-22.73-1.59-2.77-2.96-6-4.02-9.53-7.43-24.6-.22-63.96,49.07-63.96,29.72,0,44.14,14.31,49.27,31.07,4.61,15.02,1.75,32.02-4.23,42.41-12.44,21.61-13.36,36.25-13.43,38.79,0,.26,0,.39,0,.39l94.25.2h1.5c9.91,0,20.93-8.8,20.93-18.71v-106.02s8.7-.16,23.18,5.61c5.76,2.06,12.09,4.82,18.48,8.5,2.89,1.67,6.41,3.09,10.3,4.17,25.77,6.16,65.65-1.91,65.65-49.31,0-28.37-13.04-42.79-28.8-48.51-7.48-2.45-15.45-3.25-22.97-2.84-8.28.68-16,3.02-21.73,6.31-11.62,6.69-23.13,10.04-31.9,11.72-7.23,1.85-12.89,2.67-15.2,2.88v-1.18h-.18v-106.02c0-.39.03-.79.05-1.18-.99-8.97-8.59-15.96-17.82-15.96h-103s-.3,15.35,13.42,39.2c12.66,22,11.33,73.48-45.04,73.48-11.45,0-20.63-2.12-27.88-5.69-2.79-1.38-5.29-2.96-7.54-4.72-.45-.35-.88-.71-1.31-1.08-2.4-2.06-4.46-4.33-6.23-6.76-1.77-2.43-3.23-5.02-4.42-7.71-.59-1.34-1.12-2.71-1.58-4.1-1.26-3.82-2.03-7.78-2.38-11.73-.26-2.97-.29-5.93-.11-8.84.55-8.71,2.96-16.88,6.4-22.86,3.52-6.11,6.12-11.67,8.03-16.55,1.15-2.93,2.06-5.62,2.77-8.03.27-.92.52-1.8.74-2.65,1.04-4.04,1.51-7.16,1.72-9.2.07-.68.11-1.24.14-1.68.01-.29.02-.52.02-.7,0-.27,0-.4,0-.4l-25.8-.22-72.98.22c-5.51,1.72-9.87,6.03-11.69,11.5.6,1.79.94,3.7.94,5.69v106.02s-.66,0-1.86-.05c0,0-2.12.04-6.04-.62-8.01-1.15-21.3-4.27-36.03-12.75-7.1-4.09-17.28-6.71-27.8-6.5-7.57.34-15.3,2-22.27,5.39-13.24,6.91-23.42,21.08-23.42,46.14,0,23.39,8.86,37.3,20.81,44.66,8.8,5,19.09,6.97,28.81,6.83,9.09-.42,17.65-2.88,23.86-6.45,12.93-7.44,23.35-10.75,30.19-12.23,4.84-1.31,7.14-1.25,7.14-1.25v.14c1.22-.1,1.87-.09,1.87-.09v106.02c0,1.75-.27,3.44-.73,5.04,2.81,6.25,10.38,11.08,17.56,12.45Z"/>
  <path class="cls-9" d="m113.09,417.88h.54s.3,15.36-13.42,39.2c-8.29,14.39-10.58,41.38,4.59,58.34,8.06,8.66,20.83,14.56,39.91,14.56,56.37,0,57.7-51.49,45.04-73.49-13.72-23.84-13.42-39.19-13.42-39.19h106.01c1.16,0,2.29.12,3.39.33,8.55-1.37,15.09-8.76,15.09-17.69v-106.02s3.89-.07,10.79,1.6c6.81,1.65,16.56,5.01,28.41,11.82,3.48,2,7.7,3.66,12.34,4.8,24.67,6.07,61.16-2.38,61.16-49.83,0-31.6-16.18-45.9-34.28-50.14-14.19-3.32-29.55-.46-39.21,5.1-22.2,12.77-37.03,13.39-38.97,13.42h-.22s0-106.02,0-106.02c0-8.05-5.3-14.86-12.6-17.13h-11.19c-3.1,1.2-6.39,2.49-9.98,3.93-43.4,17.36-101.32-5.95-115.76,86.73,0,0-26.93,0-51.48,44.52-8.64,15.66-16.99,36.82-23.77,65.43,0,0-1.18.98-3.22,2.93-10.39,9.88-43.48,45.02-61.21,106.23h101.47s0,.2,0,.57Z"/>
  <path class="cls-9" d="m53.21,624.41c23.3-.67,48.61-13.71,48.61-51.53s-25.3-50.86-48.59-51.53c-9.47.28-18.45,2.78-24.89,6.49-10.77,6.2-19.76,9.51-26.43,11.31,6.07,45.88,24.73,45.49,26.36,78.73l.07.04c6.44,3.71,15.41,6.21,24.88,6.49Z"/>
  <path class="cls-9" d="m1228.36,428.95c.74,1.96,1.16,4.08,1.16,6.3v106.02s-.8.02-2.32-.12h0c-5.05-.44-18.44-2.64-36.97-13.3-6.53-3.75-15.64-6.28-25.24-6.5-22.74-.49-48.14,11.95-48.14,51.54s23.22,50.89,45.14,51.53c10.68.29,21.04-2.35,28.24-6.5,18.53-10.66,31.92-12.86,36.97-13.31h0c1.52-.12,2.32-.11,2.32-.11v106.02c0,2.21-.42,4.34-1.15,6.3,2.55,6.8,9.09,11.64,16.78,11.64h111.33s.3-15.35-13.42-39.19c-12.66-22-11.34-73.49,45.04-73.49,7.28,0,13.64.87,19.17,2.41,38.83,9.7,38.55,52.07,27.38,71.48-12.44,21.61-13.36,36.25-13.42,38.79h99.18c9.91,0,17.94-8.03,17.94-17.94v-106.02h.23c2.25.02,21.32.54,43.71,13.42,6.44,3.71,15.41,6.21,24.88,6.49,23.3-.67,48.61-13.71,48.61-51.53s-25.3-50.86-48.6-51.53c-9.47.28-18.44,2.78-24.89,6.49-23.16,13.34-38.32,13.43-39.15,13.43h-.04v-106.02c0-8.34-9.06-15.35-17.84-17.36-1.64-.38-3.29-.58-4.86-.58h-100.7s-.3,15.35,13.42,39.19c12.65,22,11.33,73.49-45.04,73.49-21.87,0-35.45-7.75-43.15-18.52-12.14-17-9.63-41.5-1.88-54.96,12.18-21.17,13.31-35.63,13.41-38.61,0-.38,0-.58,0-.58h-111.33c-7.7,0-14.23,4.84-16.79,11.64Z"/>
  <path class="cls-9" d="m921.95,1023.91v-1.85s0-106.02,0-106.02c0,0,12.43-.28,35.15,12.42,1.36.71,2.74,1.44,4.14,2.25l.09.05c23.14,11.2,71.02,8.03,71.02-46.34s-48.14-57.55-71.21-46.25c0,0,0,0,0,0-1.66.96-3.29,1.84-4.9,2.68-22.18,12.21-34.29,11.95-34.29,11.95v-104.3c-.07-9.85-8.07-17.81-17.93-17.81l-105.95-1.86s-.3,15.35,13.42,39.2c12.66,22,11.33,73.49-45.04,73.49-5.28,0-10.09-.45-14.45-1.29-42.05-8.11-42.06-52.26-30.59-72.2,13.73-23.84,13.43-39.2,13.43-39.2h-100.7c-7.94,0-14.66,5.16-17.03,12.31.6,1.79.94,3.7.94,5.68v106.02s-.66,0-1.85-.06h0s-2.13.05-6.04-.61c-8.01-1.15-21.31-4.28-36.04-12.75-7.1-4.09-17.27-6.71-27.8-6.5-7.57.34-15.3,2-22.27,5.39-13.25,6.91-23.43,21.09-23.43,46.15,0,23.39,8.87,37.3,20.81,44.67,8.8,5,19.09,6.97,28.82,6.83,9.09-.43,17.65-2.88,23.86-6.46,12.93-7.44,23.35-10.75,30.19-12.23,4.84-1.31,7.13-1.24,7.13-1.24v.14c1.22-.09,1.87-.08,1.87-.08v106.02c0,1.75-.26,3.44-.73,5.04,2.8,6.25,10.39,11.08,17.57,12.45,1.35.26,2.7.41,3.98.41h100.7s.11-6.06-3.2-16.47c-1.96-6.16-5.12-13.86-10.23-22.73-1.59-2.77-2.96-6-4.03-9.54-7.42-24.59-.22-63.95,49.07-63.95,29.73,0,44.15,14.32,49.28,31.07,4.6,15.02,1.74,32.02-4.24,42.41-12.44,21.61-13.36,36.24-13.42,38.79v.41h111.34c9.91,0,12.55-6.18,12.55-16.09Z"/>
  <path class="cls-9" d="m1608.29,1246.53c23.3-.67,48.61-13.71,48.61-51.53s-25.3-50.86-48.59-51.53c-9.47.27-18.45,2.79-24.89,6.49-23.18,13.34-38.32,13.43-39.16,13.43h-.04v-106.02c0-8.35-9.06-15.36-17.83-17.36-1.65-.38-3.29-.59-4.86-.59h-100.7s-.3,15.35,13.42,39.2c12.66,21.99,11.34,73.48-45.03,73.48-21.87,0-35.46-7.75-43.15-18.53-12.14-16.99-9.64-41.5-1.89-54.96,12.18-21.17,13.31-35.63,13.41-38.61.01-.38.01-.59.01-.59h-111.34c-7.69,0-14.23,4.85-16.79,11.64.74,1.96,1.16,4.08,1.16,6.3v106.02s-.8,0-2.32-.13h0c-5.05-.44-18.45-2.64-36.98-13.3-6.52-3.75-15.64-6.28-25.24-6.5-22.74-.49-48.14,11.95-48.14,51.54s23.23,50.89,45.15,51.54c10.68.29,21.04-2.35,28.23-6.5,18.53-10.66,31.93-12.86,36.98-13.3h0c1.52-.13,2.32-.11,2.32-.11v106.01c0,2.23-.43,4.35-1.16,6.3,2.55,6.8,9.09,11.64,16.78,11.64h110.51c-.14-3.33-1.44-17.76-13.49-38.71-12.75-22.14-11.41-73.97,45.33-73.97h.3s.31,0,.31,0c56.37,0,57.7,51.49,45.03,73.48-.58,1.02-1.11,2-1.64,2.98-.4.73-.79,1.46-1.16,2.18-.9,1.72-1.67,3.35-2.43,4.97-8.35,17.95-8.18,29.07-8.18,29.07h52.88c1.01-1.14,1.99-2.28,2.9-3.43,0,0,6.87,1.75,18,3.43h26.91c9.91,0,17.94-8.03,17.94-17.94v-106.02h.24c2.25.02,21.32.54,43.71,13.42,6.43,3.71,15.41,6.21,24.88,6.49Z"/>
  <path class="cls-5" d="m379.23,212.17c18.19,4.17,34.5,18.46,34.5,50.19,0,47.6-36.71,55.95-61.37,49.78-4.64-1.14-8.86-2.79-12.34-4.8-11.85-6.81-21.59-10.17-28.41-11.82-6.76-1.62-10.56-1.55-10.56-1.55v106.02c0,9.34,7.13,17,16.24,17.86.56.05,1.13.09,1.7.09h106.02v-.17c-.02-1.73-.54-16.63-13.43-39.02-3.97-6.9-6.56-16.69-6.51-26.88.1-22.33,12.85-46.61,51.55-46.61s51.47,24.29,51.55,46.64c.04,10.18-2.55,19.96-6.52,26.85-12.88,22.38-13.41,37.27-13.42,39.02v.17h106.02c.57,0,1.14-.04,1.7-.09,7.4-.7,13.48-5.89,15.51-12.82.46-1.6.73-3.29.73-5.04v-106.02s-.65-.01-1.87.09c-1.52.12-3.93.41-7.14,1.11-6.84,1.48-17.26,4.79-30.19,12.23-6.21,3.58-14.77,6.03-23.86,6.45-9.74.45-20.1-1.45-28.81-6.83-11.95-7.37-20.81-21.27-20.81-44.66,0-25.07,10.18-39.24,23.42-46.14,6.93-3.62,14.68-5.25,22.27-5.39,10.52-.21,20.7,2.41,27.8,6.5,14.73,8.48,28.02,11.61,36.03,12.75,2.63.38,4.69.54,6.04.62,1.2.06,1.86.05,1.86.05v-106.02c0-1.99-.34-3.9-.94-5.69-2.38-7.11-9.08-12.25-17-12.25h-6.75l-111.21.75s-.29-15.35,13.43-39.19c7.22-12.54,9.87-34.67.38-51.38-34.72-1.43-67.63,2.31-95.18,17.9-1.03,12.73,2.37,25.9,7.89,35.15,14.08,23.63,10.84,36.76,10.84,36.76l-104.48.74c-7.43,2.19-12.86,9.06-12.86,17.2v105.96c1.94-.02,16.77-.64,38.97-13.42,9.66-5.56,25.03-8.42,39.21-5.1Z"/>
  <path class="cls-5" d="m101.31,689.66c-12.66-22-11.33-73.49,45.04-73.49s57.7,51.49,45.04,73.49c-12.44,21.62-13.35,36.25-13.42,38.8h104.37c9.91,0,18.7-7.57,18.7-17.48v-106.02s-16.11-.76-39.95,12.96c-12.67,7.29-35.13,9.95-51.9.11-12.34-7.24-21.59-21.25-21.59-45.14,0-56.37,51.49-57.7,73.49-45.04,23.85,13.72,39.19,13.43,39.19,13.43v-106.02c0-8.75-6.26-16.02-14.55-17.61-1.1-.21-2.23-.33-3.39-.33h-106.01s-.3,15.35,13.42,39.19c12.66,22,11.33,73.49-45.04,73.49-19.08,0-31.85-5.9-39.91-14.56-15.75-16.92-13.5-44.38-5.13-58.93,12.19-21.17,13.31-35.63,13.42-38.62,0-.37,0-.57,0-.57H11.63c-5.71,19.73-9.84,42.16-11.07,67.36-1.15,23.52-.45,41,1.33,54.49,6.67-1.8,15.67-5.11,26.43-11.31,6.45-3.71,15.43-6.21,24.89-6.49,22.86-.66,48.59,11.67,48.59,51.53s-25.75,52.2-48.61,51.53c-9.47-.28-18.44-2.78-24.88-6.49l-.07-.04c.31,6.27,0,13.74-1.09,22.95-3.41,28.48.32,58.67,9.96,87.63h75.98s0,.13,0,.39h1.64s.29-15.35-13.43-39.19Z"/>
  <path class="cls-5" d="m1743.72,456.5c12.66,22,11.34,73.49-45.04,73.49-19.09,0-31.86-5.91-39.91-14.57-15.75-16.92-13.5-44.37-5.12-58.92,12.18-21.17,13.31-35.63,13.41-38.62.02-.37.01-.57.01-.57h-106.02c-.98,0-1.93.1-2.86.25-8.54,1.38-15.08,8.76-15.08,17.69v106.02h.04c.84,0,15.99-.09,39.15-13.43,6.45-3.71,15.42-6.21,24.89-6.49,22.86-.66,48.6,11.67,48.6,51.53s-25.75,52.2-48.61,51.53c-9.46-.28-18.43-2.78-24.88-6.49-22.39-12.88-41.45-13.4-43.71-13.42h-.22v106.02c0,9.91,8.03,17.94,17.94,17.94h110.75s0,.13,0,.39h1.65s.3-15.35-13.42-39.19c-12.66-22-11.34-73.49,45.03-73.49s57.7,51.49,45.04,73.49c-12.44,21.62-13.35,36.25-13.42,38.8h92.73c-17.22-42.57-23.77-77.13-29.47-104.43-10.57,1.2-22.27-.28-32.04-6.01-12.34-7.24-21.59-21.25-21.59-45.14,0-30.79,15.37-45.14,32.9-49.77-4.98-32.48-12.08-70.94-26.25-105.8h-17.92s-.3,15.35,13.42,39.19Z"/>
  <path class="cls-5" d="m597.07,1039.97c7.4-.7,13.48-5.89,15.51-12.82.46-1.6.73-3.29.73-5.04v-106.02s-.64-.01-1.87.08c-1.52.12-3.93.42-7.13,1.11-6.84,1.48-17.27,4.79-30.19,12.23-6.21,3.58-14.77,6.04-23.86,6.46-9.75.45-20.1-1.45-28.82-6.83-11.95-7.37-20.81-21.28-20.81-44.67,0-25.06,10.18-39.24,23.43-46.15,6.92-3.61,14.68-5.24,22.27-5.39,10.52-.21,20.7,2.41,27.8,6.5,14.73,8.48,28.03,11.6,36.04,12.75,2.62.37,4.68.54,6.04.61,1.2.07,1.85.06,1.85.06v-106.02c0-1.99-.34-3.9-.94-5.68-2.38-7.12-9.09-12.25-17-12.25h-110.75s-.3-15.36,13.42-39.2c12.66-22,11.34-73.49-45.04-73.49s-57.7,51.49-45.04,73.49c13.73,23.84,13.42,39.2,13.42,39.2h-106.25c-9.8.14-17.71,8.11-17.71,17.93v105.96c1.94-.02,16.77-.64,38.97-13.42,9.67-5.56,25.03-8.43,39.21-5.1,18.19,4.18,34.5,18.46,34.5,50.19,0,47.6-36.71,55.95-61.38,49.78-4.64-1.14-8.86-2.79-12.34-4.8-11.85-6.82-21.59-10.17-28.41-11.82-6.76-1.62-10.57-1.54-10.57-1.54v105.38c44.4,14.4,88.95,17.08,123.79,15.82-.55-5.41-2.93-18.51-13.25-36.44-3.96-6.89-6.56-16.68-6.52-26.87.09-22.34,12.84-46.61,51.55-46.61s51.48,24.3,51.56,46.64c.04,10.19-2.55,19.96-6.52,26.85-7.01,12.18-10.35,22.12-11.95,28.95,1.23-.26,1.91-.42,1.91-.42,0,0-1.07,3.88-2.29,10.66h104.91c.57,0,1.14-.03,1.7-.09Z"/>
  <path class="cls-5" d="m1859.92,798.75c-1.3-2.18-2.54-4.33-3.79-6.48v60.54c1.31-.02,8.57-.32,20.01-4.48-3.16-19.53-8.47-36.64-16.21-49.57Z"/>
  <path class="cls-5" d="m1856.13,916.1v106.02c0,3.08.79,5.98,2.17,8.52,11.12-32.23,18.44-71.23,20.71-109.02-4.77-1.9-8.91-3.15-12.31-3.98-6.76-1.62-10.57-1.54-10.57-1.54Z"/>
  <path class="cls-5" d="m1731.41,1039.42s-.3,15.35,13.42,39.2c12.66,21.99,11.34,73.48-45.04,73.48-19.09,0-31.85-5.91-39.91-14.57-15.74-16.92-13.5-44.37-5.12-58.92,12.19-21.18,13.32-35.64,13.41-38.61.01-.38,0-.59,0-.59h-106.02c-.97,0-1.92.11-2.86.25-8.55,1.37-15.09,8.76-15.09,17.7v106.01h.04c.84.01,15.98-.08,39.16-13.42,6.44-3.7,15.42-6.21,24.89-6.49,22.86-.67,48.59,11.67,48.59,51.53s-25.75,52.2-48.61,51.53c-9.47-.28-18.44-2.79-24.88-6.49-22.39-12.89-41.46-13.4-43.71-13.42h-.22v106.01c0,9.92,8.04,17.94,17.94,17.94h13.5c31.69-5.68,63.67-20.48,82.2-54.07,46.3-83.92,11.55-82.64,11.55-82.64,0,0,40.52-5.79,46.3-28.93,0,0,76.61-44,121.54-102.73,7.21-9.42,13.77-21.43,19.55-35.21-2.62-3.7-6.61-6.35-11.23-7.23-1.1-.21-2.23-.34-3.39-.34h-106.02Z"/>
  <path class="cls-8" d="m921.95,1226.62v34.34c18.94-8.52,35.28-18.83,48.83-18.51-1.73-.73-3.38-1.53-4.91-2.41-23.84-13.71-43.93-13.42-43.93-13.42Z"/>
  <path class="cls-8" d="m1120.01,1389.76c-13.72-23.84-13.42-39.2-13.42-39.2h106.19c7.65-.03,14.15-4.86,16.7-11.63.73-1.96,1.16-4.08,1.16-6.3v-106.01s-.8-.02-2.32.12c-5.12.47-18.46,2.7-36.87,13.3-7.22,4.16-17.62,6.8-28.34,6.5-21.92-.64-45.15-13.67-45.15-51.54s25.4-52.03,48.14-51.54c9.64.21,18.8,2.73,25.34,6.5,18.41,10.6,31.75,12.83,36.87,13.3,1.52.14,2.32.13,2.32.13v-106.02c0-2.23-.43-4.35-1.16-6.3-2.19-5.82-7.3-10.2-13.56-11.34-.98.17-1.99.28-3.03.28h-106.02s-.11,5.95,3.11,16.2c1.97,6.11,5.11,13.69,10.12,22.41,1.46,2.54,2.73,5.46,3.75,8.66,8.16,24.47,1.66,65.4-48.6,65.4-29.36,0-43.78-13.96-49.08-30.44-5.14-15.32-2.29-32.95,3.85-43.62,12.19-21.17,13.31-35.64,13.41-38.61h-103.54c-.97,0-1.91-.1-2.84-.25-8.28,1.59-14.53,8.87-14.53,17.61v106.02s3.42.07,10.14-1.86c6.04-1.73,14.73-5.09,26.01-11.57,7.34-4.22,17.96-6.88,28.87-6.47,21.76.83,44.62,13.95,44.62,51.51,0,34.66-16.74,48.51-34.75,51.1-2.19.25-4.37.39-6.54.46-3.07,0-6.11-.31-9.07-.84,3.07,1.93,5.97,4.78,8.67,8.82,0,0,6.93,51.93,34.62,96.03h18.26s.09,0,.09,0c0,0,.13,7.21-4.18,19.4,14.81,17.38,33.86,31.63,58.27,37.93,0,0,7.88,14.37,20.76,36.54,11.92-16.98,9.42-41.29,1.71-54.67Z"/>
  <path class="cls-1" d="m910.47,88.77c0,9.5,10.55,17.34,19.89,17.97.4.02.8.06,1.21.06l103.46-.06c0-1.04-.18-16.13-13.42-39.13-7.13-12.4-9.83-34.16-.73-50.8C998.32,8.85,962.15-.08,913.63,0l-3.12,87.68-.04,1.08Z"/>
  <path class="cls-1" d="m1111.7,67.6c-13.24,23-13.43,38.09-13.43,39.13v.06h106.03c.41,0,.81-.04,1.21-.06,6.38-.43,11.85-4.19,14.68-9.56-6-.23-11.32.11-15.61,1.19,0,0-17.78-46.16-86.67-63.38,1.27,12.18-1.5,24.44-6.2,32.62Z"/>
  <path class="cls-1" d="m1270.01,1461.86c-23.84,13.72-39.19,13.41-39.19,13.41v-1.21l-.27.04v-105.6c0-9.85-7.94-17.84-17.77-17.93h-.17s-106.02,0-106.02,0c0,0-.3,15.35,13.42,39.2,7.71,13.39,10.21,37.69-1.71,54.67,25.28,43.5,69.86,117.11,112.25,171.66v-77.91c.81.11,1.73.27,2.74.46,5.23.5,18.49,2.8,36.72,13.29,4.26,2.45,9.45,4.35,15.04,5.41,10.99,1.21,23.17-.52,33.13-6.87-10.59-27.25-19.92-53.44-23.87-70.22,0,0,11.14-6.7,23.64-18.55-5.04-3.17-10.64-5.19-16.37-6.23-11.46-1.29-23.26,1.61-31.57,6.39Z"/>
  <path class="cls-1" d="m1025.09,1350.57c4.21,6.69,8.89,13.2,14.1,19.33,4.23-11.98,4.17-19.13,4.16-19.32h0s-18.26,0-18.26,0Z"/>
  <path class="cls-3" d="m1531.91,1353.63c-3.2-1.91-6.83-3.06-10.39-3.06h-26.91c9.74,1.48,22.75,2.9,37.3,3.06Z"/>
  <path class="cls-6" d="m494.46,68.35c-13.71,23.84-13.43,39.19-13.43,39.19l111.21-.75,7.9-.05c9.91,0,14.86-11,14.86-20.91l-.06-53.71c-38.85-5.19-80.63-13.5-120.1-15.13,9.49,16.71,6.84,38.83-.38,51.38Z"/>
  <path class="cls-6" d="m407.56,70.03c-5.52-9.25-8.92-22.42-7.89-35.15-3.8,2.15-7.49,4.52-11.07,7.14-49.91,36.47-67.98,47.47-87.16,55.82.8,5.85,3.22,9.71,10.36,9.71l2.12-.02,104.48-.74s3.24-13.12-10.84-36.76Z"/>
  <path class="cls-6" d="m931.58,106.79c-.41,0-.82-.04-1.21-.06h-1.95c-9.52,0-17.27,7.4-17.89,16.76-.02.39-.05.78-.05,1.18v106.02h.18c1.02,0,6.85-.09,15.2-1.7,8.77-1.68,20.28-5.04,31.9-11.72,5.73-3.29,13.45-5.64,21.73-6.31,7.55-.62,15.56.14,22.97,2.84,15.76,5.72,28.8,20.14,28.8,48.51,0,47.39-39.88,55.47-65.65,49.31-4.88-1.16-9.26-2.84-12.76-4.85-5.89-3.39-11.26-5.93-16.02-7.82-14.47-5.77-23.18-5.61-23.18-5.61v106.02c0,9.9,8.03,17.93,17.93,17.94h.02l110.74.57h.2s.3,15.36-13.42,39.2c-6.07,10.54-8.91,27.86-4.04,43.04,5.3,16.49,19.73,30.45,49.07,30.45,50.27,0,56.77-40.94,48.61-65.41-.99-2.97-2.2-5.7-3.57-8.08-5.18-9-8.36-16.78-10.31-22.99-3.23-10.25-3.11-16.21-3.11-16.21h106.02c1.04,0,2.05-.11,3.03-.27,8.46-1.45,14.91-8.79,14.91-17.67v-106.02h-.04c-.87,0-16.01.1-39.15,13.42-6.54,3.77-15.68,6.29-25.3,6.5-22.75.51-48.18-11.92-48.18-51.54s25.44-52.05,48.2-51.54c9.62.21,18.76,2.74,25.29,6.5,23.14,13.32,38.28,13.43,39.15,13.42h.04v-106.02c0-9.91-8.04-17.94-17.95-17.94h-6.25c-.4.02-.8.06-1.21.06h-106.03v-.06c0-1.04.19-16.13,13.43-39.13,4.7-8.18,7.47-20.45,6.2-32.62-19.05-4.76-42-7.32-69.59-6.07,0,0-9.32-5.71-27.27-12.05-9.03,16.62-6.34,38.31.78,50.68,13.72,23.85,13.43,39.2,13.43,39.2h-.21v.06h-103.46Z"/>
  <path class="cls-6" d="m1230.82,1022.07v-106.02h-.04c-.87,0-16.01.1-39.15,13.42-6.54,3.77-15.68,6.29-25.31,6.51-22.75.5-48.18-11.93-48.18-51.54s25.45-52.05,48.2-51.54c9.62.22,18.76,2.74,25.29,6.5,23.14,13.32,38.29,13.43,39.15,13.43h.04v-106.02c0-9.91-8.03-17.94-17.95-17.94h-113.29s-.3-15.35,13.42-39.19c12.66-22,11.33-73.49-45.04-73.49s-57.7,51.49-45.04,73.49c12.44,21.62,13.36,36.25,13.42,38.8,0,.26,0,.39,0,.39h-96.47c-9.91,0-17.94,8.03-17.94,17.94v106.02s12.11.27,34.29-11.95c.86-.47,1.73-.96,2.62-1.48.73-.42,1.49-.81,2.27-1.2,0,0,.01,0,.02,0,23.07-11.3,71.21-8.26,71.21,46.25s-47.88,57.53-71.02,46.34l-.09-.05c-.82-.4-1.62-.81-2.38-1.25-.59-.34-1.18-.67-1.76-1-22.72-12.7-35.15-12.42-35.15-12.42v106.15c.07,8.87,6.59,16.2,15.1,17.56.93.15,1.87.25,2.84.25h103.74s.3,15.35-13.42,39.19c-6.07,10.55-8.91,27.87-4.04,43.04,5.3,16.48,19.73,30.44,49.08,30.44,50.26,0,56.76-40.93,48.6-65.4-.99-2.97-2.2-5.7-3.57-8.08-5.18-9-8.36-16.78-10.31-22.99-3.23-10.25-3.11-16.2-3.11-16.2h106.02c1.04,0,2.05-.11,3.03-.28,8.46-1.45,14.91-8.8,14.91-17.66Z"/>
  <path class="cls-6" d="m1233.29,1538.65c-1.61-.15-2.46-.14-2.46-.14v77.95c13.98,17.96,27.7,33.82,40.43,45.84l33.12-.25,49.86-.39s.85-14.54-12.87-38.38c-2.18-3.79-3.94-8.43-5.08-13.55-.21-.93-.39-1.87-.56-2.83-.34-1.92-.57-3.88-.72-5.88-.21-2.84-.21-5.75,0-8.66-5.41-13.09-11.03-26.99-16.36-40.68-10.15,6.58-22.65,7.74-33.6,5.66-5.59-1.05-10.77-2.95-15.04-5.41-18.23-10.49-31.49-12.78-36.72-13.29Z"/>
  <path class="cls-6" d="m1420.44,1350.57c.11-2.78,1.2-13.44,8.56-29.07.77-1.62,1.53-3.25,2.43-4.97.38-.72.76-1.44,1.16-2.18.46-.84.84-1.63,1.34-2.5,12.72-22.1,11.4-73.77-45.03-73.96h-.3c-56.74,0-58.07,51.82-45.33,73.96,12.05,20.95,13.36,35.38,13.49,38.71h-109.34c-9.91,0-16.6,8.78-16.6,18.68v106.02s15.35.3,39.19-13.41c8.31-4.78,20.1-7.68,31.57-6.39,5.92.67,11.75,2.45,16.96,5.65,12.01-11.52,25.13-27.76,30.75-47.43,0,0,90.09-24.57,124.42-63.12h-53.27Z"/>
</svg>