<svg version="1.2" xmlns="http://www.w3.org/2000/svg" viewBox="0 0 2152 1544" width="2152" height="1544">
	<title>2150_SkVNQSBCUlkgMTMxNi0xMA-ai</title>
	<style>
		.s0 { fill: #1d6eb5 } 
		.s1 { fill: #120e15 } 
		.s2 { fill: #ee4a4f } 
		.s3 { fill: #fdc025 } 
		.s4 { fill: #f7972c } 
		.s5 { fill: #fbc48f } 
		.s6 { fill: #989c9c } 
		.s7 { fill: #c03093 } 
		.s8 { fill: #00b6ee } 
		.s9 { fill: #000118 } 
		.s10 { fill: #fefefe } 
		.s11 { fill: #0c2a3a } 
	</style>
	<g id="_Artboards_">
	</g>
	<g id="Capa 1">
		<path id="&lt;Path&gt;" class="s0" d="m90.2 655.1l26.3 62.7 305.4-177.5z"/>
		<path id="&lt;Path&gt;" class="s1" d="m90.2 655.1l-2.5 1 26.3 62.7c0.3 0.7 0.9 1.3 1.6 1.5 0.8 0.3 1.5 0.2 2.2-0.2l305.5-177.5c1.2-0.7 1.6-2.2 1.1-3.4-0.6-1.3-2-1.9-3.3-1.4l-331.8 114.7c-0.7 0.3-1.3 0.8-1.6 1.5-0.3 0.6-0.3 1.4 0 2.1l2.5-1 0.8 2.5 305.8-105.8-279 162.2-25.2-60-2.4 1.1 0.8 2.5z"/>
		<path id="&lt;Path&gt;" class="s0" d="m17.9 701.9l26.4-70.2 30-14.6-10.3-24.3 20.7-59.2 337.2 6.7z"/>
		<path id="&lt;Path&gt;" class="s1" d="m17.9 701.9l2.4 0.9 26.1-69.2 29.1-14.2c1.2-0.6 1.8-2.1 1.3-3.4l-9.9-23.3 19.6-56.4 322.2 6.4-391.8 156.7 1 2.5 2.4 0.9-2.4-0.9 0.9 2.4 404.1-161.5c1.2-0.5 1.9-1.8 1.7-3-0.3-1.3-1.3-2.2-2.6-2.2l-337.3-6.7c-1.1 0-2.2 0.7-2.6 1.8l-20.6 59.2c-0.2 0.6-0.2 1.3 0.1 1.9l9.3 22-27.8 13.5c-0.6 0.3-1.1 0.8-1.3 1.5l-26.4 70.1c-0.4 1-0.2 2.1 0.6 2.9 0.7 0.7 1.9 0.9 2.8 0.5z"/>
		<path id="&lt;Path&gt;" class="s1" d="m44.9 634.3l377.7-91.4c1.3-0.4 2.2-1.7 2-3.1-0.3-1.4-1.6-2.4-3-2.2l-358 52.6c-1.4 0.2-2.4 1.5-2.2 3 0.2 1.4 1.6 2.4 3 2.2l300.5-44.1-321.3 77.8c-1.4 0.3-2.3 1.8-1.9 3.2 0.3 1.5 1.8 2.3 3.2 2z"/>
		<path id="&lt;Path&gt;" class="s2" d="m945.5 1500.4c-8.6 6.7-21 5.2-27.7-3.4-6.7-8.6-5.2-21 3.4-27.7 8.6-6.7 21-5.2 27.7 3.4 6.7 8.6 5.2 21-3.4 27.7z"/>
		<path id="&lt;Path&gt;" class="s1" d="m945.5 1500.4l-1.6-2.1c-3.2 2.5-6.9 3.6-10.6 3.6-5 0-10.1-2.2-13.4-6.5-2.5-3.2-3.7-6.9-3.7-10.5 0.1-5.1 2.3-10.1 6.6-13.5 3.1-2.5 6.8-3.6 10.5-3.6 5.1 0 10.1 2.2 13.5 6.5 2.4 3.2 3.6 6.8 3.6 10.5 0 5.1-2.2 10.1-6.5 13.5l1.6 2.1 1.6 2.1c5.7-4.4 8.7-11 8.6-17.7 0-4.8-1.5-9.7-4.7-13.8-4.4-5.6-11-8.6-17.7-8.6-4.8 0-9.7 1.6-13.8 4.8-5.6 4.4-8.6 11-8.6 17.7 0 4.8 1.6 9.7 4.8 13.8 4.4 5.6 11 8.6 17.6 8.6 4.9 0 9.7-1.6 13.8-4.8z"/>
		<path id="&lt;Path&gt;" class="s3" d="m968 1482.8l-24.3-31.1 122.2-95.5 24.3 31.1z"/>
		<path id="&lt;Path&gt;" class="s1" d="m968 1482.8l2.1-1.6-22.7-29 118-92.3 21 27-120 93.8 1.6 2.1 2.1-1.6-2.1 1.6 1.6 2.1 122.2-95.5c0.6-0.4 0.9-1.1 1-1.8 0.1-0.7-0.1-1.4-0.5-1.9l-24.3-31.2c-1-1.1-2.6-1.3-3.8-0.4l-122.2 95.5c-0.5 0.4-0.9 1.1-1 1.8-0.1 0.7 0.1 1.4 0.6 1.9l24.3 31.2c0.9 1.1 2.6 1.3 3.7 0.4z"/>
		<path id="&lt;Path&gt;" class="s4" d="m960.9 1473.7l-10.1-12.9 122.2-95.5 10.1 12.9z"/>
		<path id="&lt;Path&gt;" class="s1" d="m960.9 1473.7l2.1-1.6-8.5-10.8 118-92.3 6.8 8.7-120.1 93.9 1.7 2.1 2.1-1.6-2.1 1.6 1.6 2.1 122.2-95.5c0.6-0.5 0.9-1.1 1-1.8 0.1-0.7-0.1-1.4-0.5-2l-10.1-12.8c-0.9-1.2-2.6-1.4-3.8-0.5l-122.1 95.5c-1.2 0.9-1.4 2.6-0.5 3.8l10.1 12.8c0.9 1.2 2.5 1.4 3.7 0.5z"/>
		<path id="&lt;Path&gt;" class="s5" d="m1065.9 1353.2l52.9-16.3-28.7 47.3z"/>
		<path id="&lt;Path&gt;" class="s1" d="m1068.9 1353.2l0.8 2.6 46.2-14.3-23 38.1-21.9-28-2.1 1.6 0.8 2.6-0.8-2.6-2.1 1.7 24.2 31c0.6 0.7 1.4 1.1 2.3 1 0.9 0 1.7-0.5 2.1-1.3l28.7-47.3c0.5-1 0.5-2.2-0.2-3.1-0.7-0.8-1.8-1.2-2.9-0.9l-52.9 16.4c-0.8 0.3-1.5 0.9-1.7 1.7-0.3 0.9-0.1 1.8 0.4 2.5z"/>
		<path id="&lt;Path&gt;" class="s1" d="m1107.9 1355.5l8.9-14.6-16.3 5z"/>
		<path id="&lt;Path&gt;" class="s6" d="m945.5 1500.4l-24.3-31.1 22.5-17.6 24.3 31.1z"/>
		<path id="&lt;Path&gt;" class="s1" d="m945.5 1500.4l2.1-1.6-22.7-29.1 18.3-14.3 21.1 27-20.4 15.9 1.6 2.1 2.1-1.6-2.1 1.6 1.6 2.1 22.5-17.6c0.6-0.4 1-1 1-1.8 0.1-0.7-0.1-1.4-0.5-1.9l-24.3-31.1c-0.5-0.6-1.1-1-1.8-1-0.7-0.1-1.4 0.1-2 0.5l-22.5 17.6c-1.1 0.9-1.3 2.6-0.4 3.7l24.3 31.2c0.4 0.5 1.1 0.9 1.8 1 0.7 0 1.4-0.1 1.9-0.6z"/>
		<path id="&lt;Path&gt;" class="s2" d="m952.6 1494.8l-24.3-31.1 8.2-6.4 24.4 31.1z"/>
		<path id="&lt;Path&gt;" class="s1" d="m952.6 1494.8l2.1-1.6-22.7-29 4.1-3.2 21 26.9-6.1 4.8 1.6 2.1 2.1-1.6-2.1 1.6 1.7 2.1 8.2-6.4c0.6-0.4 0.9-1.1 1-1.8 0.1-0.7-0.1-1.4-0.5-1.9l-24.4-31.2c-0.4-0.5-1-0.9-1.8-1-0.7-0.1-1.4 0.1-1.9 0.6l-8.2 6.4c-1.2 0.9-1.4 2.6-0.5 3.7l24.3 31.2c0.5 0.5 1.1 0.9 1.8 1 0.7 0.1 1.4-0.1 2-0.6z"/>
		<path id="&lt;Path&gt;" class="s3" d="m682.1 1370.6c-3.9 3.5-8.8 5-13.7 4.8-11.1 2.6-11 10-10.5 13l32.2 35.4 35.4-32.2c3-0.5 10.4-0.6 13 10.5-0.2 4.9 1.3 9.8 4.8 13.7 7.1 7.8 19.5 8.1 27.7 0.6 8.2-7.5 9.1-19.8 2-27.7-3.5-3.8-8.2-5.8-13.1-6-10.8-3.7-10-11-9.2-14l35.4-32.1-32.1-35.4c-3-0.9-10.3-1.6-14 9.2-0.2 4.9-2.2 9.6-6.1 13.1-7.8 7.1-20.2 6.2-27.6-2-7.5-8.3-7.2-20.7 0.6-27.8 3.8-3.5 8.7-5 13.7-4.7 11-2.7 11-10 10.4-13.1l-32.1-35.4-35.4 32.2c-3 0.5-10.4 0.6-13.1-10.5 0.3-4.9-1.2-9.8-4.7-13.6-7.1-7.8-19.5-8.1-27.7-0.7-8.3 7.5-9.2 19.9-2 27.7 3.4 3.8 8.2 5.8 13.1 6 10.7 3.7 10 11.1 9.1 14l-35.3 32.2 32.1 35.4c3 0.8 10.3 1.6 14-9.2 0.2-4.9 2.2-9.7 6-13.1 7.8-7.1 20.2-6.2 27.7 2 7.5 8.2 7.2 20.6-0.6 27.7z"/>
		<path id="&lt;Path&gt;" class="s1" d="m681.1 1368.6l-1.8-2c-3.1 2.8-6.8 4.1-10.7 4.1h-1c-0.8 0-1.5 0.2-2 0.7-0.5 0.5-0.8 1.2-0.8 2h2.6l-0.6-2.6c-4.9 1.1-8.3 3.3-10.2 5.9-2 2.6-2.5 5.5-2.5 7.6 0 1 0.1 1.9 0.2 2.6l0.7 1.3 32.1 35.4c0.5 0.5 1.2 0.8 1.9 0.9 0.7 0 1.4-0.3 1.9-0.7l35.4-32.2-1.8-2 0.4 2.7c0.5-0.1 1-0.2 1.6-0.2 1.4 0 3 0.3 4.4 1.4 1.5 1.1 3 3.2 4 7.2 0.3 1.2 1.4 2.1 2.6 2.1v-2.7l-2.6-0.1-0.1 1.3c0 5.1 1.8 10.2 5.5 14.2 4.2 4.7 10 7 15.9 7 5.5 0 11.1-2.1 15.6-6.1 5.1-4.6 7.7-10.9 7.7-17.1 0-5.2-1.8-10.3-5.5-14.4-4-4.3-9.4-6.6-15-6.9l-0.1 2.7 0.9-2.5c-3.6-1.3-5.5-2.8-6.5-4.2-1-1.4-1.3-2.9-1.3-4.2 0-0.9 0.1-1.8 0.3-2.4l-2.6-0.7 1.8 2 35.4-32.2c0.5-0.4 0.8-1.1 0.9-1.8 0-0.7-0.2-1.4-0.7-1.9l-32.2-35.4-1.2-0.8c-1-0.3-2.3-0.5-3.8-0.5-2.2 0-4.9 0.5-7.3 2.3-2.5 1.8-4.7 4.7-6.2 9.1l-0.1 0.8c-0.2 4.2-1.9 8.2-5.1 11.2-3.1 2.7-6.9 4.1-10.8 4.1-4.7 0-9.6-2-13.1-5.9-3.2-3.5-4.8-7.9-4.8-12.1 0-4.5 1.8-8.8 5.2-11.9 3-2.7 6.8-4.1 10.7-4.1h1c0.7 0.1 1.4-0.2 2-0.7 0.5-0.5 0.8-1.2 0.8-1.9h-2.6l0.6 2.6c4.9-1.2 8.2-3.4 10.2-6 2-2.6 2.5-5.5 2.5-7.6 0-1-0.1-1.9-0.2-2.5l-0.7-1.4-32.1-35.3c-1-1.1-2.7-1.2-3.8-0.2l-35.4 32.1 1.8 2-0.5-2.6c-0.4 0-1 0.1-1.6 0.1-1.4 0-2.9-0.3-4.4-1.4-1.4-1.1-3-3.1-4-7.2l-2.6 0.6 2.7 0.2v-1.3c0-5.1-1.8-10.3-5.4-14.3-4.2-4.6-10.1-6.9-15.9-6.9-5.5 0-11.2 2-15.6 6.1-5.1 4.6-7.7 10.8-7.7 17.1 0 5.1 1.8 10.3 5.5 14.3 3.9 4.4 9.4 6.7 14.9 6.9l0.2-2.7-0.9 2.6c3.6 1.2 5.5 2.7 6.5 4.2 1 1.4 1.3 2.8 1.3 4.1 0 1-0.2 1.8-0.3 2.4l2.5 0.7-1.7-1.9-35.4 32.1c-1.1 1-1.2 2.7-0.2 3.8l32.1 35.4 1.3 0.7c1 0.3 2.3 0.6 3.8 0.6 2.2 0 4.8-0.6 7.3-2.4 2.5-1.8 4.6-4.7 6.1-9.1l-2.5-0.8h-2.7c0 1.4 1.2 2.6 2.7 2.7 1.4 0 2.6-1.2 2.7-2.6 0.1-4.3 1.9-8.3 5.1-11.3 3-2.7 6.8-4.1 10.8-4.1 4.7 0 9.5 2 13.1 6 3.2 3.5 4.7 7.8 4.7 12 0 4.5-1.7 8.8-5.1 11.9l1.8 2 1.7 2c4.7-4.2 7-10 7-15.9 0-5.5-2.1-11.1-6.1-15.6-4.6-5.1-10.9-7.7-17.1-7.7-5.2 0-10.3 1.8-14.4 5.5-4.3 4-6.7 9.4-6.9 15l2.7 0.1h2.7c0-1.3-1-2.4-2.3-2.6-1.2-0.3-2.5 0.5-2.9 1.7-1.3 3.6-2.8 5.5-4.2 6.5-1.5 1-2.9 1.3-4.2 1.3-0.9 0-1.8-0.1-2.4-0.3l-0.7 2.6 2-1.8-30.4-33.4 33.4-30.4 0.8-1.3c0.3-0.9 0.5-2.2 0.5-3.8 0-2.1-0.5-4.8-2.3-7.3-1.8-2.4-4.7-4.6-9.1-6.1l-0.7-0.1c-4.3-0.2-8.3-1.9-11.3-5.2-2.7-3-4.1-6.8-4.1-10.7 0-4.8 2-9.6 5.9-13.2 3.5-3.2 7.9-4.7 12.1-4.7 4.5 0 8.8 1.7 11.9 5.2 2.8 3 4.1 6.8 4.1 10.7v1 0.7c1.2 5 3.4 8.3 6 10.3 2.6 1.9 5.5 2.4 7.6 2.4 1 0 1.9-0.1 2.6-0.2l1.3-0.6 33.4-30.4 30.4 33.4 1.9-1.8-2.6 0.5c0.1 0.4 0.1 1 0.1 1.6 0 1.3-0.3 2.9-1.4 4.4-1.1 1.4-3.1 3-7.2 4-1.2 0.3-2 1.3-2 2.6h2.7l0.1-2.7h-1.3c-5.1 0-10.2 1.8-14.3 5.5-4.6 4.1-6.9 10-6.9 15.8 0 5.6 2 11.2 6.1 15.7 4.6 5 10.9 7.6 17.1 7.6 5.1 0 10.3-1.8 14.3-5.5 4.4-3.9 6.7-9.4 6.9-14.9l-2.6-0.1 2.5 0.8c1.2-3.6 2.8-5.4 4.2-6.5 1.4-1 2.8-1.3 4.2-1.3 0.9 0 1.8 0.2 2.4 0.3l0.7-2.5-2 1.8 30.3 33.4-33.4 30.3-0.7 1.3c-0.3 1-0.6 2.3-0.6 3.8 0 2.2 0.6 4.8 2.4 7.3 1.7 2.5 4.7 4.6 9.1 6.1l0.7 0.2c4.3 0.1 8.3 1.9 11.3 5.1 2.7 3.1 4 6.9 4.1 10.8-0.1 4.7-2 9.5-6 13.1-3.5 3.2-7.8 4.7-12 4.7-4.5 0-8.8-1.7-12-5.1-2.7-3-4-6.8-4-10.7v-1c0-0.7-0.2-1.5-0.7-2-0.5-0.5-1.2-0.8-2-0.8v2.6l2.6-0.6c-1.2-4.9-3.3-8.3-5.9-10.2-2.7-2-5.5-2.5-7.7-2.5-0.9 0-1.8 0.1-2.5 0.2l-1.3 0.7-33.4 30.3-30.4-33.4-2 1.8 2.7-0.5c-0.1-0.4-0.2-0.9-0.2-1.6 0-1.3 0.3-2.9 1.4-4.4 1.1-1.4 3.2-3 7.2-3.9 1.2-0.3 2.1-1.4 2.1-2.6h-2.7l-0.1 2.6 1.3 0.1c5.1 0 10.2-1.8 14.2-5.5z"/>
		<path id="&lt;Path&gt;" class="s7" d="m1418.8 1349.9c3.4 3.8 5 8.7 4.7 13.6 2.6 11.1 10 11 13 10.5l35.4-32.2-32.1-35.3c-0.6-3.1-0.6-10.4 10.5-13.1 4.9 0.3 9.8-1.3 13.6-4.7 7.8-7.1 8.1-19.6 0.6-27.8-7.4-8.2-19.8-9.1-27.6-2-3.9 3.5-5.9 8.2-6.1 13.1-3.7 10.8-11 10-14 9.2l-32.1-35.4-35.4 32.2c-0.8 2.9-1.6 10.3 9.2 14 4.9 0.2 9.6 2.2 13.1 6 7.1 7.8 6.2 20.2-2 27.7-8.2 7.4-20.6 7.1-27.7-0.7-3.5-3.8-5.1-8.7-4.8-13.6-2.6-11.1-10-11-13-10.5l-35.4 32.2 32.1 35.3c0.5 3.1 0.6 10.5-10.5 13.1-4.9-0.3-9.8 1.3-13.6 4.7-7.8 7.2-8.1 19.6-0.6 27.8 7.4 8.2 19.8 9.1 27.6 2 3.9-3.5 5.9-8.2 6.1-13.1 3.6-10.8 11-10 14-9.2l32.1 35.4 35.4-32.2c0.8-2.9 1.6-10.3-9.2-14-4.9-0.2-9.6-2.2-13.1-6-7.1-7.8-6.2-20.2 2-27.7 8.2-7.4 20.6-7.1 27.8 0.7z"/>
		<path id="&lt;Path&gt;" class="s1" d="m1418.8 1348.9l-2 1.8c2.7 3 4 6.8 4 10.7v1c0 0.9 0.4 1.8 1.2 2.4 0.8 0.5 1.8 0.5 2.7 0.1l-1.2-2.4-2.6 0.6c1.2 5 3.4 8.3 6 10.3 2.6 1.9 5.4 2.4 7.6 2.4 1 0 1.8-0.1 2.5-0.2l1.3-0.6 35.4-32.2c0.5-0.5 0.9-1.1 0.9-1.8 0-0.7-0.2-1.4-0.7-1.9l-32.1-35.4-2 1.8 2.6-0.5c-0.1-0.4-0.1-1-0.1-1.6 0-1.4 0.3-3 1.4-4.4 1.1-1.5 3.1-3 7.2-4 1.2-0.3 2-1.4 2-2.6h-2.6l-0.2 2.7h1.3c5.1 0 10.2-1.8 14.3-5.5 4.6-4.2 6.9-10 6.9-15.9 0-5.5-2-11.1-6.1-15.6-4.6-5-10.9-7.6-17.1-7.6-5.1 0-10.3 1.8-14.3 5.4-4.4 4-6.7 9.5-6.9 15l2.6 0.1v-2.6c-1.1 0-2.1 0.7-2.5 1.8-1.2 3.6-2.8 5.4-4.2 6.5-1.4 1-2.8 1.3-4.2 1.3-0.9 0-1.7-0.2-2.3-0.4l-0.8 2.6 2-1.8-32.2-35.4c-0.9-1.1-2.6-1.1-3.7-0.2l-35.4 32.2-0.8 1.2c-0.2 1-0.5 2.3-0.5 3.9 0 2.1 0.5 4.8 2.3 7.3 1.8 2.4 4.8 4.6 9.1 6.1l0.9-2.5h-2.7c0 1.4 1.1 2.6 2.6 2.6 4.2 0.2 8.3 1.9 11.2 5.2 2.8 3 4.1 6.8 4.1 10.7 0 4.8-2 9.6-5.9 13.2-3.5 3.2-7.8 4.7-12 4.7-4.5 0-8.9-1.7-12-5.2-2.7-3-4.1-6.8-4.1-10.7l0.1-0.9-0.1-0.8c-1.2-5-3.4-8.3-6-10.3-2.6-1.9-5.4-2.4-7.6-2.4-1 0-1.8 0.1-2.5 0.2l-1.3 0.6-35.4 32.2c-1.1 1-1.2 2.7-0.2 3.7l32.1 35.4 2-1.8-2.6 0.5c0.1 0.4 0.1 1 0.1 1.6 0 1.4-0.3 2.9-1.4 4.4-1.1 1.5-3.1 3-7.2 4-1.2 0.3-2 1.4-2 2.6h2.6l0.2-2.7h-1.3c-5.1 0-10.2 1.8-14.3 5.5-4.6 4.2-6.9 10-6.9 15.9 0 5.5 2 11.1 6.1 15.6 4.6 5 10.9 7.6 17.1 7.6 5.1 0 10.3-1.8 14.3-5.4 4.4-4 6.7-9.5 6.9-15l-2.6-0.1v2.6c1.1 0 2.1-0.7 2.5-1.8 1.2-3.6 2.8-5.4 4.2-6.5 1.4-1 2.8-1.3 4.1-1.3 1 0 1.8 0.2 2.4 0.4l0.8-2.6-2 1.8 32.1 35.4c0.5 0.5 1.2 0.8 1.9 0.8 0.7 0.1 1.4-0.2 1.9-0.6l35.4-32.2 0.8-1.3c0.2-0.9 0.5-2.2 0.5-3.8 0-2.1-0.6-4.8-2.4-7.3-1.7-2.4-4.7-4.6-9-6.1l-0.9 2.5h2.7c0-1.4-1.1-2.6-2.6-2.6-4.2-0.2-8.3-1.9-11.2-5.2-2.8-3-4.1-6.8-4.1-10.7 0-4.8 2-9.6 5.9-13.2 3.5-3.2 7.8-4.7 12-4.7 4.5 0 8.8 1.7 12 5.2l2-1.8 1.9-1.8c-4.2-4.6-10-6.9-15.9-6.9-5.5 0-11.1 2-15.6 6.1-5 4.6-7.7 10.8-7.7 17.1 0 5.1 1.8 10.3 5.5 14.3 4 4.4 9.5 6.7 15 6.9l0.1-2.7h-2.7c0 1.2 0.8 2.2 1.9 2.6 3.5 1.2 5.4 2.7 6.4 4.1 1.1 1.5 1.3 2.9 1.4 4.2 0 0.9-0.2 1.8-0.4 2.4l2.6 0.7-1.8-1.9-33.4 30.3-30.4-33.4-1.2-0.8c-1-0.2-2.3-0.5-3.9-0.5-2.1 0-4.8 0.5-7.2 2.3-2.5 1.8-4.7 4.8-6.2 9.1l2.6 0.9v-2.7c-1.5 0-2.7 1.1-2.7 2.6-0.2 4.2-1.9 8.3-5.2 11.2-3 2.8-6.8 4.1-10.7 4.1-4.7 0-9.6-2-13.2-5.9-3.1-3.5-4.7-7.8-4.7-12 0-4.5 1.8-8.9 5.2-12 3-2.7 6.8-4.1 10.7-4.1l1 0.1c0.7 0 1.4-0.3 2-0.8 0.5-0.5 0.8-1.2 0.8-1.9h-2.7l0.7 2.6c4.9-1.2 8.2-3.4 10.2-6 2-2.6 2.5-5.4 2.5-7.6 0-1-0.1-1.8-0.3-2.5l-0.6-1.3-30.4-33.5 33.4-30.3-1.7-2 0.4 2.6c0.4 0 1-0.1 1.6-0.1 1.4 0 3 0.3 4.4 1.4 1.5 1.1 3 3.1 4 7.2l2.6-0.6-2.7-0.2v1.3c0 5.1 1.8 10.3 5.5 14.3 4.2 4.6 10 6.9 15.9 6.9 5.5 0 11.1-2 15.6-6.1 5-4.6 7.7-10.8 7.7-17.1 0-5.1-1.8-10.3-5.5-14.3-4-4.4-9.5-6.7-15-6.9l-0.1 2.7h2.7c0-1.2-0.8-2.2-1.9-2.6-3.5-1.2-5.4-2.7-6.4-4.2-1.1-1.4-1.4-2.8-1.4-4.1 0-0.9 0.2-1.8 0.4-2.4l-2.6-0.7 1.8 1.9 33.4-30.3 30.4 33.4 1.2 0.8c1 0.2 2.3 0.5 3.8 0.5 2.2 0 4.9-0.5 7.3-2.3 2.5-1.8 4.7-4.8 6.1-9.1l-2.5-0.9v2.7c1.5 0 2.6-1.1 2.7-2.6 0.2-4.2 1.9-8.2 5.2-11.2 3-2.8 6.8-4.1 10.7-4.1 4.7 0 9.6 2 13.1 5.9 3.2 3.5 4.8 7.8 4.8 12 0 4.5-1.8 8.9-5.2 12-3 2.7-6.8 4.1-10.7 4.1l-1-0.1c-0.7 0-1.5 0.3-2 0.8-0.5 0.5-0.8 1.2-0.8 1.9h2.7l-0.7-2.6c-4.9 1.2-8.2 3.4-10.2 6-2 2.6-2.5 5.4-2.5 7.6 0 1 0.1 1.8 0.3 2.5l0.6 1.3 30.4 33.5-33.5 30.3 1.8 2-0.4-2.6c-0.5 0-1 0.1-1.6 0.1-1.4 0-3-0.3-4.4-1.4-1.5-1.1-3-3.1-4-7.2-0.2-0.8-0.7-1.5-1.5-1.8-0.7-0.3-1.6-0.3-2.3 0l1.2 2.4 2.6 0.1 0.1-1.2c0-5.1-1.8-10.3-5.5-14.3z"/>
		<path id="&lt;Path&gt;" class="s3" d="m1094 97.8c0-34.5-28-62.5-62.5-62.5-34.5 0-62.4 28-62.4 62.5 0 12.5 3.6 24.2 10 34q2.7 4.3 6.2 8.1c10.4 12.7 10.4 28.6 10.4 28.6v5.3c0 4.3 3.5 7.9 7.9 7.9h55.8c4.4 0 7.9-3.6 7.9-7.9v-5.3c0 0 0-16.5 10.5-28.6 10-11.2 16.2-26 16.2-42.1z"/>
		<path id="&lt;Path&gt;" class="s6" d="m1053.1 240.3c0 12.5-10.1 22.6-22.6 22.6-12.5 0-22.6-10.1-22.6-22.6 0-12.4 10.1-22.6 22.6-22.6 12.5 0 22.6 10.2 22.6 22.6z"/>
		<path id="&lt;Path&gt;" class="s1" d="m1054.1 241.3h-2.7c0 11-8.9 19.9-19.9 19.9-11 0-19.9-8.9-19.9-19.9 0-11 8.9-19.9 19.9-19.9 11 0 19.9 8.9 19.9 19.9h2.7 2.7c0-13.9-11.3-25.2-25.3-25.2-13.9 0-25.2 11.3-25.2 25.2 0 14 11.3 25.3 25.2 25.3 14 0 25.3-11.3 25.3-25.3z"/>
		<path id="&lt;Path&gt; copy 10" class="s6" d="m1070.3 238.3h-71.6v-51.8h71.6z"/>
		<path id="&lt;Path&gt; copy 6" class="s2" d="m1070.3 219.9h-71.6v-18.9h71.6z"/>
		<path id="&lt;Path&gt; copy 15" class="s1" d="m1068.3 236.3v-2.6h-68.9v-46.5h66.3v49.1h2.6v-2.6 2.6h2.7v-51.8c0-0.7-0.3-1.3-0.8-1.8-0.5-0.5-1.2-0.8-1.9-0.8h-71.6c-0.7 0-1.4 0.3-1.9 0.8-0.5 0.5-0.8 1.1-0.8 1.8v51.8c0 0.7 0.3 1.4 0.8 1.9 0.5 0.5 1.2 0.8 1.9 0.8h71.6c0.7 0 1.4-0.3 1.9-0.8 0.5-0.5 0.8-1.2 0.8-1.9z"/>
		<path id="&lt;Path&gt; copy 16" class="s1" d="m1096 97.8h2.6c0-36-29.1-65.2-65.1-65.2-36 0-65.1 29.2-65.1 65.2 0 13 3.8 25.2 10.4 35.5q2.9 4.4 6.5 8.4l2-1.8-2.1 1.7c4.9 5.9 7.4 12.7 8.6 18 0.6 2.7 0.9 4.9 1.1 6.5q0.1 1.2 0.1 1.9v0.4 0.1 5.3c0 5.8 4.8 10.5 10.6 10.5h55.8c5.9 0 10.6-4.7 10.6-10.5v-5.3-0.6c0.1-3 1.3-16.5 9.8-26.2l-2-1.8 1.9 1.8c10.5-11.6 16.9-27.1 16.9-43.9h-2.6-2.7c0 15.4-5.9 29.6-15.5 40.3l-0.1 0.1c-11.1 13-11 30.1-11 30.3v5.3c0 2.9-2.4 5.2-5.3 5.2h-55.8c-2.9 0-5.2-2.3-5.2-5.2v-5.3c-0.1-0.2 0-16.6-11.1-30.3l-0.1-0.1q-3.2-3.6-5.9-7.7c-6.1-9.5-9.6-20.7-9.6-32.6 0-16.6 6.7-31.5 17.5-42.3 10.9-10.8 25.8-17.5 42.3-17.5 16.5 0 31.5 6.7 42.3 17.5 10.8 10.8 17.5 25.7 17.5 42.3z"/>
		<path id="&lt;Path&gt; copy 17" class="s1" d="m1068.3 218.9v-2.7h-68.9v-13.5h66.3v16.2h2.6v-2.7 2.7h2.7v-18.9c0-0.7-0.3-1.4-0.8-1.9-0.5-0.5-1.2-0.8-1.9-0.8h-71.6c-0.7 0-1.4 0.3-1.9 0.8-0.5 0.5-0.8 1.2-0.8 1.9v18.9c0 0.7 0.3 1.4 0.8 1.9 0.5 0.5 1.2 0.8 1.9 0.8h71.6c0.7 0 1.4-0.3 1.9-0.8 0.5-0.5 0.8-1.2 0.8-1.9z"/>
		<path id="&lt;Path&gt;" class="s3" d="m1906.1 827.4c7.6 16.4 1.1 80.4 1.1 80.4 0 0-52.9-36.5-60.5-53-7.6-16.4-0.4-35.8 16-43.4 16.4-7.6 35.9-0.4 43.4 16z"/>
		<path id="&lt;Path&gt;" class="s1" d="m1906.1 827.4l-2.4 1.1c1.2 2.5 2.1 6.9 2.7 12.3 0.5 5.4 0.7 11.7 0.7 18.3 0 11.4-0.6 23.5-1.3 32.8-0.3 4.6-0.6 8.5-0.9 11.3-0.2 2.7-0.4 4.3-0.4 4.3l2.7 0.3 1.5-2.2c0 0-3.3-2.3-8.4-5.9-7.6-5.5-19.1-14.2-29.4-22.9-5.2-4.4-10-8.8-13.9-12.8-3.9-4-6.7-7.7-7.9-10.3-1.9-4.1-2.8-8.3-2.8-12.5 0-11.4 6.5-22.3 17.5-27.4 4.1-1.9 8.4-2.7 12.6-2.7 11.4 0 22.3 6.4 27.3 17.4l2.4-1.1 2.5-1.1c-6-12.9-18.8-20.6-32.2-20.6-5 0-10 1.1-14.8 3.3-12.9 6-20.6 18.8-20.6 32.2 0 4.9 1.1 10 3.3 14.8 2.2 4.7 7.1 10.1 13.2 16 18.3 17.4 48.1 37.9 48.1 38 0.8 0.5 1.8 0.6 2.7 0.2 0.8-0.4 1.4-1.2 1.5-2.1 0-0.1 2.6-25.8 2.7-49 0-6.7-0.3-13.2-0.8-18.8-0.6-5.7-1.5-10.5-3.1-14z"/>
		<path id="&lt;Path&gt;" class="s2" d="m1887.2 826.3c3.7 8 0.5 39.3 0.5 39.3 0 0-25.9-17.9-29.6-25.9-3.7-8-0.2-17.6 7.9-21.3 8-3.7 17.5-0.1 21.2 7.9z"/>
		<path id="&lt;Path&gt;" class="s1" d="m1887.2 826.3l-2.4 1.1c0.4 0.9 0.9 3 1.1 5.5 0.3 2.6 0.4 5.7 0.4 8.8 0 5.6-0.3 11.5-0.6 16-0.3 4.5-0.7 7.6-0.7 7.6l2.7 0.3 1.5-2.2c0 0-1.6-1.1-4-2.9-3.7-2.7-9.4-6.9-14.4-11.1-2.5-2.1-4.8-4.3-6.6-6.2-1.9-1.9-3.2-3.6-3.6-4.6-0.9-1.8-1.3-3.7-1.3-5.6 0-5.1 2.9-9.9 7.8-12.1 1.8-0.9 3.7-1.3 5.5-1.3 5.1 0 9.9 2.9 12.2 7.8l2.4-1.1 2.4-1.1c-3.1-6.9-9.9-10.9-17-10.9-2.6 0-5.2 0.6-7.8 1.7-6.8 3.2-10.8 9.9-10.8 17 0 2.6 0.5 5.3 1.7 7.8 1.3 2.7 3.7 5.3 6.8 8.2 9.1 8.7 23.6 18.7 23.7 18.8 0.7 0.5 1.7 0.6 2.6 0.2 0.9-0.4 1.4-1.2 1.5-2.1 0-0.1 1.3-12.7 1.3-24.2 0-3.3-0.1-6.5-0.4-9.3-0.3-2.8-0.7-5.2-1.6-7.2z"/>
		<path id="&lt;Path&gt;" class="s0" d="m1871.8 732.1l-5.8 86.3-69.5-51.6c-20.5-44.6-49.8-108.1-21.8-146.4 45.9 0.6 76.6 67.2 97.1 111.7z"/>
		<path id="&lt;Path&gt;" class="s1" d="m1871.8 732.1l-2.7-0.2-5.5 81.5-65.5-48.8-1.6 2.2 2.4-1.1c-14.5-31.4-33.1-72.2-33.1-106.1 0-14.1 3.2-26.9 11-37.6l-2.1-1.6-0.1 2.7c10.9 0.1 20.8 4.1 30.2 10.9 28 20.3 49.2 65.8 64.6 99.2l2.4-1.1-2.7-0.2 2.7 0.2 2.4-1.1c-10.3-22.3-23.1-50.2-39.3-72.8-8.1-11.3-17-21.2-27-28.5-10-7.3-21.1-11.8-33.2-12-0.9 0-1.7 0.4-2.2 1.1-8.6 11.9-12 25.9-12 40.8 0.1 35.8 19.1 76.8 33.6 108.3l0.8 1 69.5 51.7c0.8 0.6 1.8 0.7 2.7 0.3 0.9-0.4 1.5-1.3 1.5-2.3l5.8-86.3-0.2-1.3z"/>
		<path id="&lt;Path&gt;" class="s3" d="m1861.2 808.1l9.6-78.2 29.9 13.9 17.5 38z"/>
		<path id="&lt;Path&gt;" class="s1" d="m1861.2 808.1l2.6 0.3 9.2-74.5 25.7 11.9 16 34.7-54.6 25.2 1.1 2.4 2.6 0.3-2.6-0.3 1.1 2.4 57-26.3c0.7-0.3 1.2-0.8 1.4-1.5 0.3-0.6 0.2-1.3-0.1-2l-17.5-38c-0.2-0.6-0.7-1-1.3-1.3l-29.9-13.9c-0.8-0.3-1.6-0.3-2.4 0.1-0.7 0.4-1.2 1.2-1.3 2l-9.6 78.2c-0.2 1 0.2 1.9 1 2.5 0.8 0.5 1.8 0.6 2.7 0.2z"/>
		<path id="&lt;Path&gt;" class="s3" d="m1859.9 808.7l-64.4-44.1-10.1 32.4 17.5 38z"/>
		<path id="&lt;Path&gt;" class="s1" d="m1859.9 808.7l1.5-2.2-64.4-44.1c-0.7-0.4-1.6-0.6-2.3-0.3-0.9 0.3-1.5 0.9-1.7 1.7l-10.2 32.4c-0.2 0.6-0.1 1.3 0.2 1.9l17.5 38c0.6 1.3 2.2 1.9 3.5 1.3l57-26.3c0.9-0.4 1.5-1.2 1.6-2.2 0.1-0.9-0.4-1.9-1.2-2.4l-1.5 2.2-1.1-2.4-54.6 25.1-16-34.6 8.8-27.9 61.4 42 1.5-2.2-1.1-2.4z"/>
		<path id="&lt;Path&gt;" class="s3" d="m1823.8 648.7c-14.1-16.5-30.4-28-49.3-28.2-11.3 15.4-13.3 34.9-10.3 55.6z"/>
		<path id="&lt;Path&gt;" class="s1" d="m1823.8 648.7l2-1.8c-14.3-16.7-31.2-28.8-51.3-29.1-0.9 0-1.7 0.4-2.2 1.1-8.6 11.8-12 25.9-12 40.8 0 5.5 0.5 11.1 1.3 16.8 0.1 0.9 0.6 1.6 1.4 2 0.7 0.4 1.6 0.4 2.4 0.1l59.5-27.5c0.8-0.4 1.3-1 1.5-1.9 0.2-0.8 0-1.6-0.6-2.3l-2 1.8-1.1-2.5-59.6 27.5 1.1 2.4 2.7-0.3c-0.8-5.5-1.2-10.9-1.2-16.1 0-14.1 3.1-26.9 10.9-37.7l-2.1-1.5-0.1 2.6c17.8 0.3 33.5 11.1 47.4 27.3l2-1.7-1.1-2.5z"/>
		<path id="&lt;Path&gt;" class="s2" d="m1843 701c6.6 14.2 0.4 31-13.9 37.6-14.2 6.5-31 0.3-37.6-13.9-6.5-14.2-0.3-31.1 13.9-37.6 14.2-6.6 31.1-0.4 37.6 13.9z"/>
		<path id="&lt;Path&gt;" class="s1" d="m1843 701l-2.4 1.1c1.6 3.5 2.4 7.1 2.4 10.7 0 9.7-5.6 19-15 23.4-3.5 1.6-7.1 2.3-10.7 2.3-9.7 0-19-5.5-23.4-14.9-1.6-3.5-2.3-7.2-2.3-10.8 0-9.7 5.5-19 14.9-23.3 3.5-1.6 7.1-2.4 10.7-2.4 9.8 0 19.1 5.6 23.4 15l2.4-1.1 2.4-1.2c-5.2-11.3-16.4-18-28.2-18-4.3 0-8.7 0.9-12.9 2.9-11.4 5.2-18.1 16.4-18.1 28.1 0 4.4 1 8.8 2.9 13 5.2 11.4 16.5 18.1 28.2 18.1 4.3 0 8.8-1 13-2.9 11.3-5.2 18-16.5 18-28.2 0-4.3-0.9-8.8-2.9-13z"/>
		<path id="&lt;Path&gt;" class="s8" d="m1836.8 703.8c4.9 10.8 0.2 23.6-10.5 28.5-10.8 5-23.6 0.3-28.5-10.5-5-10.8-0.3-23.5 10.5-28.5 10.8-5 23.5-0.2 28.5 10.5z"/>
		<path id="&lt;Path&gt;" class="s1" d="m1836.8 703.8l-2.4 1.1c1.1 2.6 1.7 5.3 1.7 7.9 0 7.1-4.1 13.9-11 17.1-2.5 1.2-5.2 1.7-7.8 1.7-7.1 0-13.9-4-17.1-10.9-1.2-2.6-1.8-5.2-1.8-7.9 0.1-7.1 4.1-13.9 11-17.1 2.5-1.1 5.2-1.7 7.9-1.7 7.1 0 13.9 4.1 17.1 10.9l2.4-1.1 2.4-1.1c-4.1-8.8-12.8-14-21.9-14-3.4 0-6.9 0.7-10.1 2.2-8.9 4.1-14.1 12.8-14.1 21.9 0 3.4 0.7 6.9 2.2 10.1 4.1 8.9 12.9 14.1 22 14.1 3.4 0 6.8-0.7 10.1-2.3 8.8-4 14-12.8 14-21.9 0-3.4-0.7-6.8-2.2-10.1z"/>
		<path id="&lt;Path&gt;" class="s2" d="m1903 801.4l-75.3 34.7-4.8-10.3 75.3-34.7z"/>
		<path id="&lt;Path&gt;" class="s1" d="m1903 801.4l-1.2-2.4-72.8 33.6-2.5-5.5 70.4-32.5 3.6 7.9 2.5-1.1-1.2-2.4 1.2 2.4 2.4-1.1-4.8-10.4c-0.6-1.3-2.2-1.9-3.5-1.3l-75.3 34.7c-1.3 0.7-1.9 2.2-1.3 3.6l4.8 10.3c0.6 1.4 2.2 1.9 3.5 1.3l75.3-34.7c0.6-0.3 1.1-0.8 1.4-1.5 0.2-0.7 0.2-1.4-0.1-2z"/>
		<path id="&lt;Path&gt;" class="s1" d="m1800.7 830.2l52.7-24.4c1.4-0.6 2-2.2 1.3-3.5-0.6-1.3-2.2-1.9-3.5-1.3l-52.8 24.3c-1.3 0.6-1.9 2.2-1.3 3.6 0.6 1.3 2.2 1.9 3.6 1.3z"/>
		<path id="&lt;Path&gt;" class="s1" d="m1863.2 801.3l52.8-24.3c1.3-0.6 1.9-2.2 1.3-3.5-0.6-1.4-2.2-2-3.5-1.3l-52.8 24.3c-1.4 0.6-1.9 2.2-1.3 3.5 0.6 1.4 2.2 1.9 3.5 1.3z"/>
		<path id="&lt;Path&gt;" class="s1" d="m1764.3 673l55.8-25.7c1.3-0.6 1.9-2.2 1.3-3.6-0.6-1.3-2.2-1.9-3.6-1.3l-55.7 25.7c-1.3 0.7-1.9 2.2-1.3 3.6 0.6 1.3 2.2 1.9 3.5 1.3z"/>
		<path id="&lt;Path&gt;" class="s3" d="m2148.3 1127.2l-61.9-12.7 8.8-23.8-44.6 22.2 24.1 42.9 9.3-23.9 47 23.8-3.6-17.4z"/>
		<path id="&lt;Path&gt;" class="s9" d="m2148.3 1127.2l0.6-2.8-58.6-12.1 7.6-20.6c0.4-1.1 0.1-2.3-0.8-3.1-0.9-0.8-2.2-1-3.2-0.5l-44.6 22.2c-0.7 0.4-1.3 1-1.5 1.7-0.2 0.8-0.1 1.6 0.3 2.3l24.1 42.9c0.5 1 1.6 1.5 2.7 1.5 1.1-0.1 2.1-0.8 2.5-1.9l8.1-20.9 44.2 22.3c1 0.5 2.2 0.4 3.1-0.2 0.9-0.7 1.3-1.8 1.1-2.9l-3.2-15.3 19-10c1-0.6 1.6-1.8 1.5-3-0.2-1.2-1.1-2.2-2.3-2.4l-0.6 2.8-1.3-2.5-20.9 11c-1.2 0.6-1.8 1.9-1.5 3.2l2.4 11.5-41.7-21.1c-0.7-0.4-1.6-0.4-2.3-0.1-0.8 0.3-1.4 0.9-1.7 1.6l-7.1 18.3-19.6-35 35.3-17.6-6.2 17c-0.3 0.8-0.2 1.7 0.2 2.4 0.4 0.7 1.1 1.2 1.9 1.4l61.9 12.7 0.6-2.8-1.3-2.5z"/>
		<path id="&lt;Path&gt;" class="s10" d="m763.4 1080.1c-1.4 4.7-3.7 9.5-7.5 13.7-7.4 8.2-18.3 12.3-32.5 12.3q-3.3 0-6.9-0.3c-3.9-0.3-6.9-3.8-6.6-7.8 0.4-4 3.8-7 7.8-6.6 12.9 1.1 22.1-1.3 27.4-7.2 7-7.6 6.1-19.5 5.7-22.9-6.5-11.7-10-22.9-11.4-33.3-37.6-1.2-65.7-12.9-83.5-34.6-23.9-29.2-22.5-67.6-18.6-91-29.5-16.1-45.5-37.5-53.7-59.2-15.1 12.1-29.7 16.2-42.5 16.2-25.3 0-43.3-16-43.5-16.2-3-2.7-3.2-7.3-0.5-10.2 2.7-2.9 7.2-3.1 10.2-0.5 1.4 1.3 34.3 30.1 71.8-4.5-7.2-32 0-62.2 3.6-74.3-12.2-8.4-22.5-17.8-31.1-27.9-44.7 24.4-75.1 71.9-75.1 126.3 0 17.9 3.3 35.4 9.7 52 1.2 2.7 21.6 44.8 97.2 35 2.6-0.3 5.2 0.8 6.7 2.9 1.6 2.1 1.9 4.8 0.8 7.2-11.8 26-12.4 47.2-8 63.9l0.3 1.5c8.4 29.8 32.4 44.7 34 45.7 3.4 2 4.5 6.5 2.4 9.9-1.3 2.2-3.7 3.5-6.2 3.5-1.2 0-2.5-0.4-3.7-1.1-0.4-0.2-22.8-14.1-35.3-41.4-3 6.9-4.7 17 1.3 29.8 1.6 3.6 0.1 7.9-3.5 9.5q-1.5 0.7-3.1 0.7c-2.7 0-5.3-1.5-6.5-4.2-11.2-24.1-2.4-43.8 5.8-53.3-3.8-16.3-3.6-36 4.8-59.1-52.4 3.5-79.2-17-91.4-31.5-3.5 12.5-5.3 25.4-5.3 38.5 0 79.4 64.5 143.9 143.8 143.9 7.3 0 14.7-0.6 21.8-1.7l1.1-0.1c1.7 0 3.3 0.6 4.6 1.7 25.6 21.1 58.1 32.7 91.3 32.7 32.1 0 61.7-10.5 85.7-28.3-29.2-1.3-48.6-14.1-61.4-29.7z"/>
		<path id="&lt;Path&gt;" class="s10" d="m937.3 711.3c26-9 55.6-6.2 88.1 8.4 0-35.2-0.1-69.6-0.1-101.1-74.7-64.3-149.1-10.4-149.9-9.8-3.2 2.4-7.7 1.7-10.1-1.5-2.4-3.2-1.7-7.7 1.5-10.1 0.8-0.6 78.4-56.7 158.5 2.9-0.1-22.8-0.1-43.8-0.2-62-37-39.7-95.7-46.6-135.2-40.2-33.8 5.5-59 20.5-67.4 40.4-1.2 2.7-3.8 4.3-6.6 4.3q-1.5 0-2.9-0.6c-3.6-1.5-5.3-5.7-3.8-9.4 10.4-24.4 39.7-42.7 78.4-48.9 14.5-2.4 31.5-3 49.2-1.2 0.8-16.4-2.9-29.2-10.8-38-11.8-13-29.3-13.2-30-13.2h-0.1c-3.9 0-7.1-3.2-7.1-7.1-0.1-4 3.1-7.2 7.1-7.3 0.9 0.1 24.5 0 40.8 18 10.8 11.9 15.6 28.6 14.4 49.6 25.9 4.7 52.2 15.1 74 33.6-0.1-30.9-0.2-50.2-0.2-51.1 0-33.2-40-63-99.5-74.2-73.6-13.9-165.6 4.2-194.1 76.8-1.1 2.9-3.8 4.6-6.7 4.6q-1.3 0-2.6-0.5c-3.7-1.4-5.6-5.6-4.1-9.3 31.4-80.3 131-100.8 210.1-85.8 40.8 7.7 72.8 23.4 91.8 43.6-2.2-10.8-5.3-22.7-9.7-34.5-19-50.7-52.7-76.4-100-76.4-22.5 0-48.4 6-76.9 17.6-8.5 5.3-16.9 7.5-24.4 9.4-16.2 4.1-26.9 6.8-30.7 41.2-0.4 3.7-3.5 6.5-7.1 6.5l-0.8-0.1c-4-0.4-6.8-4-6.4-7.9 4.4-39.8 19.8-47.7 35.9-52.2-10.2-3.1-20.6-4.7-31.3-4.7-33.2 0-66.2 15.2-90.4 41.7-24.8 27.1-37.3 62.2-35.5 99.2q4.2-0.2 8.5 0c28.9 1.1 55.5 15.2 79 41.7 2.5 2.8 4.7 5.5 6.9 8.3 13.7-19.8 51.5-63 120.6-61.9 4 0.1 7.1 3.3 7.1 7.3-0.1 4-3.3 7.1-7.2 7.1h-0.1c-68.9-1.2-103.2 46.6-111.6 60.2 17.5 28.7 16.5 52.8 15.8 71.4-0.8 21-1.3 33.1 25.3 40.9 6.4-25.9 34.5-107.8 133.8-100.7 3.9 0.3 6.9 3.7 6.6 7.7-0.3 4-3.8 7-7.7 6.7-89.4-6.6-113.5 66.7-118.8 89.5 5 0.9 10.5 1.7 16.7 2.5 23 2.9 37.5 10.4 44.2 23l0.3 0.7c12.2-2.7 42.7-11.7 67.5-37.2 2.7-2.8 7.3-2.9 10.1-0.1 2.9 2.8 3 7.3 0.2 10.2-27.3 28-59.9 37.9-74.2 41.1 1.1 18.5-9.8 40.2-20.5 61.3-8.9 17.5-18.8 37.2-16.1 47.1l0.1 0.2q0.3 0.9 0.6 1.6c2 3.6 6.9 6 14.9 7 29.9 4.1 51.7 27.9 70.8 51.3 9.1-1.4 16.3-5.5 21.8-12.5 18.7-23.8 11-71.4 11-71.9-0.7-3.9 2-7.6 5.9-8.3 3.9-0.6 7.6 2 8.3 6 0.3 2.2 8.8 54.4-13.9 83.2-6.1 7.7-13.9 13-23.1 15.9 16.8 20.9 32.9 39.6 51 39.6h0.1c14.2 0 30.2-11.2 48.7-34.1 0.2-41.7 0.2-86.8 0.3-131.2-31.4-15.4-59.4-19-83.4-10.7-32.8 11.3-46.8 41.2-46.9 41.4-1.2 2.7-3.9 4.3-6.6 4.3q-1.5 0-3-0.7c-3.6-1.7-5.2-5.9-3.5-9.6 0.6-1.4 16.7-35.7 55.3-49z"/>
		<path id="&lt;Compound Path&gt;" fill-rule="evenodd" class="s10" d="m976.4 915.3c15.5 0 31.5-8.7 48.7-26.6-0.3 58.1-0.7 107.5-1.5 135.4-3 45.6-32.6 68.8-88 68.8-20.7 0-39.3-3.5-48.4-5.5-14.5-6.5-19.8-21.5-17.4-33 1-4.9 5.1-16.3 20.5-16.3 4 0 7.2-3.3 7.2-7.3 0-3.9-3.2-7.2-7.2-7.2-17.8 0-31 10.7-34.6 27.9-2.5 12.3 0.7 27.1 10.6 38.2-13.3 3.8-25.7 5.8-36.9 5.8-32.5 0-51.2-16.5-61.9-34.1l-0.7-1.3q-0.9-1.4-1.7-2.8c-9.7-17.9-11.6-35.5-11.7-37-0.1-0.7-0.3-1.4-0.6-2-1.1-26.7 12.7-44.9 13.6-46 2.5-3.1 1.9-7.7-1.2-10.1-3.1-2.5-7.6-2-10.1 1.1-0.2 0.3-15.8 20.4-16.6 50.2-32.5-1.4-56.6-11.1-71.5-29.3-2.7-3.3-5-6.8-7-10.4-23.4-65.6 10.3-89.7 11.9-90.7 3.2-2.2 4.2-6.7 2-10-2.2-3.3-6.7-4.2-10-2-0.8 0.5-9.8 6.6-17 20-73.7-38.1-57.1-111.8-50.7-132.4 4.2 0.5 10.5 1 18.1 1 3.8 0 7.9-0.1 12.3-0.4 2 18.5 11 71.3 51.4 102.3 19.8 15.1 44 22.7 72.3 22.7q5 0 10.1-0.3c-5.5 22.2 3.5 59.8 28.2 89.2 14.6 17.4 41.8 39.9 84.6 39.9 20.9 0 45.5-5.4 74.1-19.3 3.6-1.7 5-6 3.3-9.6-1.7-3.6-6-5.1-9.6-3.4-78.6 38.2-122.3 5.8-141.4-16.9-25.1-29.9-31.1-68.6-23.3-81.6 5.7-0.9 11.6-1.9 17.6-3.2 3.9-0.9 6.3-4.8 5.4-8.7-0.8-3.8-4.7-6.3-8.6-5.4-43.3 9.8-78.2 4.8-103.9-14.8-35.7-27.4-44-76.2-45.8-92.6 27.9-4.3 62.2-16.9 89.2-49.6 2.5-3.1 2-7.7-1-10.2-3.1-2.5-7.6-2.1-10.2 1-44.7 54.3-114.5 46.6-125 45.1-62.6-41-72.5-110.1-60.7-161.4 7-30.7 21.5-56.7 40.6-75.5l0.2-0.2c0.3-0.3 34-32 76.4-30.4 24.8 1 47.9 13.4 68.7 36.8 29.8 33.7 28.7 60.7 27.9 82.4-1.3 32.6 1.3 53 68.5 61.4 17.8 2.2 29 7.5 33.3 15.5 7.7 14.4-5.3 40.1-16.8 62.7-9.9 19.7-19.4 38.5-17.8 53.3-44.8 36-111 1.3-111.6 0.9-3.5-1.8-7.9-0.5-9.8 3-1.9 3.5-0.6 7.8 3 9.7 2 1.1 32.9 17.4 68.6 17.4 18.4 0 38.2-4.4 55.8-17.4 4.8 5.1 12.2 8.5 22.2 9.8 27.8 3.8 48.4 29.5 68.2 54.3 5.1 6.3 10.1 12.6 15.1 18.4-33.1 62.6-93.1 38-95.7 36.9-3.7-1.6-7.9 0.1-9.4 3.8-1.6 3.6 0.1 7.8 3.7 9.4 0.4 0.2 15.9 6.6 36.4 6.6 23.7 0 54.1-8.7 75.4-45.7 12.1 11.7 24.9 19.7 40.1 19.7zm-206.3-186c0.7 3.4 3.7 5.8 7.1 5.8l1.4-0.1c3.9-0.8 6.4-4.6 5.6-8.5-18.9-94.5-112.9-121.5-148.5-128.4 14-12.6 34.1-19.1 60.1-19.1 4 0 7.2-3.2 7.2-7.2 0-4-3.2-7.2-7.2-7.2-35.7 0-62.3 11-79 32.6l-0.8 1.2-0.8 1c-29.4 41.2-13.6 103.2-12.8 105.8 0.8 3.3 3.7 5.4 6.9 5.4q0.9 0 1.9-0.3c3.8-1 6.1-4.9 5.1-8.8-0.2-0.5-14.1-54.8 8.6-90.7 22.1 3.2 126.1 23.3 145.2 118.5z"/>
		<path id="&lt;Path&gt;" class="s10" d="m1494 956.6c8.3 23.1 8.5 42.8 4.7 59.1 8.2 9.5 17.1 29.2 5.9 53.3-1.3 2.7-3.9 4.2-6.6 4.2-1 0-2-0.2-3-0.7-3.6-1.6-5.2-5.9-3.5-9.5 5.9-12.8 4.2-22.9 1.2-29.8-12.5 27.3-34.9 41.2-35.3 41.4-1.2 0.7-2.4 1.1-3.7 1.1-2.4 0-4.8-1.3-6.2-3.5-2-3.4-0.9-7.9 2.5-9.9 1.5-1 25.6-16.1 33.9-46.2l0.2-0.6c4.5-16.8 4-38.2-7.9-64.3-1.1-2.4-0.8-5.1 0.8-7.2 1.6-2.1 4.1-3.2 6.7-2.9 75.8 9.8 96.3-33 97.2-35 6.5-16.6 9.8-34.1 9.8-52 0-54.4-30.4-101.9-75.1-126.3-8.7 10.1-19 19.5-31.2 27.9 3.7 12.1 10.8 42.3 3.6 74.3 37.7 34.8 70.4 5.8 71.8 4.5 3-2.6 7.5-2.4 10.2 0.5 2.7 2.9 2.5 7.5-0.4 10.2-0.3 0.2-18.3 16.2-43.6 16.2-12.7 0-27.3-4.1-42.5-16.2-8.2 21.7-24.2 43.2-53.7 59.2 3.9 23.4 5.3 61.8-18.6 91-17.8 21.7-45.9 33.4-83.4 34.6-1.5 10.4-5 21.6-11.4 33.3-0.5 3.4-1.3 15.3 5.6 22.9 5.4 5.9 14.6 8.3 27.4 7.2 4-0.4 7.5 2.6 7.8 6.6 0.3 4-2.6 7.5-6.6 7.8q-3.5 0.3-6.8 0.3c-14.3 0-25.2-4.1-32.5-12.3-3.8-4.2-6.2-9-7.6-13.7-12.8 15.6-32.2 28.4-61.4 29.7 24 17.8 53.6 28.3 85.7 28.3 33.2 0 65.7-11.6 91.3-32.7 1.6-1.3 3.7-1.9 5.7-1.6 7.2 1.1 14.5 1.7 21.8 1.7 79.3 0 143.9-64.5 143.9-143.9 0-13.1-1.8-26-5.3-38.5-12.3 14.5-39.1 35-91.4 31.5z"/>
		<path id="&lt;Compound Path&gt;" fill-rule="evenodd" class="s10" d="m1235.7 1095.5c-11.2 0-23.5-2-36.8-5.8 9.8-11.1 13.1-25.9 10.5-38.2-3.5-17.2-16.8-27.9-34.6-27.9-4 0-7.2 3.3-7.2 7.2 0 4 3.2 7.3 7.2 7.3 15.5 0 19.5 11.4 20.5 16.3 2.4 11.5-2.9 26.5-17.4 33-9.1 2-27.7 5.5-48.4 5.5-55.3 0-85-23.2-88-68.5-0.7-28-1.2-77.4-1.4-135.7 17.1 17.9 33.1 26.6 48.6 26.6h0.1c15.2 0 28.1-8 40.1-19.7 21.4 37 51.8 45.7 75.5 45.7 20.5 0 36-6.4 36.3-6.6 3.7-1.6 5.4-5.8 3.8-9.4-1.6-3.7-5.8-5.4-9.5-3.8-2.6 1.1-62.5 26-95.7-36.9 5-5.8 10-12.1 15.1-18.4 19.9-24.8 40.4-50.5 68.2-54.3 10-1.3 17.4-4.7 22.2-9.8 17.7 13 37.4 17.4 55.8 17.4 35.7 0 66.7-16.3 68.7-17.4 3.5-1.9 4.8-6.2 2.9-9.7-1.9-3.6-6.3-4.9-9.7-3-0.7 0.4-66.8 35.2-111.7-0.9 1.6-14.8-7.8-33.6-17.8-53.3-11.5-22.6-24.4-48.3-16.8-62.7 4.3-8 15.5-13.3 33.4-15.5 9.2-1.2 17.2-2.5 24.2-4.2h0.1l0.3-0.1c43.1-10.1 45-29.1 43.8-57.1-0.8-21.7-1.9-48.7 27.9-82.4 20.8-23.4 43.9-35.8 68.7-36.8 42-1.7 75.8 29.9 76.4 30.4l0.2 0.2c19.2 18.8 33.6 44.8 40.6 75.5 11.8 51.3 1.9 120.4-60.7 161.4-10.5 1.5-80.3 9.2-125-45.1-2.5-3.1-7.1-3.5-10.1-1-3.1 2.5-3.6 7.1-1 10.2 26.9 32.7 61.2 45.3 89.1 49.6-1.8 16.3-10 65.1-45.7 92.5-25.7 19.7-60.7 24.7-104 14.9-3.9-0.9-7.7 1.6-8.6 5.4-0.9 3.9 1.5 7.8 5.4 8.7 6.1 1.3 11.9 2.3 17.7 3.2 7.8 13 1.7 51.7-23.4 81.6-19.1 22.7-62.8 55.1-141.4 16.9-3.5-1.7-7.9-0.2-9.6 3.4-1.7 3.6-0.2 7.9 3.4 9.6 28.6 13.9 53.2 19.3 74 19.3 42.8 0 70-22.5 84.7-39.9 24.6-29.4 33.7-67 28.2-89.2q5.1 0.3 10 0.3c28.4 0 52.6-7.6 72.3-22.7 40.4-31 49.4-83.8 51.4-102.3q6.6 0.4 12.3 0.4c7.7 0 13.9-0.5 18.1-1 6.4 20.6 23 94.3-50.6 132.4-7.3-13.4-16.2-19.5-17.1-20-3.2-2.2-7.7-1.3-9.9 2-2.2 3.3-1.3 7.7 2 10 1.4 1 35.2 25 11.9 90.7-2.1 3.6-4.4 7.1-7.1 10.4-14.9 18.2-39 27.9-71.5 29.3-0.7-29.8-16.3-49.9-16.6-50.2-2.4-3.1-7-3.6-10.1-1.1-3.1 2.4-3.6 7-1.2 10.1 0.3 0.3 14.7 19 13.5 46.5-0.2 0.5-0.4 0.9-0.5 1.5-0.1 1.4-2 19.1-11.6 36.9-0.6 1-1.2 1.9-1.8 2.9l-0.6 1.3c-10.8 17.6-29.5 34.1-62 34.1zm204.5-484.7c22.7 35.8 8.8 90.2 8.7 90.7-1 3.9 1.2 7.8 5.1 8.8q0.9 0.3 1.8 0.3c3.2 0 6.1-2.1 7-5.4 0.7-2.6 16.6-64.7-13-105.9l-0.6-0.9-0.9-1.2c-16.6-21.6-43.2-32.6-78.9-32.6-4 0-7.2 3.2-7.2 7.2 0 4 3.2 7.2 7.2 7.2 26 0 46.1 6.5 60.1 19.1-35.6 6.9-129.7 33.9-148.6 128.4-0.8 3.9 1.8 7.7 5.6 8.5l1.5 0.1c3.3 0 6.3-2.4 7-5.8 19.1-95 123.2-115.2 145.2-118.5z"/>
		<path id="&lt;Path&gt;" class="s10" d="m1084.7 895.9h0.1c18.1 0 34.2-18.7 51.1-39.6-9.3-2.9-17.1-8.2-23.2-15.9-22.6-28.8-14.2-81-13.8-83.2 0.6-4 4.3-6.6 8.2-6 4 0.7 6.6 4.4 6 8.3-0.1 0.5-7.8 48.2 11 72 5.4 6.9 12.6 11 21.7 12.4 19.1-23.4 41-47.2 70.9-51.3 7.9-1 12.9-3.4 14.8-7q0.4-0.8 0.6-1.6v-0.1c2.9-9.9-7.1-29.6-16-47.2-10.7-21.1-21.6-42.8-20.5-61.3-14.3-3.2-46.9-13.1-74.2-41.1-2.7-2.9-2.7-7.4 0.2-10.2 2.8-2.8 7.4-2.7 10.2 0.1 24.9 25.6 55.3 34.5 67.4 37.2l0.3-0.7c6.7-12.6 21.2-20.1 44.3-23 6.2-0.8 11.7-1.6 16.6-2.5-5.3-22.8-29.4-96-118.8-89.5-3.9 0.3-7.4-2.7-7.7-6.7-0.3-4 2.7-7.4 6.7-7.7 99.1-7.2 127.3 74.8 133.7 100.7 26.6-7.8 26.2-19.9 25.3-40.8-0.7-18.7-1.6-42.8 15.8-71.5-8.3-13.5-41.9-60.2-109.1-60.2q-1.2 0-2.4 0h-0.2c-3.9 0-7.1-3.1-7.1-7.1-0.1-4 3.1-7.2 7-7.3 69.1-1.1 107 42.1 120.7 61.9 2.1-2.7 4.3-5.5 6.8-8.3 23.5-26.5 50.1-40.6 79-41.7 2.9-0.1 5.7-0.1 8.5 0 1.8-37-10.6-72.1-35.4-99.2-24.3-26.5-57.2-41.7-90.4-41.7-10.7 0-21.2 1.6-31.3 4.7 16.1 4.5 31.5 12.4 35.8 52.2 0.4 3.9-2.4 7.5-6.4 7.9l-0.8 0.1c-3.6 0-6.7-2.8-7.1-6.5-3.8-34.4-14.5-37.1-30.7-41.2-7.4-1.9-15.9-4.1-24.3-9.3-28.6-11.7-54.5-17.7-77-17.7-47.3 0-80.9 25.7-100 76.4-4.4 11.8-7.5 23.7-9.7 34.5 19.1-20.2 51-35.9 91.8-43.6 79.2-15 178.7 5.5 210.1 85.8 1.5 3.7-0.3 7.9-4 9.3q-1.3 0.5-2.7 0.5c-2.8 0-5.6-1.7-6.7-4.6-28.4-72.6-120.5-90.7-194-76.8-59.6 11.2-99.6 41-99.6 74.2 0 1-0.1 20.2-0.1 51.1 21.7-18.6 48-29 73.9-33.6-1.1-21 3.6-37.7 14.4-49.6 16.3-18 39.8-18 40.8-18 4 0.1 7.2 3.3 7.2 7.3-0.1 3.9-3.3 7.1-7.2 7.1h-0.1c-0.4 0-18.3 0.2-30.1 13.4-7.8 8.7-11.4 21.4-10.7 37.8 17.7-1.8 34.7-1.2 49.3 1.2 38.6 6.2 67.9 24.5 78.3 48.9 1.6 3.7-0.1 7.9-3.8 9.4-0.9 0.4-1.9 0.6-2.8 0.6-2.8 0-5.5-1.6-6.7-4.3-8.4-19.9-33.6-34.9-67.3-40.4-39.6-6.4-98.2 0.5-135.3 40.2 0 18.2-0.1 39.2-0.1 62 80-59.6 157.6-3.5 158.4-2.9 3.2 2.4 3.9 6.9 1.5 10.1-2.4 3.2-6.9 3.9-10.1 1.5-3-2.3-75.5-54.3-149.8 9.8-0.1 31.5-0.1 65.9-0.1 101 32.4-14.5 62-17.3 88-8.3 38.6 13.3 54.7 47.6 55.4 49 1.6 3.7 0 7.9-3.6 9.6-1 0.4-2 0.7-3 0.7-2.7 0-5.3-1.6-6.5-4.2-0.2-0.3-14.4-30.4-47.2-41.6-23.9-8.2-51.9-4.5-83.1 10.8 0 44.4 0.1 89.5 0.2 131.2 18.5 22.9 34.5 34.1 48.7 34.1z"/>
		<path id="&lt;Path&gt;" class="s11" d="m609.3 710.6q0.9 0 1.8-0.3c3.9-1 6.2-4.9 5.2-8.8-0.2-0.5-14.1-54.8 8.6-90.7 22.1 3.2 126.1 23.3 145.2 118.5 0.7 3.4 3.7 5.8 7.1 5.8l1.4-0.1c3.9-0.8 6.4-4.6 5.6-8.5-18.9-94.5-112.9-121.5-148.5-128.4 13.9-12.6 34-19.1 60.1-19.1 3.9 0 7.2-3.2 7.2-7.2 0-4-3.3-7.2-7.2-7.2-35.8 0-62.3 11-79 32.6l-0.8 1.2-0.8 1c-29.5 41.2-13.6 103.2-12.9 105.8 0.9 3.3 3.8 5.4 7 5.4z"/>
		<path id="&lt;Compound Path&gt;" fill-rule="evenodd" class="s11" d="m1593.3 906.9c6.5 17.6 9.8 36 9.8 54.7 0 87.3-71 158.3-158.3 158.3-6.9 0-13.9-0.5-20.8-1.4-27.8 22-62.5 34-98 34-35.9 0-69.1-12-95.7-32.3-48.8 33.1-119.3 53.9-197.7 53.9-78.5 0-149-20.8-197.8-53.9-26.6 20.3-59.7 32.3-95.7 32.3-35.5 0-70.2-12-98-34-6.8 0.9-13.8 1.4-20.8 1.4-87.2 0-158.2-71-158.2-158.3 0-18.7 3.3-37.1 9.8-54.7-6.5-17.6-9.8-36-9.8-54.8 0-59.1 32.5-110.7 80.6-137.8-29.5-42.4-32.9-93.9-23.4-135 14.2-62.3 56.6-107.4 108.8-116.9-1.9-40.8 11.9-79.4 39.2-109.3 27-29.5 63.8-46.4 101.1-46.4 18.2 0 35.7 4 52.3 11.8 2-0.8 4-1.6 6-2.4q0.8-0.5 1.6-0.7c69.9-28.4 125.1-23.8 162.1 13.4 23.7 23.6 35.9 56.1 42.2 83.7 6.3-27.6 18.5-60.1 42.1-83.8 37-37.1 92.3-41.7 162.2-13.3q0.8 0.3 1.6 0.7c2 0.8 3.9 1.6 6 2.4 16.5-7.8 34.1-11.8 52.3-11.8 37.2 0 74 16.9 101 46.4 27.3 29.9 41.2 68.5 39.2 109.3 52.3 9.5 94.6 54.6 108.9 116.9 9.4 41.1 6 92.6-23.5 135 48.1 27.1 80.7 78.7 80.7 137.8 0 18.8-3.3 37.2-9.8 54.8zm-102.1-399.9l-0.2-0.2c-0.6-0.5-34.4-32.1-76.4-30.4-24.8 1-47.9 13.4-68.7 36.8-29.8 33.7-28.7 60.7-27.9 82.4 1.2 28-0.7 47-43.8 57.1l-0.3 0.1h-0.1c-7 1.7-15 3-24.2 4.2-17.9 2.2-29.1 7.5-33.4 15.5-7.6 14.4 5.3 40.1 16.8 62.7 10 19.7 19.4 38.5 17.8 53.3 44.9 36.1 111 1.3 111.7 0.9 3.4-1.9 7.8-0.6 9.7 3 1.9 3.5 0.6 7.8-2.9 9.7-2 1.1-33 17.4-68.7 17.4-18.4 0-38.1-4.4-55.8-17.4-4.8 5.1-12.2 8.5-22.2 9.8-27.8 3.8-48.3 29.5-68.2 54.3-5.1 6.3-10.1 12.6-15.1 18.4 33.2 62.9 93.1 38 95.7 36.9 3.7-1.6 7.9 0.1 9.5 3.8 1.6 3.6-0.1 7.8-3.8 9.4-0.3 0.2-15.8 6.6-36.3 6.6-23.7 0-54.1-8.7-75.5-45.7-12 11.7-24.9 19.7-40.1 19.7h-0.1c-15.5 0-31.5-8.7-48.6-26.6 0.2 58.3 0.7 107.7 1.4 135.7 3 45.3 32.7 68.5 88 68.5 20.7 0 39.3-3.5 48.4-5.5 14.5-6.5 19.8-21.5 17.4-33-1-4.9-5-16.3-20.5-16.3-4 0-7.2-3.3-7.2-7.3 0-3.9 3.2-7.2 7.2-7.2 17.8 0 31.1 10.7 34.6 27.9 2.6 12.3-0.7 27.1-10.5 38.2 13.3 3.8 25.6 5.8 36.8 5.8 32.5 0 51.2-16.5 62-34.1l0.6-1.3c0.6-1 1.2-1.9 1.8-2.9 9.6-17.8 11.5-35.5 11.6-36.9 0.1-0.6 0.3-1 0.5-1.5 1.2-27.5-13.2-46.2-13.5-46.5-2.4-3.1-1.9-7.7 1.2-10.1 3.1-2.5 7.7-2 10.1 1.1 0.3 0.3 15.9 20.4 16.6 50.2 32.5-1.4 56.6-11.1 71.5-29.3 2.7-3.3 5-6.8 7.1-10.4 23.3-65.7-10.5-89.7-11.9-90.7-3.3-2.3-4.2-6.7-2-10 2.2-3.3 6.7-4.2 9.9-2 0.9 0.5 9.8 6.6 17.1 20 73.6-38.1 57-111.8 50.6-132.4-4.2 0.5-10.4 1-18.1 1q-5.7 0-12.3-0.4c-2 18.5-11 71.3-51.4 102.3-19.7 15.1-43.9 22.7-72.3 22.7q-4.9 0-10-0.3c5.5 22.2-3.6 59.8-28.2 89.2-14.7 17.4-41.9 39.9-84.7 39.9-20.8 0-45.4-5.4-74-19.3-3.6-1.7-5.1-6-3.4-9.6 1.8-3.6 6.1-5.1 9.6-3.4 78.6 38.2 122.3 5.8 141.4-16.9 25.1-29.9 31.2-68.6 23.4-81.6-5.8-0.9-11.6-1.9-17.7-3.2-3.9-0.9-6.3-4.8-5.4-8.7 0.9-3.8 4.7-6.3 8.6-5.4 43.3 9.8 78.3 4.8 104-14.9 35.7-27.4 43.9-76.2 45.7-92.5-27.9-4.3-62.2-16.9-89.1-49.6-2.6-3.1-2.1-7.7 1-10.2 3-2.5 7.6-2.1 10.1 1 44.7 54.3 114.5 46.6 125 45.1 62.6-41 72.5-110.1 60.7-161.4-7-30.7-21.4-56.7-40.6-75.5zm-445.9-84.8c19.1-20.2 51-35.9 91.8-43.6 79.2-15 178.7 5.5 210.1 85.8 1.5 3.7-0.3 7.9-4 9.3q-1.3 0.5-2.7 0.5c-2.8 0-5.6-1.7-6.7-4.6-28.4-72.6-120.5-90.7-194-76.8-59.6 11.2-99.6 41-99.6 74.2 0 1-0.1 20.2-0.1 51.1 21.7-18.6 48-29 73.9-33.6-1.1-21 3.6-37.7 14.4-49.6 16.3-18 39.8-18 40.9-18 3.9 0.1 7.1 3.3 7.1 7.3-0.1 3.9-3.3 7.1-7.2 7.1h-0.1c-0.4 0-18.3 0.2-30.1 13.4-7.8 8.7-11.4 21.4-10.7 37.8 17.7-1.8 34.7-1.2 49.3 1.2 38.6 6.2 67.9 24.5 78.3 48.9 1.6 3.7-0.1 7.9-3.8 9.4-0.9 0.4-1.9 0.6-2.8 0.6-2.8 0-5.5-1.6-6.7-4.3-8.4-19.9-33.6-34.9-67.3-40.4-39.6-6.4-98.2 0.5-135.3 40.2 0 18.2-0.1 39.2-0.1 62 80-59.6 157.6-3.5 158.4-2.9 3.2 2.4 3.9 6.9 1.5 10.1-2.4 3.2-6.9 3.9-10.1 1.5-3-2.3-75.5-54.3-149.8 9.8-0.1 31.5-0.1 65.9-0.1 101 32.4-14.5 62-17.3 88-8.3 38.6 13.3 54.7 47.6 55.4 49 1.6 3.7 0 7.9-3.6 9.6-1 0.4-2 0.7-3 0.7-2.7 0-5.3-1.6-6.5-4.2-0.2-0.3-14.4-30.4-47.2-41.6-23.9-8.2-51.9-4.5-83.1 10.8 0 44.4 0.1 89.5 0.2 131.2 18.5 22.9 34.5 34.1 48.7 34.1h0.1c18.1 0 34.2-18.7 51.1-39.6-9.3-2.9-17.1-8.2-23.2-15.9-22.6-28.8-14.2-81-13.8-83.2 0.6-4 4.3-6.6 8.2-6 4 0.7 6.6 4.4 6 8.3-0.1 0.5-7.8 48.2 11 72 5.4 6.9 12.6 11 21.7 12.4 19.1-23.4 41-47.2 70.9-51.3 7.9-1 12.9-3.4 14.8-7q0.4-0.8 0.6-1.6v-0.1c2.9-9.9-7.1-29.6-16-47.2-10.7-21.1-21.6-42.8-20.5-61.3-14.3-3.2-46.9-13.1-74.2-41.1-2.7-2.9-2.7-7.4 0.2-10.2 2.8-2.8 7.4-2.7 10.2 0.1 24.9 25.6 55.3 34.5 67.4 37.2l0.3-0.7c6.7-12.6 21.2-20.1 44.3-23 6.2-0.8 11.7-1.6 16.6-2.5-5.3-22.8-29.4-96-118.8-89.5-3.9 0.3-7.4-2.7-7.7-6.7-0.3-4 2.7-7.4 6.7-7.7 99.1-7.2 127.3 74.8 133.7 100.7 26.6-7.8 26.2-19.9 25.3-40.8-0.7-18.7-1.6-42.8 15.8-71.5-8.3-13.5-41.9-60.2-109.1-60.2q-1.2 0-2.4 0h-0.2c-3.9 0-7.1-3.1-7.1-7.1-0.1-4 3.1-7.2 7-7.3 69.1-1.1 107 42.1 120.7 61.9 2.1-2.7 4.3-5.5 6.8-8.3 23.5-26.5 50.1-40.6 79-41.7 2.9-0.1 5.7-0.1 8.5 0 1.8-37-10.6-72.1-35.4-99.2-24.3-26.5-57.2-41.7-90.4-41.7-10.7 0-21.2 1.6-31.3 4.7 16.1 4.5 31.5 12.4 35.8 52.2 0.4 3.9-2.4 7.5-6.4 7.9l-0.8 0.1c-3.6 0-6.7-2.8-7.1-6.5-3.8-34.4-14.5-37.1-30.7-41.2-7.4-1.9-15.9-4.1-24.3-9.3-28.6-11.7-54.5-17.7-77-17.7-47.3 0-80.9 25.7-100 76.4-4.4 11.8-7.5 23.7-9.7 34.5zm-402.8 39.8q4.2-0.2 8.5 0c28.9 1.1 55.5 15.2 79 41.7 2.5 2.8 4.7 5.5 6.9 8.3 13.7-19.8 51.5-63 120.6-61.9 4 0.1 7.1 3.3 7.1 7.3-0.1 4-3.3 7.1-7.2 7.1h-0.1c-68.9-1.2-103.2 46.6-111.6 60.2 17.5 28.7 16.5 52.8 15.8 71.4-0.8 21-1.3 33.1 25.3 40.9 6.4-25.9 34.5-107.8 133.8-100.7 3.9 0.3 6.9 3.7 6.6 7.7-0.3 4-3.8 7-7.7 6.7-89.4-6.6-113.5 66.7-118.8 89.5 5 0.9 10.5 1.7 16.7 2.5 23 2.9 37.5 10.4 44.2 23l0.3 0.7c12.2-2.7 42.7-11.7 67.5-37.2 2.7-2.8 7.3-2.9 10.1-0.1 2.9 2.8 3 7.3 0.2 10.2-27.3 28-59.9 37.9-74.2 41.1 1.1 18.5-9.8 40.2-20.5 61.3-8.9 17.5-18.8 37.2-16.1 47.1l0.1 0.2q0.3 0.9 0.6 1.6c2 3.6 6.9 6 14.9 7 29.9 4.1 51.7 27.9 70.8 51.3 9.1-1.4 16.3-5.5 21.8-12.5 18.7-23.8 11-71.4 11-71.9-0.7-3.9 2-7.6 5.9-8.3 3.9-0.6 7.6 2 8.3 6 0.3 2.2 8.8 54.4-13.9 83.2-6.1 7.7-13.9 13-23.1 15.9 16.8 20.9 32.9 39.6 51 39.6h0.1c14.2 0 30.2-11.2 48.7-34.1 0.2-41.7 0.2-86.8 0.3-131.2-31.4-15.4-59.4-19-83.4-10.7-32.8 11.3-46.8 41.2-46.9 41.4-1.2 2.7-3.9 4.3-6.6 4.3q-1.5 0-3-0.7c-3.6-1.7-5.2-5.9-3.5-9.6 0.6-1.4 16.7-35.7 55.3-49 26-9 55.6-6.2 88.1 8.4 0-35.2-0.1-69.6-0.1-101.1-74.7-64.3-149.1-10.4-149.9-9.8-3.2 2.4-7.7 1.7-10.1-1.5-2.4-3.2-1.7-7.7 1.5-10.1 0.8-0.6 78.4-56.7 158.5 2.9-0.1-22.8-0.1-43.8-0.2-62-37-39.7-95.7-46.6-135.2-40.2-33.8 5.5-59 20.5-67.4 40.4-1.2 2.7-3.8 4.3-6.6 4.3q-1.5 0-2.9-0.6c-3.6-1.5-5.3-5.7-3.8-9.4 10.4-24.4 39.7-42.7 78.4-48.9 14.5-2.4 31.5-3 49.2-1.2 0.8-16.4-2.9-29.2-10.8-38-11.8-13-29.3-13.2-30-13.2h-0.1c-3.9 0-7.1-3.2-7.1-7.1-0.1-4 3.1-7.2 7.1-7.3 0.9 0.1 24.5 0 40.8 18 10.8 11.9 15.6 28.6 14.4 49.6 25.9 4.7 52.2 15.1 74 33.6-0.1-30.9-0.2-50.2-0.2-51.1 0-33.2-40-63-99.5-74.2-73.6-13.9-165.6 4.2-194.1 76.8-1.1 2.9-3.8 4.6-6.7 4.6q-1.3 0-2.6-0.5c-3.7-1.4-5.6-5.6-4.1-9.3 31.4-80.3 131-100.8 210.1-85.8 40.8 7.7 72.8 23.4 91.8 43.6-2.2-10.8-5.3-22.7-9.7-34.5-19-50.7-52.7-76.4-100-76.4-22.5 0-48.4 6-76.9 17.6-8.5 5.3-16.9 7.5-24.4 9.4-16.2 4.1-26.9 6.8-30.7 41.2-0.4 3.7-3.5 6.5-7.1 6.5l-0.8-0.1c-4-0.4-6.8-4-6.4-7.9 4.4-39.8 19.8-47.7 35.9-52.2-10.2-3.1-20.6-4.7-31.3-4.7-33.2 0-66.2 15.2-90.4 41.7-24.8 27.1-37.3 62.2-35.5 99.2zm-48.5 281.9c10.5 1.5 80.3 9.2 125-45.1 2.6-3.1 7.1-3.5 10.2-1 3 2.5 3.5 7.1 1 10.2-27 32.7-61.3 45.3-89.2 49.6 1.8 16.4 10.1 65.2 45.8 92.6 25.7 19.6 60.6 24.6 103.9 14.8 3.9-0.9 7.8 1.6 8.6 5.4 0.9 3.9-1.5 7.8-5.4 8.7-6 1.3-11.9 2.3-17.6 3.2-7.8 13-1.8 51.7 23.3 81.6 19.1 22.7 62.8 55.1 141.4 16.9 3.6-1.7 7.9-0.2 9.6 3.4 1.7 3.6 0.3 7.9-3.3 9.6-28.6 13.9-53.2 19.3-74.1 19.3-42.8 0-70-22.5-84.6-39.9-24.7-29.4-33.7-67-28.2-89.2q-5.1 0.3-10.1 0.3c-28.3 0-52.5-7.6-72.3-22.7-40.4-31-49.4-83.8-51.4-102.3-4.4 0.3-8.5 0.4-12.3 0.4-7.6 0-13.9-0.5-18.1-1-6.4 20.6-23 94.3 50.7 132.4 7.2-13.4 16.2-19.5 17-20 3.3-2.2 7.8-1.3 10 2 2.2 3.3 1.2 7.8-2 10-1.6 1-35.3 25.1-11.9 90.7 2 3.6 4.3 7.1 7 10.4 14.9 18.2 39 27.9 71.5 29.3 0.8-29.8 16.4-49.9 16.6-50.2 2.5-3.1 7-3.6 10.1-1.1 3.1 2.4 3.7 7 1.2 10.1-0.9 1.1-14.7 19.3-13.6 46 0.3 0.6 0.5 1.3 0.6 2 0.1 1.5 2 19.1 11.7 37q0.8 1.4 1.7 2.8l0.7 1.3c10.7 17.6 29.4 34.1 61.9 34.1 11.2 0 23.6-2 36.9-5.8-9.9-11.1-13.1-25.9-10.6-38.2 3.6-17.2 16.8-27.9 34.6-27.9 4 0 7.2 3.3 7.2 7.2 0 4-3.2 7.3-7.2 7.3-15.4 0-19.5 11.4-20.5 16.3-2.4 11.5 2.9 26.5 17.4 33 9.1 2 27.7 5.5 48.4 5.5 55.4 0 85-23.2 88-68.8 0.8-27.9 1.2-77.3 1.5-135.4-17.2 17.9-33.2 26.6-48.7 26.6h-0.1c-15.2 0-28-8-40.1-19.7-21.3 37-51.7 45.7-75.4 45.7-20.5 0-36-6.4-36.4-6.6-3.6-1.6-5.3-5.8-3.7-9.4 1.5-3.7 5.7-5.4 9.4-3.8 2.6 1.1 62.6 25.7 95.7-36.9-5-5.8-10-12.1-15.1-18.4-19.8-24.8-40.4-50.5-68.2-54.3-10-1.3-17.4-4.7-22.2-9.8-17.6 13-37.4 17.4-55.8 17.4-35.7 0-66.6-16.3-68.6-17.4-3.6-1.9-4.9-6.2-3-9.7 1.9-3.5 6.3-4.8 9.8-3 0.6 0.4 66.8 35.1 111.6-0.9-1.6-14.8 7.9-33.6 17.8-53.3 11.5-22.6 24.5-48.3 16.8-62.7-4.3-8-15.5-13.3-33.3-15.5-9.3-1.2-17.4-2.6-24.3-4.2-43.5-10.1-45.3-29.1-44.2-57.2 0.8-21.7 1.9-48.7-27.9-82.4-20.8-23.4-43.9-35.8-68.7-36.8-42.4-1.6-76.1 30.1-76.4 30.4l-0.2 0.2c-19.1 18.8-33.6 44.8-40.6 75.5-11.8 51.3-1.9 120.4 60.7 161.4zm230.8 365.9c-29.2-1.3-48.6-14.1-61.4-29.7-1.4 4.7-3.7 9.5-7.5 13.7-7.4 8.2-18.3 12.3-32.5 12.3q-3.3 0-6.9-0.3c-3.9-0.3-6.9-3.8-6.6-7.8 0.4-4 3.8-7 7.8-6.6 12.9 1.1 22.1-1.3 27.4-7.2 7-7.6 6.1-19.5 5.7-22.9-6.5-11.7-10-22.9-11.4-33.3-37.6-1.2-65.7-12.9-83.5-34.6-23.9-29.2-22.5-67.6-18.6-91-29.5-16.1-45.5-37.5-53.7-59.2-15.1 12.1-29.7 16.2-42.5 16.2-25.3 0-43.3-16-43.5-16.2-3-2.7-3.2-7.3-0.5-10.2 2.7-2.9 7.2-3.1 10.2-0.5 1.4 1.3 34.3 30.1 71.8-4.5-7.2-32 0-62.2 3.6-74.3-12.2-8.4-22.5-17.8-31.1-27.9-44.7 24.4-75.1 71.9-75.1 126.3 0 17.9 3.3 35.4 9.7 52 1.2 2.7 21.6 44.8 97.2 35 2.6-0.3 5.2 0.8 6.7 2.9 1.6 2.1 1.9 4.8 0.8 7.2-11.8 26-12.4 47.2-8 63.9l0.3 1.5c8.4 29.8 32.4 44.7 34 45.7 3.4 2 4.5 6.5 2.4 9.9-1.3 2.2-3.7 3.5-6.2 3.5-1.2 0-2.5-0.4-3.7-1.1-0.4-0.2-22.8-14.1-35.3-41.4-3 6.9-4.7 17 1.3 29.8 1.6 3.6 0.1 7.9-3.5 9.5q-1.5 0.7-3.1 0.7c-2.7 0-5.3-1.5-6.5-4.2-11.2-24.1-2.4-43.8 5.8-53.3-3.8-16.3-3.6-36 4.8-59.1-52.4 3.5-79.2-17-91.4-31.5-3.5 12.5-5.3 25.4-5.3 38.5 0 79.4 64.5 143.9 143.8 143.9 7.3 0 14.7-0.6 21.8-1.7l1.1-0.1c1.7 0 3.3 0.6 4.6 1.7 25.6 21.1 58.1 32.7 91.3 32.7 32.1 0 61.7-10.5 85.7-28.3zm763.9-148.2c0-13.1-1.8-26-5.3-38.5-12.3 14.5-39.1 35-91.4 31.5 8.3 23.1 8.5 42.8 4.7 59.1 8.2 9.5 17.1 29.2 5.9 53.3-1.3 2.7-3.9 4.2-6.6 4.2-1 0-2-0.2-3-0.7-3.6-1.6-5.2-5.9-3.5-9.5 5.9-12.8 4.2-22.9 1.3-29.8-12.6 27.3-35 41.2-35.4 41.4-1.2 0.7-2.4 1.1-3.7 1.1-2.4 0-4.8-1.3-6.2-3.5-2-3.4-0.9-7.9 2.5-9.9 1.5-1 25.6-16.1 33.9-46.2l0.2-0.6c4.5-16.8 4-38.2-7.9-64.3-1.1-2.4-0.8-5.1 0.8-7.2 1.6-2.1 4.1-3.2 6.7-2.9 75.8 9.8 96.3-33 97.2-35 6.5-16.6 9.8-34.1 9.8-52 0-54.4-30.4-101.9-75.1-126.3-8.7 10.1-19 19.5-31.2 27.9 3.7 12.1 10.8 42.3 3.6 74.3 37.7 34.8 70.4 5.8 71.8 4.5 3-2.6 7.5-2.4 10.2 0.5 2.7 2.9 2.5 7.5-0.4 10.2-0.3 0.2-18.3 16.2-43.6 16.2-12.7 0-27.3-4.1-42.5-16.2-8.2 21.7-24.2 43.2-53.7 59.2 3.9 23.4 5.3 61.8-18.6 91-17.8 21.7-45.9 33.4-83.4 34.6-1.5 10.4-5 21.6-11.4 33.3-0.5 3.4-1.3 15.3 5.6 22.9 5.4 5.9 14.6 8.3 27.4 7.2 4-0.4 7.5 2.6 7.8 6.6 0.3 4-2.6 7.5-6.6 7.8q-3.5 0.3-6.8 0.3c-14.3 0-25.2-4.1-32.5-12.3-3.8-4.2-6.2-9-7.6-13.7-12.8 15.6-32.2 28.4-61.4 29.7 24 17.8 53.6 28.3 85.7 28.3 33.2 0 65.7-11.6 91.3-32.7 1.6-1.3 3.7-1.9 5.7-1.6 7.2 1.1 14.5 1.7 21.8 1.7 79.3 0 143.9-64.5 143.9-143.9z"/>
		<path id="&lt;Path&gt;" class="s11" d="m1450.2 598.4l-0.9-1.2c-16.6-21.6-43.2-32.6-78.9-32.6-4 0-7.2 3.2-7.2 7.2 0 4 3.2 7.2 7.2 7.2 26 0 46.1 6.5 60.1 19.1-35.6 6.9-129.7 33.9-148.6 128.4-0.8 3.9 1.8 7.7 5.6 8.5l1.5 0.1c3.3 0 6.3-2.4 7-5.8 19.1-95 123.2-115.2 145.2-118.5 22.7 35.8 8.8 90.2 8.7 90.7-1 3.9 1.2 7.8 5.1 8.8q0.9 0.3 1.8 0.3c3.2 0 6.1-2.1 7-5.4 0.7-2.6 16.6-64.7-13-105.9z"/>
	</g>
</svg>