<?xml version="1.0" encoding="UTF-8"?>
<svg id="Layer_1" data-name="Layer 1" xmlns="http://www.w3.org/2000/svg" viewBox="0 0 1299.45 903.02">
  <defs>
    <style>
      .cls-1 {
        fill: #fff;
      }

      .cls-2 {
        fill: #efcaa8;
      }

      .cls-3 {
        fill: #cd72ce;
      }

      .cls-4 {
        fill: #eaad7a;
      }

      .cls-5 {
        fill: #ede6e7;
      }

      .cls-6 {
        fill: #ffa748;
      }

      .cls-7 {
        fill: #3c8996;
      }

      .cls-8 {
        fill: #eab88f;
      }

      .cls-9 {
        fill: #c41e1e;
      }

      .cls-10 {
        stroke: #686868;
        stroke-miterlimit: 10;
        stroke-width: 7px;
      }

      .cls-10, .cls-11 {
        fill: none;
      }

      .cls-12 {
        fill: #7dc6e2;
      }

      .cls-13 {
        fill: #ffc24f;
      }

      .cls-14 {
        fill: #e28223;
      }

      .cls-15 {
        fill: #eaeaea;
      }

      .cls-16 {
        fill: #ed4f4f;
      }

      .cls-17 {
        fill: #a0d9ea;
      }

      .cls-18 {
        fill: #73b6c6;
      }

      .cls-19 {
        fill: #686868;
      }

      .cls-20 {
        fill: #f7941e;
      }

      .cls-21 {
        fill: #a56417;
      }
    </style>
  </defs>
  <g>
    <circle class="cls-15" cx="1184.5" cy="100.29" r="39.96" transform="translate(276.01 866.94) rotate(-45)"/>
    <circle class="cls-15" cx="1259.49" cy="307.28" r="39.96" transform="translate(151.61 980.6) rotate(-45)"/>
    <circle class="cls-15" cx="1107.81" cy="271.29" r="46.94"/>
    <circle class="cls-15" cx="1202.23" cy="631.55" r="46.94"/>
    <circle class="cls-15" cx="1082.91" cy="856.09" r="46.94"/>
    <circle class="cls-15" cx="1200.35" cy="479.36" r="46.94"/>
    <circle class="cls-15" cx="929.78" cy="110.64" r="46.94"/>
    <circle class="cls-15" cx="770.55" cy="429.3" r="20.34"/>
    <path class="cls-15" d="m803.21,310.68c0,24.25,10.79,45.99,27.83,60.66,14.01,12.07,32.25,19.36,52.18,19.36s38.17-7.29,52.18-19.36c17.04-14.67,27.84-36.41,27.84-60.66,0-44.2-35.83-80.02-80.02-80.02s-80.02,35.82-80.02,80.02Z"/>
    <path class="cls-15" d="m502.29,310.68c0,24.25-10.79,45.99-27.83,60.66-14.01,12.07-32.25,19.36-52.18,19.36s-38.17-7.29-52.18-19.36c-17.04-14.67-27.84-36.41-27.84-60.66,0-44.2,35.83-80.02,80.02-80.02s80.02,35.82,80.02,80.02Z"/>
    <circle class="cls-15" cx="515.23" cy="688.05" r="20.34"/>
    <circle class="cls-15" cx="487.29" cy="547.5" r="20.34" transform="translate(-239.97 456.41) rotate(-41.19)"/>
    <circle class="cls-15" cx="653.2" cy="390.75" r="20.34"/>
    <path class="cls-15" d="m384.52,547.22c0,22.34-9.15,42.54-23.92,57.05-1.26,1.24-2.57,2.45-3.91,3.61-11.23,9.66-25.16,16.27-40.53,18.51-3.81.56-7.69.85-11.66.85s-8.22-.31-12.2-.93c-15.14-2.31-28.89-8.88-39.98-18.43-1.53-1.32-3.01-2.69-4.43-4.12-14.46-14.47-23.41-34.46-23.41-56.54,0-44.2,35.83-80.02,80.02-80.02s80.02,35.82,80.02,80.02Z"/>
    <path class="cls-15" d="m490.25,778.23c0,24.25-10.79,45.99-27.83,60.66-14.01,12.07-32.25,19.36-52.18,19.36s-38.17-7.29-52.18-19.36c-17.04-14.67-27.84-36.41-27.84-60.66,0-44.2,35.83-80.02,80.02-80.02s80.02,35.82,80.02,80.02Z"/>
    <circle class="cls-15" cx="790.27" cy="688.05" r="20.34"/>
    <circle class="cls-15" cx="818.22" cy="547.5" r="20.34"/>
    <path class="cls-15" d="m815.25,778.23c0,24.25,10.79,45.99,27.83,60.66,14.01,12.07,32.25,19.36,52.18,19.36s38.17-7.29,52.18-19.36c17.04-14.67,27.84-36.41,27.84-60.66,0-44.2-35.83-80.02-80.02-80.02s-80.02,35.82-80.02,80.02Z"/>
    <path class="cls-15" d="m728.49,240.19c0,22.82-10.15,43.27-26.19,57.07-13.18,11.35-30.34,18.22-49.1,18.22s-35.92-6.86-49.1-18.21c-16.04-13.81-26.19-34.26-26.19-57.08,0-41.58,33.71-75.29,75.29-75.29s75.29,33.71,75.29,75.29Z"/>
    <path class="cls-15" d="m774.88,567.32c0,35.67-15.36,67.76-39.81,90.02-20.4,18.57-47.13,30.29-76.58,31.55-1.76.08-3.52.11-5.3.11-.49,0-.97,0-1.46,0-30.95-.36-59.13-12.29-80.41-31.66-24.46-22.26-39.81-54.35-39.81-90.02,0-67.2,54.48-121.68,121.68-121.68s121.68,54.49,121.68,121.68Z"/>
    <circle class="cls-15" cx="653.2" cy="567.32" r="121.68" transform="translate(-209.84 628.04) rotate(-45)"/>
    <path class="cls-15" d="m920.99,547.22c0,24.25,10.79,45.99,27.83,60.66,14.01,12.07,32.25,19.36,52.18,19.36s38.17-7.29,52.18-19.36c17.04-14.67,27.84-36.41,27.84-60.66,0-44.2-35.83-80.02-80.02-80.02s-80.02,35.82-80.02,80.02Z"/>
    <circle class="cls-15" cx="201.45" cy="271.29" r="46.94"/>
    <circle class="cls-15" cx="124.95" cy="100.29" r="39.96" transform="translate(-34.32 117.73) rotate(-45)"/>
    <circle class="cls-15" cx="49.96" cy="307.28" r="39.96" transform="translate(-202.65 125.33) rotate(-45)"/>
    <circle class="cls-15" cx="107.04" cy="631.55" r="46.94"/>
    <circle class="cls-15" cx="226.35" cy="856.09" r="46.94"/>
    <circle class="cls-15" cx="108.91" cy="479.36" r="46.94"/>
    <circle class="cls-15" cx="379.48" cy="110.64" r="46.94"/>
    <circle class="cls-15" cx="657.08" cy="54.27" r="46.94"/>
  </g>
  <g>
    <polyline class="cls-10" points="1167.98 89.99 1098 263.95 1245.97 295.48"/>
    <circle class="cls-3" cx="1174.5" cy="92.96" r="39.96" transform="translate(10.06 272.33) rotate(-13.28)"/>
    <circle class="cls-12" cx="1249.49" cy="299.95" r="39.96" transform="translate(-35.49 295.1) rotate(-13.28)"/>
    <polyline class="cls-10" points="121.47 89.99 191.45 263.95 43.48 295.48"/>
    <line class="cls-10" x1="645.66" y1="77.48" x2="645.66" y2="242.35"/>
    <line class="cls-10" x1="886.07" y1="778.68" x2="1073.97" y2="850.08"/>
    <line class="cls-10" x1="1006.4" y1="540.94" x2="1195.98" y2="634.08"/>
    <line class="cls-10" x1="1003.11" y1="545.05" x2="1203.03" y2="476.85"/>
    <polyline class="cls-10" points="1143.85 256.44 877.52 301.53 924.02 101.43"/>
    <circle class="cls-20" cx="1097.81" cy="263.95" r="46.94"/>
    <circle class="cls-16" cx="1192.23" cy="624.22" r="46.94"/>
    <circle class="cls-20" cx="1072.91" cy="848.75" r="46.94"/>
    <circle class="cls-12" cx="1190.35" cy="472.03" r="46.94"/>
    <circle class="cls-12" cx="919.78" cy="103.3" r="46.94"/>
    <line class="cls-10" x1="403.19" y1="778.68" x2="215.3" y2="850.08"/>
    <line class="cls-10" x1="282.86" y1="540.94" x2="93.28" y2="634.08"/>
    <line class="cls-10" x1="286.15" y1="545.05" x2="86.23" y2="476.85"/>
    <polyline class="cls-10" points="145.42 256.44 411.74 301.53 365.24 101.43"/>
    <g>
      <path class="cls-19" d="m868.9,312.76l.85.85c1.15,1.15,1.15,3.03,0,4.18l-159.42,159.42c-1.15,1.15-3.03,1.15-4.18,0l-.85-.85c-1.15-1.15-1.15-3.03,0-4.18l159.42-159.42c1.15-1.15,3.03-1.15,4.18,0Z"/>
      <circle class="cls-3" cx="760.55" cy="421.97" r="20.34"/>
    </g>
    <path class="cls-13" d="m793.21,303.35c0,24.25,10.79,45.99,27.83,60.66,14.01,12.07,32.25,19.36,52.18,19.36s38.17-7.29,52.18-19.36c17.04-14.67,27.84-36.41,27.84-60.66,0-44.2-35.83-80.02-80.02-80.02s-80.02,35.82-80.02,80.02Z"/>
    <path class="cls-19" d="m821.05,364.01c14.01,12.07,32.25,19.36,52.18,19.36s38.17-7.29,52.18-19.36l-4.31-24.52c-.86-3.67-3.54-6.62-7.11-7.82-6.01-2.02-15.04-4.61-21.7-6.46-1.04-.29-2.02-.56-2.93-.81-3.44-.95-5.73-1.56-5.73-1.56l-.25-.06-9.89-2.41v-.13l-.27.06-.27-.06v.13l-9.62,2.34-.52.13s-2.61.69-6.43,1.75h0c-1.17.32-2.46.68-3.82,1.06-6.44,1.81-14.55,4.15-20.1,6.01-3.56,1.2-6.25,4.16-7.11,7.82l-4.31,24.51Z"/>
    <path class="cls-1" d="m893.98,325.68l-12.59,57.26c-2.68.26-5.4.42-8.16.42-2.55,0-5.07-.12-7.56-.36l-14.54-56.95c.49-.13.96-.27,1.43-.41.75-.21,1.48-.41,2.18-.6.57-.16,1.11-.31,1.64-.46,3.82-1.05,6.43-1.75,6.43-1.75l.34-.08.18-.04,9.63-2.34v-.13l.27.06.26-.06v.13l9.85,2.39h.04s.26.07.26.07c0,0,2.29.61,5.73,1.56.6.16,1.24.34,1.9.52.34.1.67.19,1.02.28.55.15,1.11.31,1.69.47Z"/>
    <g>
      <circle class="cls-15" cx="533.29" cy="424.97" r="20.34"/>
      <path class="cls-19" d="m416.6,312.76l-.85.85c-1.15,1.15-1.15,3.03,0,4.18l159.42,159.42c1.15,1.15,3.03,1.15,4.18,0l.85-.85c1.15-1.15,1.15-3.03,0-4.18l-159.42-159.42c-1.15-1.15-3.03-1.15-4.18,0Z"/>
      <circle class="cls-12" cx="524.96" cy="421.97" r="20.34"/>
    </g>
    <path class="cls-3" d="m492.29,303.35c0,24.25-10.79,45.99-27.83,60.66-14.01,12.07-32.25,19.36-52.18,19.36s-38.17-7.29-52.18-19.36c-17.04-14.67-27.84-36.41-27.84-60.66,0-44.2,35.83-80.02,80.02-80.02s80.02,35.82,80.02,80.02Z"/>
    <g>
      <path class="cls-19" d="m396.03,789.07l.85.85c1.15,1.15,3.03,1.15,4.18,0l159.42-159.42c1.15-1.15,1.15-3.03,0-4.18l-.85-.85c-1.15-1.15-3.03-1.15-4.18,0l-159.42,159.42c-1.15,1.15-1.15,3.03,0,4.18Z"/>
      <circle class="cls-16" cx="505.23" cy="680.72" r="20.34"/>
    </g>
    <g>
      <rect class="cls-19" x="435.58" y="424.49" width="7.1" height="231.36" rx="2.95" ry="2.95" transform="translate(-101.04 979.3) rotate(-90)"/>
      <circle class="cls-13" cx="477.29" cy="540.17" r="20.34" transform="translate(-168.95 220.85) rotate(-22.24)"/>
    </g>
    <g>
      <rect class="cls-19" x="639.64" y="229.58" width="7.1" height="231.36" rx="2.95" ry="2.95"/>
      <circle class="cls-20" cx="643.2" cy="383.42" r="20.34" transform="translate(-65.92 623.98) rotate(-49.54)"/>
    </g>
    <path class="cls-16" d="m374.52,539.89c0,22.34-9.15,42.54-23.92,57.05-1.26,1.24-2.57,2.45-3.91,3.61-11.23,9.66-25.16,16.27-40.53,18.51-3.81.56-7.69.85-11.66.85s-8.22-.31-12.2-.93c-15.14-2.31-28.89-8.88-39.98-18.43-1.53-1.32-3.01-2.69-4.43-4.12-14.46-14.47-23.41-34.46-23.41-56.54,0-44.2,35.83-80.02,80.02-80.02s80.02,35.82,80.02,80.02Z"/>
    <g>
      <path class="cls-13" d="m480.25,770.9c0,24.25-10.79,45.99-27.83,60.66-14.01,12.07-32.25,19.36-52.18,19.36s-38.17-7.29-52.18-19.36c-17.04-14.67-27.84-36.41-27.84-60.66,0-44.2,35.83-80.02,80.02-80.02s80.02,35.82,80.02,80.02Z"/>
      <g>
        <path class="cls-19" d="m427.91,750.4c0-31.39-23.71-33.97-27.27-32.59-3.56-1.38-27.27,1.2-27.27,32.59,0,26.39-3.84,70.08-3.84,70.08h62.23s-3.84-43.68-3.84-70.08Z"/>
        <path class="cls-17" d="m452.42,831.56c-14.01,12.07-32.25,19.36-52.18,19.36s-38.17-7.29-52.18-19.36l4.31-24.52c.86-3.67,3.54-6.62,7.11-7.82,6.01-2.02,15.04-4.61,21.7-6.46,1.04-.29,2.02-.56,2.93-.81,3.44-.95,5.73-1.56,5.73-1.56l.25-.06,9.89-2.41v-.13l.27.06.27-.06v.13l9.62,2.34.52.13s2.61.69,6.43,1.75h0c1.17.32,2.46.68,3.82,1.06,6.44,1.81,14.55,4.15,20.1,6.01,3.56,1.2,6.25,4.16,7.11,7.82l4.31,24.51Z"/>
        <path class="cls-18" d="m380.41,803.57l6.91-1.92-2.43,6.15,15.62,18.05,15.62-18.05-2.43-6.15,6.91,1.92-1.33-10.81c-.77-.21-1.51-.42-2.2-.61h0c-3.82-1.05-6.43-1.75-6.43-1.75l-.52-.13-9.62-2.34v-.13l-.27.07-.27-.07v.13l-9.89,2.41-.25.06s-2.29.61-5.73,1.56c-.73.2-1.52.42-2.34.65l-1.35,10.97Z"/>
        <polygon class="cls-2" points="410.21 790.34 400.51 815.35 390.08 790.34 390.08 772.07 410.21 772.07 410.21 790.34"/>
        <path class="cls-4" d="m390.08,782.8c3.17,2.85,6.78,4.86,10.39,4.86,3.37,0,6.75-1.77,9.75-4.34v-11.25h-20.14v10.73Z"/>
        <g>
          <path class="cls-2" d="m388.43,755.08c0-3.23-2.62-5.86-5.86-5.86s-5.86,2.62-5.86,5.86,2.62,5.86,5.86,5.86,5.86-2.62,5.86-5.86Z"/>
          <path class="cls-8" d="m386.04,755.08c0-1.91-1.55-3.47-3.47-3.47s-3.47,1.55-3.47,3.47,1.55,3.47,3.47,3.47,3.47-1.55,3.47-3.47Z"/>
          <path class="cls-2" d="m423.57,755.08c0-3.23-2.62-5.86-5.86-5.86s-5.86,2.62-5.86,5.86,2.62,5.86,5.86,5.86,5.86-2.62,5.86-5.86Z"/>
          <path class="cls-8" d="m421.18,755.08c0-1.91-1.55-3.47-3.47-3.47s-3.47,1.55-3.47,3.47,1.55,3.47,3.47,3.47,3.47-1.55,3.47-3.47Z"/>
          <path class="cls-2" d="m417.95,745.22v18.23c0,4.83-8.76,18.74-17.54,18.75-8.8,0-17.6-13.91-17.6-18.75v-18.23s10.91-3.5,18.02-11.18c0,0,8.64,8.07,17.12,11.18Z"/>
        </g>
        <rect class="cls-18" x="419.08" y="833.5" width="19.08" height="2.94"/>
      </g>
    </g>
    <g>
      <path class="cls-19" d="m889.48,789.07l-.85.85c-1.15,1.15-3.03,1.15-4.18,0l-159.42-159.42c-1.15-1.15-1.15-3.03,0-4.18l.85-.85c1.15-1.15,3.03-1.15,4.18,0l159.42,159.42c1.15,1.15,1.15,3.03,0,4.18Z"/>
      <circle class="cls-12" cx="780.27" cy="680.72" r="20.34"/>
    </g>
    <g>
      <rect class="cls-19" x="842.83" y="424.49" width="7.1" height="231.36" rx="2.95" ry="2.95" transform="translate(306.21 1386.54) rotate(-90)"/>
      <circle class="cls-16" cx="808.22" cy="540.17" r="20.34"/>
    </g>
    <path class="cls-16" d="m805.25,770.9c0,24.25,10.79,45.99,27.83,60.66,14.01,12.07,32.25,19.36,52.18,19.36s38.17-7.29,52.18-19.36c17.04-14.67,27.84-36.41,27.84-60.66,0-44.2-35.83-80.02-80.02-80.02s-80.02,35.82-80.02,80.02Z"/>
    <path class="cls-12" d="m718.49,232.85c0,22.82-10.15,43.27-26.19,57.07-13.18,11.35-30.34,18.22-49.1,18.22s-35.92-6.86-49.1-18.21c-16.04-13.81-26.19-34.26-26.19-57.08,0-41.58,33.71-75.29,75.29-75.29s75.29,33.71,75.29,75.29Z"/>
    <path class="cls-6" d="m692.3,289.93c-13.18,11.35-30.34,18.22-49.1,18.22s-35.92-6.86-49.1-18.21l4.05-23.07c.81-3.45,3.33-6.23,6.69-7.36,5.66-1.9,14.16-4.34,20.41-6.08.98-.27,1.9-.53,2.76-.76,3.24-.89,5.39-1.46,5.39-1.46l.24-.06,9.3-2.27v-.13l.25.06.26-.06v.13l9.05,2.21.49.12s2.45.65,6.05,1.64h0c1.1.3,2.32.64,3.6,1,6.06,1.7,13.69,3.9,18.91,5.66,3.35,1.13,5.88,3.91,6.69,7.36l4.05,23.06Z"/>
    <path class="cls-14" d="m624.54,263.6l6.51-1.81-2.29,5.78,14.7,16.99,14.7-16.99-2.29-5.78,6.51,1.81-1.25-10.17c-.72-.2-1.42-.39-2.07-.57h0c-3.6-.99-6.05-1.65-6.05-1.65l-.49-.12-9.05-2.21v-.12l-.26.06-.26-.06v.12l-9.3,2.27-.24.06s-2.15.58-5.39,1.46c-.69.19-1.43.39-2.2.61l-1.27,10.32Z"/>
    <rect class="cls-14" x="660.92" y="291.76" width="17.95" height="2.77"/>
    <g>
      <path class="cls-12" d="m764.88,559.99c0,35.67-15.36,67.76-39.81,90.02-20.4,18.57-47.13,30.29-76.58,31.55-1.76.08-3.52.11-5.3.11-.49,0-.97,0-1.46,0-30.95-.36-59.13-12.29-80.41-31.66-24.46-22.26-39.81-54.35-39.81-90.02,0-67.2,54.48-121.68,121.68-121.68s121.68,54.49,121.68,121.68Z"/>
      <g>
        <path class="cls-19" d="m725.07,650c-21.62,19.68-50.34,31.66-81.87,31.66s-60.26-11.99-81.87-31.66l5.29-30.09c1.37-5.86,5.67-10.59,11.37-12.51,9.62-3.23,24.07-7.37,34.71-10.34,1.67-.46,3.24-.9,4.69-1.29,5.5-1.51,9.16-2.49,9.16-2.49l.41-.1,15.82-3.85v-.22l.44.11.44-.11v.22l15.39,3.75.83.2s4.17,1.11,10.28,2.8h0c1.87.52,3.93,1.09,6.11,1.7,10.3,2.89,23.28,6.64,32.16,9.62,5.7,1.92,10,6.65,11.37,12.51l5.29,30.09Z"/>
        <path class="cls-1" d="m676.25,597.78l-20.15,60.78h0s-7.62,22.99-7.62,22.99c-1.76.08-3.52.11-5.3.11-.49,0-.97,0-1.46,0l-9.76-28.41h0s-19.29-56.18-19.29-56.18c1.67-.46,3.24-.89,4.68-1.3,5.5-1.51,9.17-2.49,9.17-2.49l.4-.1,15.82-3.85v-.21l.43.11.44-.11v.21l15.39,3.75.83.2s4.17,1.11,10.28,2.8c1.88.52,3.94,1.09,6.12,1.7Z"/>
        <polygon class="cls-2" points="659.16 593.19 643.63 609.13 626.94 593.19 626.94 563.97 659.16 563.97 659.16 593.19"/>
        <path class="cls-4" d="m626.94,581.13c5.06,4.56,10.84,7.78,16.62,7.77,5.4,0,10.79-2.83,15.6-6.94v-17.99h-32.22v17.16Z"/>
        <g>
          <path class="cls-21" d="m609.3,533.02l-1.12-12.52c-1.27-14.22,3.43-29.94,14.13-38.77,9.28-7.66,23.92-9.21,35.41-.6,0,0,7.23-3.94,15.94,5.36,11.82,12.64,2.57,50.96,2.57,50.96h-54.11l-12.82-4.44Z"/>
          <circle class="cls-2" cx="614.94" cy="536.79" r="9.37"/>
          <path class="cls-8" d="m620.49,536.79c0-3.06-2.48-5.54-5.54-5.54s-5.54,2.48-5.54,5.54,2.48,5.54,5.54,5.54,5.54-2.48,5.54-5.54Z"/>
          <circle class="cls-2" cx="671.16" cy="536.79" r="9.37"/>
          <path class="cls-8" d="m676.7,536.79c0-3.06-2.48-5.54-5.54-5.54s-5.54,2.48-5.54,5.54,2.48,5.54,5.54,5.54,5.54-2.48,5.54-5.54Z"/>
          <path class="cls-2" d="m671.54,521.02v29.17c0,7.72-14.02,29.98-28.05,30-14.07.01-28.16-22.26-28.16-30v-29.17s33.27-9.18,40.73-15.87c0,0,8.41,12.62,15.49,15.87Z"/>
        </g>
        <path class="cls-16" d="m648.49,681.55l6.99-21.09-3.25-31.6c.7-.88-5.53-.42-8.54-.15-3.01-.27-9.24-.73-8.54.15l-2.53,26.28,9.11,26.52,6.75-.11Z"/>
        <polygon class="cls-9" points="652.16 628.76 659.09 622.95 643.79 609 643.78 608.96 643.76 608.98 643.74 608.96 643.74 609 628.44 622.95 635.16 628.76 652.16 628.76"/>
        <path class="cls-5" d="m643.75,609.01l-15.04,17.08-11.33-30.31c5.5-1.51,9.16-2.49,9.16-2.49l.4-.1,16.8,15.81Z"/>
        <path class="cls-5" d="m670.06,596.08l-8.5,30.01-17.82-17.08,15.21-15.91h0s.83.19.83.19c0,0,4.17,1.11,10.29,2.8Z"/>
      </g>
      <circle class="cls-11" cx="643.2" cy="559.99" r="121.68" transform="translate(-207.58 618.82) rotate(-45)"/>
    </g>
    <g>
      <path class="cls-19" d="m294.76,477.47h0c13.95,0,25.28,11.33,25.28,25.28v17.06h-50.56v-17.06c0-13.95,11.33-25.28,25.28-25.28Z"/>
      <path class="cls-1" d="m350.6,596.94c-1.26,1.24-2.57,2.45-3.91,3.61-14.01,12.06-32.25,19.36-52.18,19.36s-38.17-7.3-52.18-19.36c-1.53-1.32-3.01-2.69-4.43-4.12l2.89-16.47c.96-4.09,3.96-7.39,7.93-8.72,6.71-2.26,16.79-5.15,24.21-7.21,1.16-.32,2.26-.63,3.27-.91,3.84-1.05,6.39-1.74,6.39-1.74l.28-.07,11.03-2.69v-.15l.3.07.3-.07v.15l10.73,2.61.58.14s2.91.77,7.17,1.95h0c1.3.36,2.74.77,4.26,1.19,7.19,2.01,16.24,4.63,22.43,6.71,3.98,1.33,6.98,4.64,7.93,8.72l2.98,16.98Z"/>
      <polygon class="cls-2" points="305.33 561.32 294.51 572.44 282.86 561.32 282.86 540.94 305.33 540.94 305.33 561.32"/>
      <path class="cls-4" d="m282.86,552.91c3.53,3.18,7.56,5.42,11.59,5.42,3.76,0,7.53-1.97,10.88-4.84v-12.55h-22.47v11.97Z"/>
      <path class="cls-2" d="m281.03,521.99c0-3.61-2.93-6.53-6.53-6.53s-6.53,2.93-6.53,6.53,2.93,6.53,6.53,6.53,6.53-2.93,6.53-6.53Z"/>
      <path class="cls-8" d="m278.36,521.99c0-2.14-1.73-3.87-3.87-3.87s-3.87,1.73-3.87,3.87,1.73,3.87,3.87,3.87,3.87-1.73,3.87-3.87Z"/>
      <path class="cls-2" d="m320.23,521.99c0-3.61-2.93-6.53-6.53-6.53s-6.53,2.93-6.53,6.53,2.93,6.53,6.53,6.53,6.53-2.93,6.53-6.53Z"/>
      <path class="cls-8" d="m317.57,521.99c0-2.14-1.73-3.87-3.87-3.87s-3.87,1.73-3.87,3.87,1.73,3.87,3.87,3.87,3.87-1.73,3.87-3.87Z"/>
      <path class="cls-2" d="m313.97,510.99v20.34c0,5.38-9.78,20.91-19.56,20.92-9.81,0-19.64-15.52-19.64-20.92v-20.34l6.09-11.56c.66-1.25,2.1-1.88,3.46-1.5l9.88,2.69c.92.25,1.89.24,2.81-.04l8.42-2.53c1.46-.44,3.02.28,3.63,1.68l4.91,11.25Z"/>
      <path class="cls-18" d="m306.16,619.06c-3.81.56-7.69.85-11.66.85s-8.22-.31-12.2-.93l6.28-32.77c-.49-.62,3.86-.3,5.96-.11,2.1-.19,6.44-.51,5.96.11l5.66,32.85Z"/>
      <polygon class="cls-7" points="300.45 586.13 305.28 582.08 294.61 572.35 294.61 572.32 294.6 572.34 294.58 572.32 294.58 572.35 283.91 582.08 288.59 586.13 300.45 586.13"/>
      <path class="cls-5" d="m294.59,572.36l-10.49,11.91-7.9-21.14c3.84-1.05,6.39-1.74,6.39-1.74l.28-.07,11.72,11.03Z"/>
      <path class="cls-5" d="m312.93,563.34l-5.93,20.93-12.43-11.92,10.61-11.1h0s.58.13.58.13c0,0,2.91.77,7.17,1.95Z"/>
    </g>
    <path class="cls-19" d="m388.76,287.53s-1.86-25.97,8.73-33.74c11.59-8.5,19.21-.55,19.21-.55,0,0,5.08-2.32,10.15-.11,5.08,2.21,19.07,19.13,8.76,34.4s-30.62,4.01-30.62,4.01l-16.24-4.01Z"/>
    <g>
      <path class="cls-1" d="m464.46,364.01c-14.01,12.07-32.25,19.36-52.19,19.36s-38.16-7.29-52.18-19.36l4.31-24.52c.86-3.66,3.54-6.62,7.11-7.82,6.01-2.01,15.04-4.61,21.7-6.45.43-.11.86-.24,1.26-.34.58-.17,1.13-.32,1.66-.46,3.44-.95,5.73-1.56,5.73-1.56l.26-.06,9.89-2.4v-.13l.26.06.27-.06v.13l9.62,2.34.19.04.32.08s2.61.7,6.44,1.75c.48.13.97.27,1.48.41h0c.75.2,1.53.42,2.33.64,6.44,1.81,14.55,4.15,20.1,6.01,3.57,1.2,6.25,4.16,7.11,7.82l4.31,24.51Z"/>
      <polygon class="cls-2" points="422.26 322.79 412.55 333.34 402.12 322.79 402.12 304.52 422.26 304.52 422.26 322.79"/>
      <path class="cls-4" d="m402.12,315.25c3.17,2.85,6.78,4.86,10.39,4.86,3.37,0,6.75-1.77,9.75-4.34v-11.25h-20.14v10.73Z"/>
      <g>
        <path class="cls-2" d="m400.47,287.53c0-3.23-2.62-5.86-5.86-5.86s-5.86,2.62-5.86,5.86,2.62,5.86,5.86,5.86,5.86-2.62,5.86-5.86Z"/>
        <path class="cls-8" d="m398.08,287.53c0-1.91-1.55-3.47-3.47-3.47s-3.47,1.55-3.47,3.47,1.55,3.47,3.47,3.47,3.47-1.55,3.47-3.47Z"/>
        <path class="cls-2" d="m435.61,287.53c0-3.23-2.62-5.86-5.86-5.86s-5.86,2.62-5.86,5.86,2.62,5.86,5.86,5.86,5.86-2.62,5.86-5.86Z"/>
        <path class="cls-8" d="m433.22,287.53c0-1.91-1.55-3.47-3.47-3.47s-3.47,1.55-3.47,3.47,1.55,3.47,3.47,3.47,3.47-1.55,3.47-3.47Z"/>
        <path class="cls-2" d="m430,277.67v18.24c0,4.83-8.76,18.74-17.54,18.75-8.8,0-17.6-13.91-17.6-18.75v-18.23s15.81-1.73,22.51-9.31c0,0,5.81,5.22,12.64,9.31Z"/>
      </g>
    </g>
    <path class="cls-5" d="m412.55,333.34l-14.98,12.07-3.09-20.54c.58-.17,1.13-.32,1.66-.46,3.44-.95,5.73-1.56,5.73-1.56l.26-.06,10.43,10.55Z"/>
    <path class="cls-5" d="m430.61,325.01l-3.31,20.99-14.72-12.66,9.76-10.55.04-.02.32.08s2.61.7,6.44,1.75c.48.13.97.27,1.48.41Z"/>
    <path class="cls-5" d="m414.84,342.87c0,1.29-1.05,2.33-2.33,2.33s-2.33-1.05-2.33-2.33,1.05-2.33,2.33-2.33,2.33,1.05,2.33,2.33Z"/>
    <path class="cls-5" d="m414.84,352.69c0,1.29-1.05,2.33-2.33,2.33s-2.33-1.05-2.33-2.33,1.05-2.33,2.33-2.33,2.33,1.05,2.33,2.33Z"/>
    <path class="cls-19" d="m674.76,242.44s-4.63-10.5-6.55-32.52c-2.37-27.31-22.54-25.88-25.08-25.59-2.53-.29-22.7-1.72-25.08,25.59-1.92,22.03-6.55,32.52-6.55,32.52,0,0,17.93,6.9,31.63,4.8,13.7,2.1,31.63-4.8,31.63-4.8Z"/>
    <polygon class="cls-2" points="652.59 251.14 643.46 274.68 633.64 251.14 633.64 233.96 652.59 233.96 652.59 251.14"/>
    <path class="cls-4" d="m633.64,244.05c2.98,2.68,6.38,4.57,9.77,4.57,3.17,0,6.35-1.66,9.17-4.08v-10.58h-18.95v10.09Z"/>
    <g>
      <path class="cls-2" d="m632.09,217.97c0-3.04-2.47-5.51-5.51-5.51s-5.51,2.47-5.51,5.51,2.47,5.51,5.51,5.51,5.51-2.47,5.51-5.51Z"/>
      <path class="cls-8" d="m629.84,217.97c0-1.8-1.46-3.26-3.26-3.26s-3.26,1.46-3.26,3.26,1.46,3.26,3.26,3.26,3.26-1.46,3.26-3.26Z"/>
      <path class="cls-2" d="m665.15,217.97c0-3.04-2.47-5.51-5.51-5.51s-5.51,2.47-5.51,5.51,2.47,5.51,5.51,5.51,5.51-2.47,5.51-5.51Z"/>
      <path class="cls-8" d="m662.91,217.97c0-1.8-1.46-3.26-3.26-3.26s-3.26,1.46-3.26,3.26,1.46,3.26,3.26,3.26,3.26-1.46,3.26-3.26Z"/>
      <path class="cls-2" d="m659.87,208.69v17.16c0,4.54-8.24,17.64-16.5,17.64-8.28,0-16.56-13.09-16.56-17.64v-17.16h12.86l3.53-7.81,3.53,7.65s13.46.47,13.14.15Z"/>
    </g>
    <path class="cls-5" d="m872.96,333.49l-10.33,10.45-7.89-18.88c.57-.16,1.11-.31,1.64-.46,3.82-1.05,6.43-1.75,6.43-1.75l.34-.08.1.02,9.7,10.7Z"/>
    <path class="cls-5" d="m891.27,324.93l-7.94,19-10.33-10.45,10.3-10.7h.04s.04,0,.04,0l.26.06s2.29.61,5.73,1.56c.6.16,1.24.34,1.9.52Z"/>
    <polygon class="cls-9" points="873.11 333.56 864.56 342.01 869.06 349.97 872.18 349.97 873.94 349.97 877.06 349.97 881.56 342.01 873.11 333.56"/>
    <path class="cls-16" d="m877.06,349.97h-8l-3.39,33.04c2.49.24,5.01.36,7.56.36,2.76,0,5.47-.16,8.16-.42.37,0-4.34-32.98-4.34-32.98Z"/>
    <path class="cls-19" d="m896.4,287.02v-13.5c0-11.75-8.98-21.74-20.7-22.52-.38-.03-.76-.04-1.15-.06h0c-.33-.02-.65,0-.98,0-.31,0-.62-.01-.94,0h0c-1.23.04-2.39.14-3.49.28-11.09,1.48-19.24,11.17-19.24,22.35v13.46h46.51Z"/>
    <g>
      <polygon class="cls-2" points="863.25 322.79 872.96 333.49 883.39 322.79 883.39 304.52 863.25 304.52 863.25 322.79"/>
      <path class="cls-4" d="m883.39,315.25c-3.17,2.85-6.78,4.86-10.39,4.86-3.37,0-6.75-1.77-9.75-4.34v-11.25h20.14v10.73Z"/>
      <g>
        <path class="cls-2" d="m885.03,287.53c0-3.23,2.62-5.86,5.86-5.86s5.86,2.62,5.86,5.86-2.62,5.86-5.86,5.86-5.86-2.62-5.86-5.86Z"/>
        <path class="cls-8" d="m887.43,287.53c0-1.91,1.55-3.47,3.47-3.47s3.47,1.55,3.47,3.47-1.55,3.47-3.47,3.47-3.47-1.55-3.47-3.47Z"/>
        <path class="cls-2" d="m849.89,287.53c0-3.23,2.62-5.86,5.86-5.86s5.86,2.62,5.86,5.86-2.62,5.86-5.86,5.86-5.86-2.62-5.86-5.86Z"/>
        <path class="cls-8" d="m852.28,287.53c0-1.91,1.55-3.47,3.47-3.47s3.47,1.55,3.47,3.47-1.55,3.47-3.47,3.47-3.47-1.55-3.47-3.47Z"/>
        <path class="cls-2" d="m890.65,277.67v18.23c0,4.84-8.81,18.76-17.6,18.75-8.77,0-17.54-13.93-17.54-18.75v-18.24l5.46-7.61,6.31.96c3.86.59,7.79.6,11.66.03l6.75-.99,4.95,7.61Z"/>
      </g>
    </g>
    <path class="cls-3" d="m910.99,539.89c0,24.25,10.79,45.99,27.83,60.66,14.01,12.07,32.25,19.36,52.18,19.36s38.17-7.29,52.18-19.36c17.04-14.67,27.84-36.41,27.84-60.66,0-44.2-35.83-80.02-80.02-80.02s-80.02,35.82-80.02,80.02Z"/>
    <path class="cls-19" d="m991.22,488.25h0c-12.62,0-22.85,10.23-22.85,22.85v15.99h45.7v-15.99c0-12.62-10.23-22.85-22.85-22.85Z"/>
    <g>
      <path class="cls-1" d="m938.82,600.55c14.01,12.07,32.25,19.36,52.18,19.36s38.17-7.29,52.18-19.36l-4.31-24.52c-.86-3.67-3.54-6.62-7.11-7.82-6.01-2.02-15.04-4.61-21.7-6.46-1.04-.29-2.02-.56-2.93-.81-3.44-.95-5.73-1.56-5.73-1.56l-.25-.06-9.89-2.41v-.13l-.27.06-.27-.06v.13l-9.62,2.34-.52.13s-2.61.69-6.43,1.75h0c-1.17.32-2.46.68-3.82,1.06-6.44,1.81-14.55,4.15-20.1,6.01-3.56,1.2-6.25,4.16-7.11,7.82l-4.31,24.51Z"/>
      <path class="cls-5" d="m1010.83,572.56l-6.91-1.92,2.43,6.15-15.62,18.05-15.62-18.05,2.43-6.15-6.91,1.92,1.33-10.81c.77-.21,1.51-.42,2.2-.61h0c3.82-1.05,6.43-1.75,6.43-1.75l.52-.13,9.62-2.34v-.13l.27.07.27-.07v.13l9.89,2.41.25.06s2.29.61,5.73,1.56c.73.2,1.52.42,2.34.65l1.35,10.97Z"/>
      <polygon class="cls-2" points="981.03 559.33 990.73 584.34 1001.16 559.33 1001.16 541.06 981.03 541.06 981.03 559.33"/>
      <path class="cls-4" d="m1001.16,551.79c-3.17,2.85-6.78,4.86-10.39,4.86-3.37,0-6.75-1.77-9.75-4.34v-11.25h20.14v10.73Z"/>
      <g>
        <path class="cls-2" d="m1002.81,524.07c0-3.23,2.62-5.86,5.86-5.86s5.86,2.62,5.86,5.86-2.62,5.86-5.86,5.86-5.86-2.62-5.86-5.86Z"/>
        <path class="cls-8" d="m1005.2,524.07c0-1.91,1.55-3.47,3.47-3.47s3.47,1.55,3.47,3.47-1.55,3.47-3.47,3.47-3.47-1.55-3.47-3.47Z"/>
        <path class="cls-2" d="m967.67,524.07c0-3.23,2.62-5.86,5.86-5.86s5.86,2.62,5.86,5.86-2.62,5.86-5.86,5.86-5.86-2.62-5.86-5.86Z"/>
        <path class="cls-8" d="m970.06,524.07c0-1.91,1.55-3.47,3.47-3.47s3.47,1.55,3.47,3.47-1.55,3.47-3.47,3.47-3.47-1.55-3.47-3.47Z"/>
        <path class="cls-2" d="m973.29,514.21v18.24c0,4.83,8.76,18.74,17.54,18.75,8.8,0,17.6-13.91,17.6-18.75v-18.24s-11.47-.25-17.87-9.3c0,0-2.87,6.95-17.27,9.3Z"/>
      </g>
    </g>
    <rect class="cls-5" x="1006.56" y="596.19" width="16.12" height="2.65"/>
    <circle class="cls-19" cx="991.44" cy="487.69" r="10.46" transform="translate(289.01 1340.56) rotate(-76.72)"/>
    <path class="cls-19" d="m861.3,753.15s-1.2-23.62,8.17-31.35c12.58-10.38,20.97-3.09,20.97-3.09,0,0,7.54-2.54,12.36.77,7.06,4.86,13.47,31.02,3.97,38.3-9.49,7.29-45.48-4.64-45.48-4.64Z"/>
    <g>
      <path class="cls-6" d="m937.46,831.56c-14.01,12.06-32.25,19.36-52.19,19.36s-38.17-7.29-52.18-19.36l4.31-24.51c.86-3.66,3.54-6.62,7.1-7.82,5.55-1.86,13.66-4.21,20.11-6.01,1.32-.37,2.58-.72,3.73-1.03.04,0,.06-.02.1-.03,3.82-1.06,6.43-1.75,6.43-1.75l.35-.08.17-.04,9.62-2.35v-.13l.27.06.27-.06v.13l9.89,2.41.25.06s2.3.61,5.73,1.55c.91.25,1.89.52,2.93.81,6.65,1.85,15.68,4.43,21.7,6.45,3.56,1.2,6.25,4.16,7.11,7.82l4.31,24.51Z"/>
      <polygon class="cls-2" points="875.29 790.34 885 805.47 895.43 790.34 895.43 772.07 875.29 772.07 875.29 790.34"/>
      <path class="cls-4" d="m895.43,782.8c-3.17,2.85-6.78,4.86-10.39,4.86-3.37,0-6.75-1.77-9.75-4.34v-11.25h20.14v10.73Z"/>
      <g>
        <path class="cls-2" d="m897.08,755.08c0-3.23,2.62-5.86,5.86-5.86s5.86,2.62,5.86,5.86-2.62,5.86-5.86,5.86-5.86-2.62-5.86-5.86Z"/>
        <path class="cls-8" d="m899.47,755.08c0-1.91,1.55-3.47,3.47-3.47s3.47,1.55,3.47,3.47-1.55,3.47-3.47,3.47-3.47-1.55-3.47-3.47Z"/>
        <path class="cls-2" d="m861.94,755.08c0-3.23,2.62-5.86,5.86-5.86s5.86,2.62,5.86,5.86-2.62,5.86-5.86,5.86-5.86-2.62-5.86-5.86Z"/>
        <path class="cls-8" d="m864.33,755.08c0-1.91,1.55-3.47,3.47-3.47s3.47,1.55,3.47,3.47-1.55,3.47-3.47,3.47-3.47-1.55-3.47-3.47Z"/>
        <path class="cls-2" d="m867.55,745.22v18.23c0,4.83,8.76,18.74,17.54,18.75,8.8,0,17.6-13.91,17.6-18.75v-18.23s-4.92-2.05-12.03-9.74c0,0-11.7,6.18-23.11,9.74Z"/>
      </g>
    </g>
    <path class="cls-5" d="m885,805.47l-12.65,11.7-4.01-24.99s.06-.02.1-.03c3.82-1.06,6.43-1.75,6.43-1.75l.35-.08.08.02,9.7,15.13Z"/>
    <path class="cls-5" d="m885,805.32l13.36,11.86,4.01-24.99s-.06-.02-.1-.03c-3.82-1.06-6.43-1.75-6.43-1.75l-.35-.08-.08.02-10.41,14.97Z"/>
    <circle class="cls-16" cx="191.45" cy="263.95" r="46.94"/>
    <circle id="boule1" class="cls-3" cx="114.95" cy="92.96" r="39.96" transform="translate(-2.3 183) rotate(-76.48)"/>
    <circle class="cls-3" cx="39.96" cy="299.95" r="39.96" transform="translate(-261.25 270.9) rotate(-76.9)"/>
    <circle class="cls-20" cx="97.04" cy="624.22" r="46.94"/>
    <circle class="cls-12" cx="216.35" cy="848.75" r="46.94"/>
    <circle class="cls-12" cx="98.91" cy="472.03" r="46.94"/>
    <circle class="cls-12" cx="369.48" cy="103.3" r="46.94"/>
    <circle class="cls-20" cx="647.08" cy="46.94" r="46.94"/>
  </g>
</svg>