<svg version="1.2" xmlns="http://www.w3.org/2000/svg" viewBox="0 0 1400 980" width="1400" height="980">
	<title>PEOPLE TALKING-ai</title>
	<style>
		.s0 { fill: #69301d } 
		.s1 { fill: #e56ea5 } 
		.s2 { fill: #f07eb2 } 
		.s3 { fill: #fefefe } 
		.s4 { fill: #f7aa73 } 
		.s5 { fill: #f9b482 } 
		.s6 { fill: #e9945a } 
		.s7 { fill: #c53d27 } 
		.s8 { fill: #e5a571 } 
		.s9 { fill: #312f30 } 
		.s10 { fill: #8d2713 } 
		.s11 { fill: #2e2c2d } 
		.s12 { fill: #292728 } 
		.s13 { fill: #9e2f1a } 
		.s14 { fill: #b73620 } 
		.s15 { fill: #843f2a } 
	</style>
	<g id="_Artboards_">
	</g>
	<g id="Layer 1">
		<g id="&lt;Group&gt;">
			<g id="&lt;Group&gt;">
			</g>
			<g id="&lt;Group&gt;">
			</g>
			<g id="&lt;Group&gt;">
				<g id="&lt;Group&gt;">
					<g id="&lt;Group&gt;">
						<path id="&lt;Path&gt;" class="s0" d="m621 426.7c0 0-30.1 1.4-45.9 70.4-15.8 68.9 76.1 298.8-47.4 343.4 0 0 35.5 13 84.8 21.8 136.1 24.5 263-76 269.6-214.2 3-60.4 2.2-124.5-9.6-162.5-27.3-87.6-173.9-146.5-251.5-58.9z"/>
					</g>
					<g id="&lt;Group&gt;">
						<path id="&lt;Path&gt;" class="s1" d="m878.6 980c-2.9-44.6-13.4-187-34.9-225.4-25.6-45.6-66.8-46.7-66.8-46.7l53.3 272.1z"/>
					</g>
					<g id="&lt;Group&gt;">
						<path id="&lt;Path&gt;" class="s1" d="m627.7 980l53.2-272.1c0 0-41.2 1.1-66.8 46.7-21.5 38.4-32 180.8-34.8 225.4z"/>
					</g>
					<g id="&lt;Group&gt;">
						<path id="&lt;Path&gt;" class="s2" d="m832.8 980v-205.6c0-37.3-30.3-67.6-67.6-67.6h-74.8c-37.4 0-67.7 30.3-67.7 67.6v205.6z"/>
					</g>
					<g id="&lt;Group&gt;">
						<path id="&lt;Path&gt;" class="s3" d="m698.2 980h69.3c6.3-68.3 17-200.7 22.4-268.5-7.6-3-16-4.7-24.7-4.7h-74.8c-8.8 0-17.2 1.7-24.9 4.8z"/>
					</g>
					<g id="&lt;Group&gt;">
						<path id="&lt;Path&gt;" class="s4" d="m699 670.8v40.3c0 15.9 12.9 28.8 28.8 28.8 15.9 0 28.8-12.9 28.8-28.8v-40.3z"/>
					</g>
					<g id="&lt;Group&gt;">
						<path id="&lt;Path&gt;" class="s5" d="m865.7 550.6c0 66.7-61.3 141.2-136.8 141.2-75.5 0-136.7-74.5-136.7-141.2 0-66.7 61.2-120.8 136.7-120.8 75.5 0 136.8 54.1 136.8 120.8z"/>
					</g>
					<path id="&lt;Path&gt;" class="s6" d="m731 568.3c0 0 1.1 16.5 6.2 24.7 5.1 8.2-5.8 13.7-5.8 13.7 0 0 5.8-4.1 2.4-12-3.5-7.9-2.8-26.4-2.8-26.4z"/>
					<g id="&lt;Group&gt;">
						<path id="&lt;Path&gt;" class="s7" d="m764.9 625.8h-76.8c-2 0-3.7 1.7-3.4 3.7 2.6 19.7 20.3 35 41.8 35 21.5 0 39.3-15.3 41.8-35 0.3-2-1.3-3.7-3.4-3.7z"/>
					</g>
					<g id="&lt;Group&gt;">
						<g id="&lt;Group&gt;">
							<g id="&lt;Group&gt;">
								<path id="&lt;Path&gt;" class="s0" d="m694.3 566.9c0 7.9-6.4 14.4-14.4 14.4-7.9 0-14.3-6.5-14.3-14.4 0-7.9 6.4-14.4 14.3-14.4 8 0 14.4 6.5 14.4 14.4z"/>
							</g>
							<g id="&lt;Group&gt;">
								<path id="&lt;Path&gt;" class="s3" d="m690.5 561.5c0 3.2-2.6 5.8-5.8 5.8-3.2 0-5.8-2.6-5.8-5.8 0-3.2 2.6-5.8 5.8-5.8 3.2 0 5.8 2.6 5.8 5.8z"/>
							</g>
						</g>
						<g id="&lt;Group&gt;">
							<g id="&lt;Group&gt;">
								<path id="&lt;Path&gt;" class="s0" d="m787.5 566.9c0 7.9-6.5 14.4-14.4 14.4-7.9 0-14.4-6.5-14.4-14.4 0-7.9 6.5-14.4 14.4-14.4 7.9 0 14.4 6.5 14.4 14.4z"/>
							</g>
							<g id="&lt;Group&gt;">
								<path id="&lt;Path&gt;" class="s3" d="m783.6 561.5c0 3.2-2.6 5.8-5.8 5.8-3.2 0-5.8-2.6-5.8-5.8 0-3.2 2.6-5.8 5.8-5.8 3.2 0 5.8 2.6 5.8 5.8z"/>
							</g>
						</g>
					</g>
					<g id="&lt;Group&gt;">
						<g id="&lt;Group&gt;">
							<path id="&lt;Path&gt;" class="s0" d="m650.3 553.5c0 0 19-25.5 43.8-15.4 0 0-27.6-18.7-43.8 15.4z"/>
						</g>
						<g id="&lt;Group&gt;">
							<path id="&lt;Path&gt;" class="s0" d="m802.7 553.5c0 0-19-25.5-43.7-15.4 0 0 27.6-18.7 43.7 15.4z"/>
						</g>
					</g>
					<g id="&lt;Group&gt;">
						<path id="&lt;Path&gt;" class="s0" d="m596.5 613.5c0 0-1.4-89 47.6-135.3 0 0 86.9 58.2 215.8 66.3 0 0 12.6 33.1 2.2 96.2 0 0 24.5-91.6-3.6-146.9-28.1-55.3-94.3-88-155.9-78.9-61.7 9.1-149.6 39.9-106.1 198.6z"/>
					</g>
				</g>
				<g id="&lt;Group&gt;">
					<g id="&lt;Group&gt;">
						<path id="&lt;Path&gt;" class="s3" d="m353.3 992v-223.2c0-27.6-22.4-50-50-50h-110c-27.7 0-50.1 22.4-50.1 50v223.2z"/>
					</g>
					<g id="&lt;Group&gt;">
						<path id="&lt;Path&gt;" class="s4" d="m219.5 682.8v40.3c0 15.9 12.9 28.8 28.8 28.8 15.9 0 28.7-12.9 28.7-28.8v-40.3z"/>
					</g>
					<g id="&lt;Group&gt;">
						<g id="&lt;Group&gt;">
							<path id="&lt;Path&gt;" class="s8" d="m118.5 581.7c0 0-19.4-31.3-31.8-4.2-13.2 28.7 24 60.5 43.8 46.7z"/>
						</g>
						<g id="&lt;Group&gt;">
							<path id="&lt;Path&gt;" class="s8" d="m382 580.7c0 0 19.4-31.3 31.8-4.2 13.2 28.7-24 60.5-43.7 46.7z"/>
						</g>
						<g id="&lt;Group&gt;">
							<path id="&lt;Path&gt;" class="s5" d="m385 569.7c0 66.7-61.2 141.3-136.7 141.3-75.5 0-136.8-74.6-136.8-141.3 0-66.7 61.3-120.8 136.8-120.8 75.5 0 136.7 54.1 136.7 120.8z"/>
						</g>
						<path id="&lt;Path&gt;" class="s6" d="m250.3 588.6c0 0 1 16.5 6.1 24.7 5.2 8.2-5.8 13.7-5.8 13.7 0 0 5.8-4.1 2.4-12-3.4-7.9-2.7-26.4-2.7-26.4z"/>
						<g id="&lt;Group&gt;">
							<path id="&lt;Path&gt;" class="s7" d="m284.3 644.9h-76.9c-2 0-3.6 1.8-3.4 3.8 2.6 19.7 20.3 35 41.8 35 21.6 0 39.3-15.3 41.9-35 0.2-2-1.4-3.8-3.4-3.8z"/>
						</g>
						<g id="&lt;Group&gt;">
							<path id="&lt;Path&gt;" class="s9" d="m122.4 622.1c0 0 12.5-35.3 11.4-52.4-1.2-17.1 30.7-27.3 34.1-46.7 3.5-19.4 49 22.8 108.3 23.9 0 0-13.7-5.7-20.5-15.9 0 0 45.5 20.5 80.9 21.6 35.3 1.2 15.9 37.6 38.7 66.1 0 0 31.9-41 3.4-100.2l16 6.8c0 0-29.7-53.6-74.1-69.5 0 0 28.5 5.7 46.7-17.1 0 0-29.6 13.7-51.2-4.6-21.7-18.2-70.7-12.5-99.2-1.1l27.4-18.2c0 0-41-5.7-88.9 29.6 0 0-15.9-6.8-42.2 5.7 0 0 18.3 1.1 25.1 10.2 0 0-27.4 19-31.9 54.7-8 63.8 16 107.1 16 107.1z"/>
						</g>
						<g id="&lt;Group&gt;">
							<g id="&lt;Group&gt;">
								<g id="&lt;Group&gt;">
									<path id="&lt;Path&gt;" class="s9" d="m213.6 586.1c0 7.9-6.4 14.3-14.3 14.3-8 0-14.4-6.4-14.4-14.3 0-8 6.4-14.4 14.4-14.4 7.9 0 14.3 6.4 14.3 14.4z"/>
								</g>
								<g id="&lt;Group&gt;">
									<path id="&lt;Path&gt;" class="s3" d="m209.8 580.6c0 3.2-2.6 5.8-5.8 5.8-3.2 0-5.8-2.6-5.8-5.8 0-3.2 2.6-5.8 5.8-5.8 3.2 0 5.8 2.6 5.8 5.8z"/>
								</g>
							</g>
							<g id="&lt;Group&gt;">
								<g id="&lt;Group&gt;">
									<path id="&lt;Path&gt;" class="s9" d="m306.8 586.1c0 7.9-6.4 14.3-14.4 14.3-7.9 0-14.3-6.4-14.3-14.3 0-8 6.4-14.4 14.3-14.4 8 0 14.4 6.4 14.4 14.4z"/>
								</g>
								<g id="&lt;Group&gt;">
									<path id="&lt;Path&gt;" class="s3" d="m303 580.6c0 3.2-2.6 5.8-5.8 5.8-3.2 0-5.8-2.6-5.8-5.8 0-3.2 2.6-5.8 5.8-5.8 3.2 0 5.8 2.6 5.8 5.8z"/>
								</g>
							</g>
						</g>
						<g id="&lt;Group&gt;">
							<path id="&lt;Path&gt;" class="s9" d="m169.7 572.7c0 0 19-25.5 43.7-15.5 0 0-27.6-18.6-43.7 15.5z"/>
							<path id="&lt;Path&gt;" class="s9" d="m322 572.7c0 0-19-25.5-43.7-15.5 0 0 27.6-18.6 43.7 15.5z"/>
						</g>
					</g>
					<g id="&lt;Group&gt;">
						<path id="&lt;Path&gt;" class="s5" d="m499.6 744.2c0 0-3.6-25.5 11-29.8 14.5-4.2 27.9-27.3 33.9-21.2 6.1 6-5.4 20.6-5.4 20.6 0 0 32.8-9.7 46.1-23.7 13.4-13.9 14.6 11-3.6 26.7-18.2 15.8-60.1 38.3-60.1 38.3z"/>
					</g>
					<path id="&lt;Path&gt;" class="s3" d="m303.3 718.8c0 0 53.4-3.6 80.8 36.2 21.7 31.3 55.8 74.8 55.8 74.8 0 0 36.1-47.9 49.2-91.2l40.1 16.4c0 0-55.2 112.2-78.8 126.6-23.6 14.5-106.3-80.7-106.3-80.7z"/>
					<g id="&lt;Group&gt;">
						<path id="&lt;Path&gt;" class="s3" d="m117.3 992c2.5-36.5 11.9-143.8 37.1-167.8 30.5-29 32-104.1 32-104.1 0 0-34.3-10.8-65.8 35.2-35.2 51.3-46.2 194-48.8 236.7z"/>
					</g>
				</g>
				<g id="&lt;Group&gt;">
					<path id="&lt;Path&gt;" class="s10" d="m1082.2 413c0 0-38 18-52 45-14 27 46 156 46 156l78-167z"/>
					<g id="&lt;Group&gt;">
						<path id="&lt;Path&gt;" class="s11" d="m1312 980v-234.9c0-29.4-23.9-53.3-53.4-53.3h-117.2c-29.5 0-53.3 23.9-53.3 53.3v234.9z"/>
					</g>
					<path id="&lt;Path&gt;" class="s12" d="m1260.2 822l-23-23 23-4-5.3-103.2h-107.2l-12.5 96.2 26 7-23 25 62.9 138.1z"/>
					<path id="&lt;Path&gt;" class="s3" d="m1241.7 691.8h-74.5l-7.3 0.7 41.3 226.5z"/>
					<g id="&lt;Group&gt;">
						<path id="&lt;Path&gt;" class="s4" d="m1169.3 653.5v42.9c0 16.9 13.8 30.7 30.7 30.7 16.9 0 30.7-13.8 30.7-30.7v-42.9z"/>
					</g>
					<g id="&lt;Group&gt;">
						<path id="&lt;Path&gt;" class="s8" d="m1338.3 545.6c0 0 20.7-33.3 33.9-4.5 14.1 30.7-25.6 64.6-46.6 49.9z"/>
					</g>
					<g id="&lt;Group&gt;">
						<path id="&lt;Path&gt;" class="s5" d="m1345.7 532.9c0 71.1-79.9 151.6-160.4 151.6-80.5 0-131-80.5-131-151.6 0-71.1 65.2-128.7 145.7-128.7 80.5 0 145.7 57.6 145.7 128.7z"/>
					</g>
					<g id="&lt;Group&gt;">
						<path id="&lt;Path&gt;" class="s6" d="m1164.2 561.5c0 0-5.5 21.9-11.3 31.1-5.9 9.3 16.4 12.7 16.4 12.7 0 0-12.7-1.7-9.7-11.4 2.9-9.7 4.6-32.4 4.6-32.4z"/>
					</g>
					<g id="&lt;Group&gt;">
						<g id="&lt;Group&gt;">
							<g id="&lt;Group&gt;">
								<path id="&lt;Path&gt;" class="s9" d="m1139.1 555.6c0 8.5-6.9 15.3-15.3 15.3-8.5 0-15.3-6.8-15.3-15.3 0-8.4 6.8-15.3 15.3-15.3 8.4 0 15.3 6.9 15.3 15.3z"/>
							</g>
							<g id="&lt;Group&gt;">
								<path id="&lt;Path&gt;" class="s3" d="m1126.2 549.8c0 3.4-2.8 6.2-6.2 6.2-3.4 0-6.2-2.8-6.2-6.2 0-3.4 2.8-6.1 6.2-6.1 3.4 0 6.2 2.7 6.2 6.1z"/>
							</g>
						</g>
						<g id="&lt;Group&gt;">
							<g id="&lt;Group&gt;">
								<path id="&lt;Path&gt;" class="s9" d="m1238.4 555.6c0 8.5-6.9 15.3-15.3 15.3-8.5 0-15.3-6.8-15.3-15.3 0-8.4 6.8-15.3 15.3-15.3 8.4 0 15.3 6.9 15.3 15.3z"/>
							</g>
							<g id="&lt;Group&gt;">
								<path id="&lt;Path&gt;" class="s3" d="m1224.7 549.8c0 3.4-2.8 6.2-6.2 6.2-3.4 0-6.1-2.8-6.1-6.2 0-3.4 2.7-6.1 6.1-6.1 3.4 0 6.2 2.7 6.2 6.1z"/>
							</g>
						</g>
					</g>
					<g id="&lt;Group&gt;">
						<path id="&lt;Path&gt;" class="s9" d="m1092.2 541.3c0 0 20.3-27.1 46.6-16.4 0 0-29.4-19.9-46.6 16.4z"/>
						<path id="&lt;Path&gt;" class="s9" d="m1254.6 541.3c0 0-20.2-27.1-46.6-16.4 0 0 29.4-19.9 46.6 16.4z"/>
					</g>
					<g id="&lt;Group&gt;">
						<path id="&lt;Path&gt;" class="s7" d="m1145.3 620.4c0 0 47.6 5.9 69.3-0.2 21.6-6.2-6.1 28.8-35.9 34.8 0 0-13.2 3.8-16-5.1-2.8-8.9-4-19-17.4-29.5z"/>
					</g>
					<path id="&lt;Path&gt;" class="s13" d="m1071.2 429c0 0 35 57 109 70 74 13 102 13 117 42 15 29 29 57 29 57 0 0 25-52 29-78 4-26-5-126-42-138-37-12-97-21-163-16-66 5-101-12-101-12 0 0 6 52 22 75z"/>
					<g id="&lt;Group&gt;">
						<path id="&lt;Path&gt;" class="s5" d="m939.6 735.2c0 0 15.5-20.6 4.7-31.4-10.7-10.7-11.3-37.4-19.5-35-8.3 2.4-5.2 20.8-5.2 20.8 0 0-24-24.3-29-43-5-18.6-18.1 2.6-9.7 25.2 8.4 22.6 41.3 75.2 41.3 75.2z"/>
					</g>
					<g id="&lt;Group&gt;">
						<path id="&lt;Path&gt;" class="s11" d="m1134.2 694c0 0-28-8-61 35-33 43-66 98-66 98l-56-106-39 23c0 0 60 133 86 151 26 18 112-109 112-109z"/>
					</g>
					<g id="&lt;Group&gt;">
						<path id="&lt;Path&gt;" class="s5" d="m1108.9 746.8c0 0 3.7-25.5-10.8-29.8-14.6-4.3-27.9-27.4-34-21.3-6.1 6.1 5.4 20.6 5.4 20.6 0 0-32.7-9.7-46-23.7-13.4-14-14.6 10.8 3.5 26.7 18.2 15.8 72.3 46.2 72.3 46.2z"/>
					</g>
					<g id="&lt;Group&gt;">
						<path id="&lt;Path&gt;" class="s9" d="m1266.2 693c0 0 28 0.6 50.6 25.4 16.1 17.6 2 48.4-6.6 70.6q-0.7 1.9-1.6 3.7c-8 17-72.4 91.3-92.4 90.3-20-1-128-115-128-115l25-32c0 0 82 68 100 70 18 2 48-84 53-113z"/>
					</g>
					<path id="&lt;Path&gt;" class="s14" d="m1077.2 386c0 0 49 86 128 102 79 16 88 13 88 13 0 0-72-11-102-54 0 0 32 17 79 24 0 0-88-51-111-88 0 0-3 33 15 65 0 0-60-24-97-62z"/>
				</g>
				<g id="&lt;Group&gt;">
					<path id="&lt;Path&gt;" class="s15" d="m634.2 430c0 0 83 93 223 104 0 0-80-16-116-54 0 0 42 21 103 13 0 0-90-5-180-73 0 0 28 38 52 56 0 0-50-27-82-46z"/>
				</g>
				<path id="&lt;Path&gt;" class="s15" d="m684.2 405c0 0 129-26 179 99 0 0-62-98-179-99z"/>
			</g>
			<path id="&lt;Path&gt;" class="s3" d="m422.6 181c0-70.4-83-127.4-185.3-127.4-102.4 0-185.3 57-185.3 127.4 0 66.1 73.2 120.5 167 126.8l24.8 53.5 15.5-53.8c92-7.4 163.3-61.2 163.3-126.5z"/>
			<path id="&lt;Path&gt;" class="s3" d="m625.5 123.1c-93 0-168.4 51.9-168.4 115.9 0 53.8 53.3 99 125.6 112l19.7 42.1 10.2-38.6q6.4 0.3 12.9 0.3c93.1 0 168.5-51.9 168.5-115.8 0-64-75.4-115.9-168.5-115.9z"/>
			<path id="&lt;Path&gt;" class="s3" d="m1036.7 31.3c-116.9 0-211.6 65.1-211.6 145.4 0 67.7 67.3 124.6 158.4 140.8l29.9 58.4 10.2-54q6.5 0.3 13.1 0.3c116.8 0 211.5-65.1 211.5-145.5 0-80.3-94.7-145.4-211.5-145.4z"/>
		</g>
	</g>
</svg>