<?xml version="1.0" encoding="UTF-8"?>
<svg xmlns="http://www.w3.org/2000/svg" xmlns:xlink="http://www.w3.org/1999/xlink" viewBox="0 0 981.25 684.68">
  <defs>
    <style>
      .cls-1 {
        fill: #fff;
      }

      .cls-2 {
        fill: #848c91;
      }

      .cls-3 {
        fill: url(#linear-gradient-3);
      }

      .cls-3, .cls-4, .cls-5, .cls-6, .cls-7, .cls-8, .cls-9 {
        mix-blend-mode: multiply;
      }

      .cls-3, .cls-4, .cls-5, .cls-6, .cls-8 {
        opacity: .5;
      }

      .cls-4 {
        fill: url(#linear-gradient-2);
      }

      .cls-5 {
        fill: url(#linear-gradient-6);
      }

      .cls-10 {
        isolation: isolate;
      }

      .cls-11 {
        fill: #00437f;
      }

      .cls-12 {
        fill: url(#radial-gradient);
      }

      .cls-13 {
        fill: #e0b97c;
      }

      .cls-14 {
        fill: #eac89b;
      }

      .cls-15 {
        fill: #fdfeff;
      }

      .cls-16 {
        fill: #c69a60;
      }

      .cls-17 {
        fill: #002c5b;
      }

      .cls-18 {
        clip-path: url(#clippath);
      }

      .cls-19 {
        fill: #9fe6fc;
        mix-blend-mode: screen;
      }

      .cls-20 {
        fill: none;
      }

      .cls-21 {
        fill: #00203d;
      }

      .cls-6 {
        fill: url(#linear-gradient-5);
      }

      .cls-22 {
        fill: #bc9664;
      }

      .cls-7 {
        fill: url(#linear-gradient-7);
      }

      .cls-23 {
        fill: url(#linear-gradient);
      }

      .cls-8 {
        fill: url(#linear-gradient-4);
      }

      .cls-9 {
        fill: #073e6b;
        opacity: .05;
      }

      .cls-24 {
        fill: #fcfcfc;
      }
    </style>
    <clipPath id="clippath">
      <rect class="cls-20" x="56.15" y="83.39" width="912.37" height="595.28"/>
    </clipPath>
    <radialGradient id="radial-gradient" cx="487.01" cy="361.79" fx="487.01" fy="361.79" r="803.12" gradientTransform="translate(44.8 43.8) scale(.96 .93)" gradientUnits="userSpaceOnUse">
      <stop offset="0" stop-color="#aad9e8"/>
      <stop offset=".12" stop-color="#a4d6e5"/>
      <stop offset=".28" stop-color="#94cfdd"/>
      <stop offset=".46" stop-color="#79c4d0"/>
      <stop offset=".65" stop-color="#54b5bd"/>
      <stop offset=".86" stop-color="#26a1a6"/>
      <stop offset="1" stop-color="#009294"/>
    </radialGradient>
    <linearGradient id="linear-gradient" x1="510.18" y1="635.54" x2="510.18" y2="687.14" gradientUnits="userSpaceOnUse">
      <stop offset="0" stop-color="#6fc1cb"/>
      <stop offset=".27" stop-color="#4db2ba"/>
      <stop offset=".76" stop-color="#159b9e"/>
      <stop offset="1" stop-color="#009294"/>
    </linearGradient>
    <linearGradient id="linear-gradient-2" x1="301.9" y1="415.33" x2="301.9" y2="688.62" gradientUnits="userSpaceOnUse">
      <stop offset="0" stop-color="#aad9e8"/>
      <stop offset=".43" stop-color="#63bbe0"/>
      <stop offset="1" stop-color="#0092d5"/>
    </linearGradient>
    <linearGradient id="linear-gradient-3" x1="-117" y1="415.33" x2="-117" y2="688.62" gradientTransform="translate(603.79) rotate(-180) scale(1 -1)" xlink:href="#linear-gradient-2"/>
    <linearGradient id="linear-gradient-4" x1="511.35" y1="468.97" x2="511.35" y2="674.6" xlink:href="#linear-gradient-2"/>
    <linearGradient id="linear-gradient-5" x1="511.35" y1="417.39" x2="511.35" y2="472.72" xlink:href="#linear-gradient-2"/>
    <linearGradient id="linear-gradient-6" x1="511.35" y1="442.59" x2="511.35" y2="451.49" xlink:href="#linear-gradient-2"/>
    <linearGradient id="linear-gradient-7" x1="511.35" y1="442.59" x2="511.35" y2="451.49" xlink:href="#linear-gradient-2"/>
  </defs>
  <g class="cls-10">
    <g id="Layer_1" data-name="Layer 1">
      <g class="cls-18">
        <rect class="cls-12" x="56.15" y="83.39" width="912.37" height="595.28"/>
        <path class="cls-9" d="m36.12,548.16h5.62v-58.13h7.35v-36.65l12.12-12.64v-27.8h25.53v77.09h5.62v58.13h4.33v1.9h8.45v-138.04h11.12v-34.81h8.04v-31.67h13.31v31.67h8.04v34.81h11.67l-.06,13.15-.22,14.94v109.95h9.09v-20.85h7.78v-62.56h5.07v-65.68h1.66v65.68h2.91v-39.55h3.33v39.55h5.2v62.56h5.19v20.85h7.78v39.8h19.47v-121.19h5.2v-8.51h3.54v-55.92h4.16v-8.51h3.95v-28.57h4.99v28.57h3.95v8.51h4.16v55.92h3.54v8.51h5.2v34.64l10.86.02.04-48.06,18.92.03-.06,91.06h11.04v-13.59h8.33v-24.35h5.15v-52.42h3.46v52.42h10.38v-24.62h9.52v24.62h34.01v24.35h8.75v13.59h11.31v20.53h6.96v-21.68h8.69v-11.46l10.94-11v-48.42h8.43v-60.66h6.49v-34.12h10.38v34.12h6.49v60.66h8.43v55.92h5.2v-24.65h12.98v-29.38h7.78v12.32h16.22v28.43h5.84v16.12h7.14v21.79h4.96v-32.93h5.01l-.23-91.07,8.52-.04v-7.94h31.15v7.77l8.68-.04.05,18.96c2.56-2.85,5.87-4.6,9.51-4.64,4.68-.05,8.86,2.74,11.58,7.11h15.13v49.58l8.88-7.79v-42.99h18.23l5.98-6.24v-27.81h25.52v77.09h5.5l.02-19.82,12.88.02v-69.93l9.08-24.88v-43.36h15.57v54.97h20.76v38.86l6.49,14.21v77.94h13.04v11.16h3.83v-62.56h5.07v-65.68h1.66v65.68h2.92v-39.55h3.33v39.55h5.2v62.56h5.19v5.1l3.92-3.94v19.69h3.86v39.81h12.14v-102.5h7.33v-18.7h.26v-35.9h5.84v-30.71h6.79v-6.32h3.95v-28.56h4.99v28.56h3.96v8.51h4.16v55.91h3.54v8.5h5.2v46.85h5.89v-26.44h7.01v11.09h14.6v25.59h5.26v14.5h6.42v19.61h4.49l-.28-111.6,7.67-.04v-7.15h28.03v7l7.81-.04.16,66.04h3.57v-19.94h11.05v-50.71h21.56v70.65h8.65l-.21,122.16H36.12v-91.95Z"/>
        <rect class="cls-23" x="39.12" y="635.39" width="942.13" height="49.29"/>
        <g>
          <polygon class="cls-4" points="339.69 416.39 264.11 468.47 264.11 673.67 339.69 673.67 339.69 416.39"/>
          <polygon class="cls-3" points="683.01 416.39 758.58 468.47 758.58 673.67 683.01 673.67 683.01 416.39"/>
          <g>
            <polygon class="cls-1" points="267.42 673.67 758.59 673.67 758.59 659.63 748.59 646.07 720.8 608.39 683.01 636.39 664.32 629.46 644.34 622.06 635.18 597.39 595.6 571.07 539.68 580.06 507.19 598.06 482.11 610.39 472.34 597.39 420.34 592.83 402.84 629.18 376.01 616.39 324.34 616.39 274.11 663.53 264.11 672.91 267.42 673.67"/>
            <polygon class="cls-2" points="267.42 673.67 282.8 663.67 328.34 634.06 376.01 616.39 324.34 616.39 274.11 663.53 264.11 672.91 267.42 673.67"/>
            <polygon class="cls-2" points="409.68 631.23 413.01 649.39 376.01 616.39 402.84 629.18 420.34 592.83 411.51 624.06 447.01 653.39 409.68 631.23"/>
            <polygon class="cls-2" points="482.11 610.39 527.01 623.11 574.34 623.11 525.67 631.23 482.11 610.39"/>
            <polygon class="cls-2" points="683.01 636.39 656.34 659.67 664.31 629.46 683.01 636.39"/>
            <polygon class="cls-2" points="635.18 597.39 591.67 639.39 621.67 644.56 624.34 631.23 639.67 626.72 635.18 597.39"/>
            <polygon class="cls-2" points="482.11 610.39 546.34 592.83 539.68 580.06 482.11 610.39"/>
            <polygon class="cls-2" points="428.34 623.11 471.01 607.39 507.18 649.39 485.67 620.81 467.76 602.06 428.34 623.11"/>
          </g>
          <rect class="cls-8" x="269.11" y="473.47" width="484.48" height="195.19"/>
          <path class="cls-19" d="m264.11,468.47v205.2h494.48v-205.2h-494.48Zm484.48,195.2h-474.48v-185.2h474.48v185.2Z"/>
          <polygon class="cls-6" points="683.01 416.39 339.69 416.39 264.11 468.47 758.58 468.47 683.01 416.39"/>
          <polygon class="cls-5" points="578.71 442.43 443.98 442.43 431.83 450.81 590.86 450.81 578.71 442.43"/>
          <rect class="cls-7" x="443.98" y="442.43" width="134.73" height="8.38"/>
        </g>
        <g>
          <g>
            <g>
              <path class="cls-13" d="m284.33,247.09c4.98,4.66,17.3,13.62,28.98,29.95,11.67,16.33,19.14,17.57,30.78,26.02s40.03,38.5,54.56,42.25c1.74.33,3.4.61,5.01.83,27.32,3.78,36.37-7.38,36.37-7.38h0s.01-.01.01-.01c.08-.08.47-.43,1.09-1.03,4.76-4.6,23.36-23.52,25.96-41.01.59-3.97.17-8-.91-11.98-3.96-14.5-16.85-28.16-22.59-34.39-11.09-39.44-25.65-39.56-25.65-39.56l-89.59-14.79-12.46-6-31.55,57.1Zm110.06,40.73l5.33-22.66,35.61,26.07-7.13,30.21c-.46-.15-.93-.29-1.42-.44,0,0,0,0,0,0-1.48-.43-3.11-.83-4.89-1.18l-6.16-4.48-21.32-27.52Z"/>
              <path class="cls-16" d="m440.03,338.75h.01c.73-.68,24.11-22.28,27.05-42.05.59-3.97.17-8-.91-11.98h0s-7.53,22.4-7.53,22.4l-18.07,30.22v.03s-.54,1.34-.54,1.34v.03Z"/>
              <path class="cls-22" d="m415.39,225.32l14.5,7.4s6.64,6.22,13.7,17.62c-11.09-39.44-25.65-39.56-25.65-39.56,0,0,6.16,8.31,8.59,16.01l-11.14-1.47Z"/>
              <path class="cls-16" d="m403.63,346.13h.03c27.32,3.79,36.37-7.37,36.37-7.37h0s.01-.01.01-.01c.08-.08.47-.43,1.09-1.03l-.55-.36s-2.91-13.58-12.38-15.91c-.51-.13-.98-.27-1.42-.44,0,0,0,0,0,0-1.48-.43-3.11-.83-4.89-1.18l-6.16-4.48,5.77,16.05-17.86,14.73Z"/>
              <polygon class="cls-16" points="458.46 293.23 422.47 278.93 391.25 250.76 385.91 284.02 415.72 315.35 427.99 326.26 437.17 295.89 449.51 297.88 458.46 293.23"/>
              <path class="cls-14" d="m424.81,328.28s1.76,11.1-3.03,16.6c0,0,11.69-1.4,15.05-8.25,3.36-6.84-7.92-10.47-12.03-8.35Z"/>
              <polygon class="cls-13" points="435.86 294.58 427.54 289.24 422.95 317.63 427.84 320.49 435.86 294.58"/>
              <polygon class="cls-13" points="425.21 288.6 415.86 285.63 416.36 313.74 421.72 316.92 425.21 288.6"/>
              <polygon class="cls-16" points="409.56 324.76 407.48 333.93 402.27 341.55 405.99 334.05 409.56 324.76"/>
              <polygon class="cls-16" points="406.4 323.14 404.32 332.32 399.11 339.93 402.83 332.44 406.4 323.14"/>
            </g>
            <path class="cls-24" d="m473.94,256.23l-15.98,11.6-17.87,12.96-3.79,2.74-.8.58-4.98,3.61-2.51,1.82-.59.42-2.61,1.89-8.73,6.33-7.53,5.47-1.21.87-.79.57-.12.09-.22.16,4.91,5.16,1.84,1.94,2.76,2.9,6.17,4.48c1.79.34,3.41.74,4.89,1.18,0,0,0,0,0,0,.43.16.91.31,1.42.43.39.1.77.21,1.13.34,8.56,3.09,11.24,15.56,11.24,15.56l-.02.04-.52,1.34v.02h0s0,.02,0,.02c0,0-5.75,7.09-21.92,8.06-1.01.06-2.06.1-3.16.1-3.35.04-7.1-.19-11.29-.77-.5-.07-1-.15-1.51-.23l72.47,100.32,90.8-63.89-91.48-126.11Z"/>
          </g>
          <g>
            <path class="cls-21" d="m433.65,320.45l18.83-28.73,2.67,3.74-14.07,20.31c-1.01,1.46-2.11,2.94-3.3,4.42,1.43-.53,3.19-1.08,5.29-1.64l23.95-6.49,2.51,3.51-33.34,8.44-2.54-3.55Z"/>
            <path class="cls-21" d="m457.63,327.17c2.61-1.87,5.28-3.07,7.99-3.61,2.71-.54,5.36-.32,7.95.65,2.59.97,4.86,2.82,6.8,5.55,1.3,1.81,2.17,3.72,2.61,5.72.44,2,.47,3.97.09,5.9-.39,1.93-1.2,3.81-2.44,5.61-1.24,1.81-2.87,3.43-4.89,4.87-2.8,2-5.53,3.19-8.21,3.59-2.68.39-5.29,0-7.83-1.19-2.54-1.19-4.64-2.95-6.3-5.27-1.71-2.4-2.69-4.98-2.92-7.74-.24-2.77.31-5.38,1.63-7.85,1.32-2.47,3.16-4.54,5.52-6.23Zm2.48,3.58c-2.07,1.48-3.59,3.15-4.56,5.01-.97,1.86-1.4,3.73-1.29,5.61.11,1.88.81,3.72,2.09,5.52,2,2.79,4.53,4.29,7.58,4.47,3.05.19,6.15-.84,9.29-3.09,2.16-1.54,3.77-3.26,4.82-5.14,1.06-1.88,1.54-3.77,1.46-5.67-.08-1.9-.77-3.76-2.07-5.57-1.04-1.45-2.19-2.56-3.47-3.32-1.27-.76-2.67-1.19-4.18-1.27-1.51-.08-3.07.16-4.68.73-1.61.57-3.27,1.48-5,2.71Z"/>
            <path class="cls-21" d="m470.68,372.23l22.98-16.43-6.15-8.6,3.08-2.2,14.76,20.64-3.08,2.2-6.15-8.6-22.98,16.43-2.45-3.43Z"/>
            <path class="cls-21" d="m481.91,387.94l26.05-18.63,13.45,18.81-3.08,2.2-11-15.38-7.98,5.7,10.3,14.4-3.05,2.18-10.3-14.4-8.88,6.35,11.43,15.98-3.08,2.2-13.88-19.41Z"/>
          </g>
          <polygon class="cls-15" points="323.66 184.11 283.64 255.05 185.97 205.67 229.12 130.85 323.66 184.11"/>
          <path class="cls-21" d="m554.65,380.33l-77.81,55.06-61.89-88.47c1.1,0,2.15-.04,3.16-.1l59.37,84.86,73.45-51.97-78.5-109.4-59.47,42.14-1.84-1.94,61.93-43.9,81.6,113.72Z"/>
          <polygon class="cls-17" points="0 143.74 269.45 263.3 274.5 254.22 317.43 177.16 320.1 172.35 67.21 30.63 59.01 42.72 15.01 111.72 0 143.74"/>
          <polygon class="cls-21" points="38.39 160.77 269.45 263.3 274.5 254.22 43.29 130.85 38.39 160.77"/>
          <polygon class="cls-11" points="98.39 70.51 317.43 177.16 320.1 172.35 109.82 54.51 98.39 70.51"/>
        </g>
        <g>
          <g>
            <g>
              <path class="cls-13" d="m735.83,120.02l-10.63,5.37-76.87,14.22s-12.53.34-21.43,34.47c-4.84,5.45-15.71,17.43-18.88,29.97-.87,3.44-1.16,6.92-.58,10.33,2.53,15.01,18.85,30.99,23.03,34.86.54.51.88.8.96.87h0s0,.01,0,.01c0,0,7.97,9.46,31.42,5.75,1.38-.22,2.81-.48,4.3-.8,12.44-3.47,36.38-29.8,46.26-37.27s16.28-8.66,26.06-22.91c9.78-14.25,20.24-22.16,24.45-26.25l-28.1-48.63Zm-83.85,109.55l-5.23,3.96c-1.53.33-2.93.7-4.19,1.09,0,0,0,0,0,0-.42.13-.82.26-1.22.4l-6.63-25.88,30.21-23.03,4.96,19.41-17.9,24.04Z"/>
              <path class="cls-16" d="m631.44,250.12h0c-.64-.57-21.12-18.77-23.98-35.74-.57-3.4-.28-6.88.58-10.33h0s6.85,19.16,6.85,19.16l16.05,25.71v.03s.49,1.15.49,1.15v.02Z"/>
              <path class="cls-22" d="m650.77,152.08l-12.36,6.61s-5.61,5.46-11.5,15.4c8.9-34.13,21.43-34.47,21.43-34.47,0,0-5.17,7.26-7.13,13.92l9.56-1.45Z"/>
              <path class="cls-16" d="m662.89,255.87h-.03c-23.46,3.72-31.42-5.74-31.42-5.74h0s0-.01,0-.01c-.07-.07-.41-.36-.96-.87l.47-.32s2.28-11.74,10.39-13.9c.44-.12.84-.25,1.22-.4,0,0,0,0,0,0,1.27-.4,2.66-.76,4.19-1.09l5.23-3.96-4.7,13.91,15.62,12.39Z"/>
              <polygon class="cls-16" points="614.82 211.24 645.56 198.35 671.97 173.58 677.11 202.12 651.98 229.58 641.6 239.17 633.19 213.18 622.61 215.1 614.82 211.24"/>
              <path class="cls-14" d="m644.36,240.86s-1.33,9.59,2.88,14.23c0,0-10.09-1.01-13.09-6.85-3-5.83,6.64-9.14,10.21-7.39Z"/>
              <polygon class="cls-13" points="634.3 212.04 641.37 207.3 645.79 231.66 641.63 234.21 634.3 212.04"/>
              <polygon class="cls-13" points="643.36 206.71 651.36 204.01 651.4 228.2 646.83 231.03 643.36 206.71"/>
              <polygon class="cls-16" points="657.43 237.58 659.38 245.44 663.99 251.9 660.66 245.51 657.43 237.58"/>
              <polygon class="cls-16" points="660.12 236.13 662.07 243.99 666.68 250.46 663.35 244.07 660.12 236.13"/>
            </g>
            <path class="cls-24" d="m524.24,289.72l79.21,53.49,60.71-87.54c-.44.08-.87.15-1.3.22-3.59.56-6.82.82-9.7.85-.94.02-1.85,0-2.72-.03-13.93-.56-19-6.57-19-6.57h0s0-.01,0-.01v-.02s-.47-1.15-.47-1.15l-.02-.03s2.1-10.78,9.42-13.58c.31-.12.64-.23.97-.32.44-.12.85-.25,1.22-.4,0,0,0,0,0,0,1.27-.4,2.66-.77,4.19-1.09l5.23-3.95,2.33-2.54,1.55-1.7,4.14-4.52-.19-.13-.11-.07-.69-.48-1.06-.73-6.57-4.58-7.62-5.31-2.28-1.59-.52-.36-2.19-1.53-4.35-3.02-.69-.49-3.3-2.3-15.59-10.86-13.95-9.72-76.65,110.06Z"/>
          </g>
          <g>
            <path class="cls-21" d="m591.6,304.06l-28.93-6.15,2.17-3.31,20.69,4.95c1.49.35,3.01.78,4.57,1.27-.87-.98-1.86-2.23-2.96-3.73l-12.68-17.2,2.03-3.11,17.17,24.12-2.06,3.15Z"/>
            <path class="cls-21" d="m589.51,282.72c-2.31-1.51-4.11-3.28-5.39-5.28-1.28-2.01-1.93-4.2-1.96-6.58-.03-2.38.75-4.78,2.33-7.19,1.05-1.61,2.31-2.9,3.78-3.88,1.47-.98,3.04-1.62,4.71-1.91,1.67-.29,3.43-.22,5.27.21,1.84.43,3.65,1.23,5.43,2.4,2.48,1.62,4.29,3.44,5.44,5.47,1.15,2.03,1.65,4.24,1.48,6.65-.16,2.41-.92,4.64-2.26,6.7-1.39,2.12-3.15,3.71-5.3,4.76-2.15,1.05-4.41,1.43-6.81,1.14-2.39-.29-4.63-1.12-6.72-2.49Zm2.1-3.1c1.83,1.2,3.65,1.9,5.44,2.1,1.8.2,3.43-.04,4.91-.71,1.48-.68,2.73-1.81,3.77-3.4,1.62-2.47,2.03-4.97,1.22-7.48-.8-2.51-2.59-4.67-5.37-6.49-1.91-1.25-3.79-2.01-5.63-2.27-1.84-.26-3.51-.06-5.01.6-1.5.66-2.78,1.79-3.83,3.4-.84,1.29-1.37,2.56-1.58,3.82-.22,1.26-.12,2.51.28,3.75.4,1.24,1.09,2.42,2.05,3.53.96,1.11,2.2,2.16,3.73,3.16Z"/>
            <path class="cls-21" d="m621.6,258.2l-20.35-13.31-4.98,7.62-2.72-1.78,11.96-18.28,2.72,1.78-4.98,7.62,20.35,13.31-1.99,3.04Z"/>
            <path class="cls-21" d="m630.7,244.29l-23.07-15.09,10.9-16.66,2.72,1.78-8.91,13.62,7.06,4.62,8.34-12.75,2.7,1.77-8.34,12.75,7.86,5.14,9.26-14.15,2.72,1.78-11.25,17.19Z"/>
          </g>
          <polygon class="cls-15" points="729.04 115.09 764.66 175.49 847.9 131.37 809.53 67.69 729.04 115.09"/>
          <path class="cls-21" d="m533.48,287.81l67.88,46.1,51.81-77.18c-.94.02-1.85,0-2.72-.03l-49.7,74.02-64.08-43.51,65.76-95.46,51.88,35.29,1.55-1.7-54.03-36.76-68.35,99.23Z"/>
          <polygon class="cls-17" points="974.18 90.28 777.01 182.36 772.51 174.63 734.29 109.01 731.9 104.92 910.95 0 919.21 10.88 955.77 64.87 974.18 90.28"/>
          <polygon class="cls-21" points="974.18 90.28 777.01 182.36 772.51 174.63 959.58 70.13 974.18 90.28"/>
          <polygon class="cls-11" points="921.04 13.59 734.29 109.01 731.9 104.92 910.95 0 921.04 13.59"/>
        </g>
      </g>
    </g>
  </g>
</svg>