<?xml version="1.0" encoding="UTF-8"?>
<svg id="Layer_1" data-name="Layer 1" xmlns="http://www.w3.org/2000/svg" xmlns:xlink="http://www.w3.org/1999/xlink" viewBox="0 0 336 235.2">
  <defs>
    <style>
      .cls-1 {
        fill: #e93137;
      }

      .cls-1, .cls-2, .cls-3, .cls-4, .cls-5, .cls-6, .cls-7, .cls-8, .cls-9, .cls-10, .cls-11, .cls-12, .cls-13, .cls-14, .cls-15, .cls-16, .cls-17, .cls-18, .cls-19, .cls-20, .cls-21, .cls-22, .cls-23, .cls-24, .cls-25, .cls-26, .cls-27, .cls-28, .cls-29, .cls-30, .cls-31, .cls-32, .cls-33, .cls-34, .cls-35, .cls-36, .cls-37, .cls-38, .cls-39 {
        fill-rule: evenodd;
      }

      .cls-2, .cls-40 {
        fill: #b51f24;
      }

      .cls-41, .cls-26 {
        fill: #fff;
      }

      .cls-3 {
        fill: #0078b8;
      }

      .cls-4 {
        fill: #ec5ba1;
      }

      .cls-5 {
        fill: #fffaee;
      }

      .cls-6 {
        fill: #3f4c51;
      }

      .cls-7 {
        fill: #9b4622;
      }

      .cls-8 {
        fill: #005e89;
      }

      .cls-9 {
        fill: #005f6a;
      }

      .cls-42, .cls-36 {
        fill: #9fd7ef;
      }

      .cls-43, .cls-20 {
        fill: #f15d22;
      }

      .cls-10, .cls-44 {
        fill: #0f1d21;
      }

      .cls-11 {
        fill: #ec008c;
      }

      .cls-12 {
        fill: #0095da;
      }

      .cls-45, .cls-28 {
        fill: #638341;
      }

      .cls-13 {
        fill: #76295c;
      }

      .cls-14 {
        fill: #e61e26;
      }

      .cls-15, .cls-46 {
        fill: #008693;
      }

      .cls-47, .cls-16 {
        fill: #ef3824;
      }

      .cls-17 {
        fill: #f79348;
      }

      .cls-48 {
        fill: #2e3a3e;
      }

      .cls-18, .cls-49 {
        fill: #d1eefc;
      }

      .cls-19, .cls-50 {
        fill: #414042;
      }

      .cls-21 {
        fill: #a54686;
      }

      .cls-22 {
        fill: #4d4e4f;
      }

      .cls-23 {
        fill: #95cc75;
      }

      .cls-24 {
        fill: #759a4c;
      }

      .cls-25 {
        fill: #fbd759;
      }

      .cls-51, .cls-34 {
        fill: #ffecbc;
      }

      .cls-26 {
        opacity: .7;
      }

      .cls-27 {
        fill: #8e3970;
      }

      .cls-52 {
        fill: #bc2026;
      }

      .cls-53 {
        fill: url(#GradientFill_2);
      }

      .cls-29 {
        fill: #fde4e3;
      }

      .cls-54, .cls-38 {
        fill: #242e33;
      }

      .cls-30 {
        fill: #fbe07c;
      }

      .cls-31 {
        fill: #56c5d0;
      }

      .cls-55 {
        fill: #165e65;
      }

      .cls-56, .cls-32 {
        fill: #dba5c9;
      }

      .cls-33 {
        fill: #e8f1d1;
      }

      .cls-35 {
        fill: #1fa5b3;
      }

      .cls-57 {
        fill: #231f20;
      }

      .cls-37 {
        fill: #19496b;
      }

      .cls-58 {
        fill: url(#GradientFill_1);
      }

      .cls-39 {
        fill: #fbbb8a;
      }

      .cls-59 {
        fill: #58595b;
      }
    </style>
    <linearGradient id="GradientFill_1" data-name="GradientFill 1" x1="168" y1="177.95" x2="168" y2="75.19" gradientUnits="userSpaceOnUse">
      <stop offset="0" stop-color="#dcb127"/>
      <stop offset="1" stop-color="#ffcb05"/>
    </linearGradient>
    <linearGradient id="GradientFill_2" data-name="GradientFill 2" x1="168" y1="216.04" x2="168" y2="170.28" gradientUnits="userSpaceOnUse">
      <stop offset="0" stop-color="#ca6c38"/>
      <stop offset="1" stop-color="#9c4a23"/>
    </linearGradient>
  </defs>
  <rect class="cls-58" width="336" height="235.2"/>
  <rect class="cls-53" y="171.25" width="336" height="63.95"/>
  <path class="cls-7" d="m272.37,229.58c30.89,0,56.08-4.65,56.08-10.35s-25.19-10.35-56.08-10.35-56.08,4.65-56.08,10.35,25.19,10.35,56.08,10.35Z"/>
  <polygon class="cls-19" points="225.64 210.95 220.81 204.25 225.64 198.34 318.9 198.34 323.93 204.25 249.22 212.03 225.64 210.95"/>
  <rect class="cls-59" x="220.81" y="204.25" width="103.12" height="12.38"/>
  <path class="cls-22" d="m309.14,204.25h14.79v12.38h-103.12v-2.4c30.79-.04,71.9-.42,78.23-2.15,6.35-1.73,9-5.1,10.1-7.83Z"/>
  <rect class="cls-57" x="227.51" y="154.94" width="2.25" height="46.69"/>
  <rect class="cls-57" x="314.79" y="154.94" width="2.25" height="46.69"/>
  <rect class="cls-50" x="224.79" y="153.06" width="95.15" height="4.31"/>
  <path class="cls-30" d="m0,0h336v127.55c-21.44-2.83-28.33-24.3-28.33-24.3-19.76,23.14-95.28,30.12-77.75-37.5-9.98,6.55-22.2-.47-19.75-12-15.55,20.75-61.68,12.75-61-15,0,0-3.5,2.25-7.25-.25-3.75-2.5-4-7.75-4-7.75-10.91,29.42-63.46,25.96-68.75,10.75,6.31,29.99-19.02,44.73-35,30.5-4.33,17.32-18.09,22.79-34.17,23.17V0Z"/>
  <path class="cls-25" d="m0,0h336v120.09c-20.16-9.83-16.7-33.34-16.7-33.34-19.36,36.43-86.91,22.46-71-30-14,8.35-36.16,3.13-34-8.75-20.83,13.88-47.43,13.01-51.5-16.25-7.52,3.01-23-1.41-23-12-14.64,30.38-60.97,37.59-74.5,11.75,11.97,32.5-11.01,49-37.25,35.25-5.51,10.81-17.01,16.87-28.05,15.59V0Z"/>
  <g>
    <path class="cls-7" d="m51.87,206.48c13.08,0,23.75-3.14,23.75-7s-10.67-7-23.75-7-23.75,3.14-23.75,7,10.67,7,23.75,7Z"/>
    <g>
      <g>
        <path class="cls-23" d="m60.93,150.41c9.38,3.63,16.03,12.74,16.03,23.41,0,13.86-11.23,25.09-25.09,25.09s-25.09-11.23-25.09-25.09c0-4.07.97-7.91,2.68-11.3l-17.46-16.14,6.64-7.19,16.87,15.6c2.31-1.99,4.99-3.56,7.92-4.61v-23.94h17.49v24.18Z"/>
        <polygon class="cls-28" points="14.24 148.44 12.71 147.03 19.4 139.88 20.93 141.29 14.24 148.44"/>
        <path class="cls-24" d="m60.93,150.41c9.38,3.63,16.03,12.74,16.03,23.41,0,13.19-10.18,24.01-23.11,25.02-12.93-1.01-23.11-11.82-23.11-25.02,0-4.07.97-7.91,2.68-11.3l-17.46-16.14,4.82-5.22,14.74,13.62c.69-.59,1.41-1.15,2.16-1.66l1.8,1.66c2.31-1.99,4.99-3.56,7.92-4.61v-23.94h13.54v24.18Z"/>
        <path class="cls-23" d="m65.25,152.58c1.4.88,2.7,1.9,3.9,3.03l16.79-16.43,6.64,7.19-18.03,16.67c1.55,3.26,2.42,6.92,2.42,10.77,0,8.94-4.68,16.79-11.71,21.23-2.42.88-5.03,1.37-7.76,1.37-12.48,0-22.6-10.12-22.6-22.6s10.12-22.6,22.6-22.6c2.72,0,5.34.48,7.75,1.37Z"/>
        <path class="cls-33" d="m52.55,195.87c-10.1-2.26-17.65-11.27-17.65-22.05,0-10.23,6.79-18.87,16.12-21.65h0v-25.93h1.17v25.61c.12-.03.24-.06.36-.09,10.1,2.26,17.65,11.27,17.65,22.05s-7.55,19.8-17.65,22.05Z"/>
        <path class="cls-23" d="m51.01,195.47c-9.32-2.79-16.12-11.42-16.12-21.65s6.79-18.87,16.12-21.65c9.32,2.79,16.11,11.43,16.11,21.65s-6.79,18.87-16.11,21.65Z"/>
        <rect class="cls-45" x="43.44" y="130.19" width="17.49" height="2.08"/>
        <path class="cls-37" d="m74.46,173.5c0,.1,0,.21,0,.31,0,12.48-10.12,22.59-22.59,22.59s-22.59-10.12-22.59-22.59c0-.1,0-.21,0-.31h45.18Z"/>
        <path class="cls-8" d="m74.46,173.5c0,.1,0,.21,0,.31,0,11.53-8.64,21.04-19.8,22.42-11.15-1.39-19.77-10.9-19.77-22.42,0-.1,0-.21,0-.31h39.56Z"/>
        <path class="cls-36" d="m52.55,195.87c-10.1-2.26-17.65-11.27-17.65-22.05,0-.1,0-.21,0-.31h35.29c0,.1,0,.21,0,.31,0,10.78-7.55,19.8-17.65,22.05Z"/>
        <path class="cls-8" d="m50.99,195.46c-9.31-2.79-16.09-11.43-16.09-21.64,0-.1,0-.21,0-.31h32.17c0,.1,0,.21,0,.31,0,10.22-6.78,18.85-16.09,21.64Z"/>
        <polygon class="cls-28" points="90.49 148.44 92.02 147.03 85.34 139.88 83.81 141.29 90.49 148.44"/>
        <circle class="cls-42" cx="48.13" cy="188.02" r=".73"/>
        <path class="cls-36" d="m54.82,189.22c1.25,0,2.27-1.02,2.27-2.27s-1.02-2.27-2.27-2.27-2.27,1.02-2.27,2.27,1.02,2.27,2.27,2.27Z"/>
        <path class="cls-36" d="m55.94,178.76c.34,0,.62-.28.62-.62s-.28-.62-.62-.62-.62.28-.62.62.28.62.62.62Z"/>
        <path class="cls-36" d="m50.94,182.92c.57,0,1.04-.47,1.04-1.04s-.47-1.04-1.04-1.04-1.04.47-1.04,1.04.47,1.04,1.04,1.04Z"/>
        <path class="cls-36" d="m59.9,184.8c.57,0,1.04-.47,1.04-1.04s-.47-1.04-1.04-1.04-1.04.47-1.04,1.04.47,1.04,1.04,1.04Z"/>
        <path class="cls-36" d="m44.67,182.97c.79,0,1.43-.64,1.43-1.43s-.64-1.43-1.43-1.43-1.43.64-1.43,1.43.64,1.43,1.43,1.43Z"/>
      </g>
      <path class="cls-8" d="m48.39,108.08c1.11,0,2.01-.9,2.01-2.01s-.9-2.01-2.01-2.01-2.01.9-2.01,2.01.9,2.01,2.01,2.01Z"/>
      <path class="cls-8" d="m58.45,116.41c1.74,0,3.16-1.42,3.16-3.16s-1.42-3.16-3.16-3.16-3.16,1.42-3.16,3.16,1.42,3.16,3.16,3.16Z"/>
      <path class="cls-8" d="m49.11,121.29c1.35,0,2.44-1.1,2.44-2.44s-1.1-2.44-2.44-2.44-2.44,1.1-2.44,2.44,1.1,2.44,2.44,2.44Z"/>
    </g>
  </g>
  <g>
    <path class="cls-7" d="m190.25,215.89c13.08,0,23.75-3.14,23.75-7s-10.67-7-23.75-7-23.75,3.14-23.75,7,10.67,7,23.75,7Z"/>
    <path class="cls-12" d="m184.46,143.07c-.67-6.08-2.09-20.15-1.06-21.17,1.59-1.59,12.91-1.62,14.54,0,1.03,1.03-.39,15.09-1.06,21.17h-12.41Z"/>
    <path class="cls-3" d="m184.46,143.07c-.27-2.5-.68-6.36-.98-10.11,13.28-2.36,12.51-8.94,11.82-11.96,1.27.2,2.24.5,2.63.89,1.03,1.03-.39,15.09-1.06,21.17h-12.41Z"/>
    <path class="cls-4" d="m199.31,159.81c9.38,3.63,16.03,12.74,16.03,23.41,0,13.86-11.23,25.09-25.09,25.09s-25.09-11.23-25.09-25.09c0-4.07.97-7.91,2.68-11.3,2.64-4.84,6.06-7.73,6.06-7.73,2.31-1.99,4.99-3.56,7.92-4.61v-23.94h17.49v24.18Z"/>
    <path class="cls-11" d="m199.31,159.81c9.38,3.63,16.03,12.74,16.03,23.41,0,13.19-10.18,24.01-23.11,25.02-12.93-1.01-23.11-11.82-23.11-25.02,0-3.99.93-7.76,2.59-11.11.04-.06.07-.13.1-.2,1.39-3.33,6.06-7.73,6.06-7.73,2.31-1.99,4.99-3.56,7.92-4.61v-23.94h13.54v24.18Z"/>
    <path class="cls-4" d="m203.63,161.99c7.6,4.79,11.72,12.06,11.72,21.23s-4.68,16.79-11.71,21.23c-2.42.88-5.03,1.37-7.76,1.37-12.48,0-22.6-10.12-22.6-22.6s10.12-22.6,22.6-22.6c2.72,0,5.34.48,7.75,1.37Z"/>
    <path class="cls-29" d="m190.93,205.27c-10.1-2.26-17.65-11.27-17.65-22.05,0-10.23,6.79-18.87,16.12-21.65h0v-25.93h1.17v25.61c.12-.03.24-.06.36-.09,10.1,2.26,17.65,11.27,17.65,22.05s-7.55,19.8-17.65,22.05Z"/>
    <path class="cls-4" d="m189.39,204.87c-9.32-2.79-16.12-11.42-16.12-21.65s6.79-18.87,16.12-21.65c9.32,2.79,16.11,11.43,16.11,21.65s-6.79,18.87-16.11,21.65Z"/>
    <path class="cls-13" d="m212.84,182.91c0,.1,0,.21,0,.31,0,12.48-10.12,22.59-22.59,22.59s-22.59-10.12-22.59-22.59c0-.1,0-.21,0-.31h45.18Z"/>
    <path class="cls-27" d="m212.84,182.91c0,.1,0,.21,0,.31,0,11.53-8.64,21.04-19.8,22.42-11.15-1.39-19.77-10.9-19.77-22.42,0-.1,0-.21,0-.31h39.56Z"/>
    <path class="cls-32" d="m190.93,205.27c-10.1-2.26-17.65-11.27-17.65-22.05,0-.1,0-.21,0-.31h35.29c0,.1,0,.21,0,.31,0,10.78-7.55,19.8-17.65,22.05Z"/>
    <path class="cls-27" d="m189.37,204.86c-9.31-2.79-16.09-11.43-16.09-21.64,0-.1,0-.21,0-.31h32.17c0,.1,0,.21,0,.31,0,10.22-6.78,18.85-16.09,21.64Z"/>
    <circle class="cls-56" cx="186.51" cy="197.43" r=".73"/>
    <path class="cls-32" d="m193.19,198.62c1.25,0,2.27-1.02,2.27-2.27s-1.02-2.27-2.27-2.27-2.27,1.02-2.27,2.27,1.02,2.27,2.27,2.27Z"/>
    <path class="cls-32" d="m194.32,188.16c.34,0,.62-.28.62-.62s-.28-.62-.62-.62-.62.28-.62.62.28.62.62.62Z"/>
    <path class="cls-32" d="m189.32,192.33c.57,0,1.04-.47,1.04-1.04s-.47-1.04-1.04-1.04-1.04.47-1.04,1.04.47,1.04,1.04,1.04Z"/>
    <path class="cls-32" d="m198.27,194.2c.57,0,1.04-.47,1.04-1.04s-.47-1.04-1.04-1.04-1.04.47-1.04,1.04.47,1.04,1.04,1.04Z"/>
    <path class="cls-32" d="m183.05,192.38c.79,0,1.43-.64,1.43-1.43s-.64-1.43-1.43-1.43-1.43.64-1.43,1.43.64,1.43,1.43,1.43Z"/>
    <path class="cls-21" d="m182.48,134.08h16.37c1.65,0,3,1.35,3,3h0c0,1.65-1.35,3-3,3h-16.37c-1.65,0-3-1.35-3-3h0c0-1.65,1.35-3,3-3Z"/>
    <path class="cls-13" d="m201.76,137.82c-.33,1.29-1.51,2.25-2.9,2.25h-16.37c-1.39,0-2.57-.96-2.9-2.25h22.17Z"/>
  </g>
  <g>
    <path class="cls-7" d="m108.6,227c17.91,0,32.52-4.31,32.52-9.58s-14.61-9.58-32.52-9.58-32.52,4.31-32.52,9.58,14.61,9.58,32.52,9.58Z"/>
    <path class="cls-7" d="m139.96,212.99c10.48,0,19.03-2.52,19.03-5.61s-8.55-5.61-19.03-5.61-19.03,2.52-19.03,5.61,8.55,5.61,19.03,5.61Z"/>
    <g>
      <path class="cls-31" d="m129.79,158.99h15.87l-2.02,2.39h-.03v12.3l4.86,8.34c.25.42.5.85.75,1.28l9.58,16.43c2.22,3.81-2.3,7.66-7.56,7.66h-27.04c-5.27,0-9.79-3.84-7.56-7.66l9.58-16.43c.51-.88,1.01-1.75,1.55-2.58l4.06-6.93v-12.41l-2.04-2.39Z"/>
      <path class="cls-35" d="m131.42,158.99h14.23l-2.02,2.39h-.03v12.3l4.86,8.34c.25.42.5.85.75,1.28l9.58,16.43c2.22,3.81-2.3,7.66-7.56,7.66h-25.4c-5.27,0-9.79-3.84-7.56-7.66l9.58-16.43c.51-.88,1.01-1.75,1.55-2.58l4.06-6.93v-12.41l-2.04-2.39Z"/>
      <path class="cls-31" d="m134.26,158.99h11.4l-2.02,2.39h-.03v12.3l4.86,8.34c.25.42.5.85.75,1.28l9.58,16.43c2.22,3.81-2.3,7.66-7.56,7.66h-22.57c-5.27,0-9.79-3.84-7.56-7.66l9.58-16.43c.51-.88,1.01-1.75,1.55-2.58l4.06-6.93v-12.41l-2.04-2.39Z"/>
      <path class="cls-33" d="m140.45,158.99h1.7l-2.02,2.39h-.03v12.3l4.86,8.34c.25.42.5.85.75,1.28l9.58,16.43c2.22,3.81-2.3,7.66-7.56,7.66h-1.7c5.27,0,9.79-3.84,7.56-7.66l-9.58-16.43c-.25-.43-.5-.86-.75-1.28l-4.86-8.34v-12.3h.03l2.02-2.39Z"/>
      <path class="cls-31" d="m134.26,158.99h6.2l-2.02,2.39h-.03v12.3l4.86,8.34c.25.42.5.85.75,1.28l9.58,16.43c2.22,3.81-2.3,7.66-7.56,7.66h-17.36c-5.27,0-9.79-3.84-7.56-7.66l9.58-16.43c.51-.88,1.01-1.75,1.55-2.58l4.06-6.93v-12.41l-2.04-2.39Z"/>
      <rect class="cls-55" x="131.83" y="161.1" width="11.78" height="1.45"/>
      <path class="cls-16" d="m147.13,182.68c.22.39.44.78.66,1.17l8.38,15.04c1.95,3.49-2.01,7.01-6.62,7.01h-23.66c-4.61,0-8.57-3.52-6.62-7.01l8.38-15.04c.45-.8.89-1.6,1.36-2.37l.73-1.31h15.99l1.39,2.5Z"/>
      <path class="cls-20" d="m147.13,182.68c.22.39.44.78.66,1.17l8.38,15.04c1.01,1.81.43,3.63-1,4.96-.55.11-1.13.16-1.71.16h-23.66c-4.61,0-8.57-3.52-6.62-7.01l8.38-15.04c.33-.6.67-1.2,1.01-1.79h13.17l1.39,2.5Z"/>
      <path class="cls-39" d="m155.38,203.64c-.07.07-.14.14-.21.2-.55.11-1.13.16-1.71.16h0c.85-1.27,1.03-2.78.15-4.29l-9.58-16.43c-.25-.43-.5-.86-.75-1.28l-1.07-1.84h1.7l1.07,1.84c.25.42.5.85.75,1.28l9.58,16.43c.79,1.36.73,2.73.08,3.92Z"/>
      <path class="cls-20" d="m134.51,156.82c.87,0,1.57-.71,1.57-1.57s-.71-1.57-1.57-1.57-1.57.71-1.57,1.57.71,1.57,1.57,1.57Z"/>
      <path class="cls-20" d="m139.6,153.64c.83,0,1.51-.68,1.51-1.51s-.68-1.51-1.51-1.51-1.51.68-1.51,1.51.68,1.51,1.51,1.51Z"/>
      <path class="cls-20" d="m136.9,147.94c.69,0,1.26-.57,1.26-1.26s-.57-1.26-1.26-1.26-1.26.57-1.26,1.26.57,1.26,1.26,1.26Z"/>
    </g>
    <g>
      <path class="cls-31" d="m98.51,152.94h21.14l-2.69,3.19h-.04v16.39l6.48,11.11c.33.56.66,1.14,1,1.71l12.76,21.89c2.96,5.08-3.06,10.2-10.08,10.2h-36.02c-7.02,0-13.04-5.12-10.08-10.2l12.76-21.89c.68-1.17,1.35-2.33,2.06-3.44l5.41-9.24v-16.53l-2.72-3.18Z"/>
      <path class="cls-35" d="m100.69,152.94h18.96l-2.69,3.19h-.04v16.39l6.48,11.11c.33.56.66,1.14,1,1.71l12.76,21.89c2.96,5.08-3.06,10.2-10.08,10.2h-33.84c-7.02,0-13.04-5.12-10.08-10.2l12.76-21.89c.68-1.17,1.35-2.33,2.06-3.44l5.41-9.24v-16.53l-2.72-3.18Z"/>
      <path class="cls-31" d="m104.47,152.94h15.19l-2.69,3.19h-.04v16.39l6.48,11.11c.33.56.66,1.14,1,1.71l12.76,21.89c2.96,5.08-3.06,10.2-10.08,10.2h-30.07c-7.02,0-13.04-5.12-10.08-10.2l12.76-21.89c.68-1.17,1.35-2.33,2.06-3.44l5.41-9.24v-16.53l-2.72-3.18Z"/>
      <path class="cls-33" d="m112.72,152.94h2.26l-2.69,3.19h-.04v16.39l6.48,11.11c.33.56.66,1.14,1,1.71l12.76,21.89c2.96,5.08-3.06,10.2-10.08,10.2h-2.26c7.02,0,13.04-5.12,10.08-10.2l-12.76-21.89c-.33-.57-.66-1.14-1-1.71l-6.48-11.11v-16.39h.04l2.69-3.19Z"/>
      <path class="cls-31" d="m104.47,152.94h8.25l-2.69,3.19h-.04v16.39l6.48,11.11c.33.56.66,1.14,1,1.71l12.76,21.89c2.96,5.08-3.06,10.2-10.08,10.2h-23.14c-7.02,0-13.04-5.12-10.08-10.2l12.76-21.89c.68-1.17,1.35-2.33,2.06-3.44l5.41-9.24v-16.53l-2.72-3.18Z"/>
      <rect class="cls-55" x="101.24" y="155.75" width="15.7" height="1.93"/>
      <path class="cls-16" d="m121.62,184.51c.29.52.58,1.04.87,1.56l11.17,20.04c2.59,4.65-2.68,9.34-8.82,9.34h-31.52c-6.14,0-11.41-4.68-8.82-9.34l11.17-20.04c.6-1.07,1.18-2.14,1.81-3.15l.98-1.74h21.31l1.86,3.33Z"/>
      <path class="cls-20" d="m121.62,184.51c.29.52.58,1.04.87,1.56l11.17,20.04c1.34,2.41.57,4.83-1.33,6.6-.74.14-1.5.22-2.28.22h-31.52c-6.14,0-11.41-4.68-8.82-9.34l11.17-20.04c.45-.8.89-1.6,1.34-2.38h17.54l1.86,3.33Z"/>
      <path class="cls-39" d="m132.61,212.44c-.09.09-.18.18-.28.27-.74.14-1.5.22-2.28.22h0c1.14-1.7,1.37-3.71.2-5.71l-12.76-21.89c-.33-.57-.66-1.14-1-1.71l-1.43-2.45h2.27l1.43,2.45c.33.56.66,1.14,1,1.71l12.76,21.89c1.06,1.81.97,3.63.1,5.22Z"/>
      <path class="cls-20" d="m104.81,150.05c1.16,0,2.1-.94,2.1-2.1s-.94-2.1-2.1-2.1-2.1.94-2.1,2.1.94,2.1,2.1,2.1Z"/>
      <path class="cls-20" d="m111.58,145.82c1.11,0,2.01-.9,2.01-2.01s-.9-2.01-2.01-2.01-2.01.9-2.01,2.01.9,2.01,2.01,2.01Z"/>
      <path class="cls-20" d="m107.99,138.22c.92,0,1.68-.75,1.68-1.68s-.75-1.68-1.68-1.68-1.68.75-1.68,1.68.75,1.68,1.68,1.68Z"/>
    </g>
    <path class="cls-39" d="m109.92,202.59c.75,0,1.36-.61,1.36-1.36s-.61-1.36-1.36-1.36-1.36.61-1.36,1.36.61,1.36,1.36,1.36Z"/>
    <path class="cls-39" d="m115.22,206.2c1.33,0,2.41-1.08,2.41-2.41s-1.08-2.41-2.41-2.41-2.41,1.08-2.41,2.41,1.08,2.41,2.41,2.41Z"/>
    <path class="cls-39" d="m116.5,199.17c.66,0,1.19-.53,1.19-1.19s-.53-1.19-1.19-1.19-1.19.53-1.19,1.19.53,1.19,1.19,1.19Z"/>
    <path class="cls-39" d="m121.38,203.88c.45,0,.82-.37.82-.82s-.37-.82-.82-.82-.82.37-.82.82.37.82.82.82Z"/>
    <path class="cls-39" d="m107.53,208.64c.49,0,.9-.4.9-.9s-.4-.9-.9-.9-.9.4-.9.9.4.9.9.9Z"/>
    <path class="cls-39" d="m119.51,208.5c.27,0,.48-.22.48-.48s-.22-.48-.48-.48-.48.22-.48.48.22.48.48.48Z"/>
    <rect class="cls-41" x="100.33" y="186.62" width="2.33" height=".28"/>
    <rect class="cls-41" x="100.33" y="189.02" width="2.33" height=".28"/>
    <rect class="cls-41" x="100.33" y="191.42" width="2.33" height=".28"/>
    <rect class="cls-41" x="100.33" y="193.82" width="2.33" height=".28"/>
    <rect class="cls-41" x="100.33" y="198.62" width="2.33" height=".28"/>
    <rect class="cls-41" x="100.33" y="201.02" width="2.33" height=".28"/>
    <rect class="cls-41" x="100.33" y="203.42" width="2.33" height=".28"/>
    <rect class="cls-41" x="100.33" y="205.82" width="2.33" height=".28"/>
    <rect class="cls-41" x="100.33" y="210.62" width="2.33" height=".28"/>
    <rect class="cls-41" x="100.33" y="213.02" width="2.33" height=".28"/>
    <rect class="cls-41" x="98.49" y="184.22" width="4.16" height=".28"/>
    <rect class="cls-41" x="100.33" y="181.82" width="2.33" height=".28"/>
    <rect class="cls-41" x="98.49" y="196.22" width="4.16" height=".28"/>
    <rect class="cls-41" x="98.49" y="208.22" width="4.16" height=".28"/>
  </g>
  <path class="cls-26" d="m81.09,79.63c.11-.53.23-1.06.34-1.6.24-.46.45-.95.73-1.38,1.08-1.65,2.68-2.6,4.49-3.25.35-.12.52-.29.57-.68.29-2.09,1.85-3.61,3.87-3.81,2.07-.2,3.91.95,4.62,2.96.11.32.27.39.57.42,1.89.19,3.77.4,5.66.61.55.06,1.1.16,1.66.24.1-.45.18-.85.27-1.24.78-3.58,1.8-7.07,3.67-10.25,1.77-3,3.93-5.52,7.85-5.5.53.11,1.06.23,1.6.34,2.04.85,3.64,2.25,5.01,3.95,1.82,2.26,3.16,4.79,4.3,7.44.33.78.64,1.57.92,2.24,2.55-.56,5.02-1.19,7.51-1.61,3.81-.65,7.64-.87,11.41.25,2,.59,3.74,1.6,4.92,3.4,1.29,1.98,1.41,4.15,1,6.39-.54,2.93-1.82,5.57-3.47,8.01-1.54,2.27-3.25,4.42-4.89,6.62,1.04,1.15,2.23,2.35,3.29,3.66,2.46,3.04,4.57,6.25,4.47,10.4l-.34,1.6c-.41.68-.75,1.41-1.24,2.02-1.15,1.42-2.73,2.21-4.44,2.75-3.95,1.24-7.99,1.13-12.04.71-1.17-.12-2.34-.31-3.51-.46-.26.88-.5,1.74-.79,2.58-.14.41-.06.64.27.93,1.41,1.23,1.78,3.26.94,4.94-.82,1.64-2.68,2.57-4.48,2.18-.49-.11-.75,0-1.07.38-3.09,3.55-6.89,3.84-10.49.81-1.65-1.39-2.95-3.09-4.03-4.94-.74-1.27-1.41-2.58-2.12-3.89-.04,0-.1,0-.15.03-3.27,1.24-6.6,2.27-10.02,3.02-.15.03-.33.28-.36.45-.28,1.47-1.01,2.62-2.28,3.44-.9.58-1.9.73-2.93.77-.46-.1-.91-.2-1.37-.3-1.45-.68-2.52-1.71-2.99-3.29-.04-.14-.3-.25-.48-.29-1.43-.33-2.92-.49-4.29-.99-2.85-1.04-4.69-3.03-5.12-6.14-.27-1.93.12-3.79.74-5.61,1.1-3.23,2.88-6.09,4.99-8.75,1.55-1.96,3.22-3.82,4.85-5.72-.8-.86-1.7-1.75-2.51-2.71-2.71-3.23-5.13-6.61-5.11-11.1h0Zm40.15,29.42c.37-.02.82.1,1.08-.07,2.77-1.86,5.52-3.76,8.26-5.67.19-.13.34-.43.36-.66.37-5.96.04-11.89-.91-17.78-.07-.46-.26-.75-.67-.99-3.98-2.39-8.14-4.42-12.45-6.13-.26-.1-.66-.07-.92.05-3.68,1.67-7.22,3.63-10.65,5.76-.35.22-.45.48-.47.84-.27,6.04.1,12.05,1.19,18,.07.37.23.57.55.73,4.7,2.38,9.56,4.36,14.63,5.92h0Zm-13.36,7.1c-.03-.1-.05-.18-.08-.25-1.48-3.51-2.57-7.15-3.37-10.87-.09-.41-.32-.62-.66-.8-4.12-2.26-8.03-4.84-11.67-7.81-.48-.39-.94-.79-1.41-1.18-2.74,2.61-6.08,6.79-7.8,10.27-1.06,2.16-1.88,4.39-1.82,6.84.08,3.59,3.32,6.86,6.78,6.86.27-2.39,2.02-4.19,4.35-4.45,1.09-.12,2.12.11,3.06.69,1.36.84,2.08,2.09,2.34,3.64,3.55-.64,6.94-1.67,10.27-2.93h0Zm34.46-24.15c.63-.88,1.25-1.69,1.81-2.55,1.76-2.69,3.25-5.5,3.64-8.77.35-2.97-.93-5.69-3.59-7.04-1.06-.54-2.23-.91-3.4-1.15-2.78-.58-5.59-.37-8.38.06-1.37.21-2.73.51-4.07.76,0,.15-.01.18,0,.22.74,3.24,1.48,6.49,2.23,9.73.05.2.2.43.37.53,4.01,2.37,7.81,5.04,11.39,8.2h0Zm-51.92-.14c.1-.07.16-.1.22-.16,3.62-3.39,7.5-6.45,11.61-9.24.16-.11.28-.36.3-.56.2-1.83.36-3.67.56-5.5.09-.86.23-1.71.35-2.6-2.52-.46-4.98-.75-7.48-.74-.2,2.43-1.35,3.96-3.32,4.47-.93.24-1.84.19-2.74-.17-1.24-.5-2.05-1.41-2.6-2.73-.69.57-1.38,1.03-1.93,1.61-1.72,1.85-1.88,4.06-1.19,6.36,1.11,3.71,3.58,6.52,6.22,9.23h0Zm35.44-21.29c-1.22-2.63-2.64-5.15-4.75-7.23-.93-.92-1.98-1.69-3.23-2.12-2.49-.85-4.57-.05-6.35,1.72-1.73,1.71-2.83,3.83-3.68,6.07-.58,1.53-1.03,3.11-1.54,4.66.15.09.19.12.24.14,2.22.64,4.43,1.28,6.66,1.89.23.06.53,0,.76-.1,1.5-.68,2.97-1.44,4.49-2.08,2.43-1.02,4.89-1.96,7.41-2.96h0Zm16.54,23.76c-3.33,3.48-6.93,6.55-10.71,9.4-.16.12-.28.37-.3.57-.14,1.08-.22,2.16-.36,3.23-.14,1.09-.32,2.18-.49,3.31.23.04.44.1.64.11,2.18.04,4.37.17,6.55.08,2.06-.08,4.07-.57,5.91-1.57,2.79-1.52,3.96-4.01,3.31-7.11-.66-3.12-2.49-5.59-4.55-8.02h0Zm-32.18,21.71c.36.69.7,1.38,1.08,2.06,1.23,2.18,2.64,4.21,4.68,5.73,2.67,1.99,5.65,1.9,7.9-.21-1.59-2.04-1.87-3.66-.85-5.3,1.24-1.98,3.05-2.4,5.26-1.76.31-.96.6-1.89.91-2.83-.15-.05-.22-.08-.29-.1-2.89-.75-5.78-1.51-8.68-2.24-.2-.05-.46-.01-.64.08-.8.4-1.57.85-2.37,1.24-2.3,1.11-4.62,2.21-6.99,3.34h0Zm31.12-22.84c-3.14-3.25-6.68-5.94-10.55-8.42.84,5.96,1.09,11.81.73,17.82,3.61-2.88,6.89-5.92,9.82-9.41h0Zm-38.9-7.67c-2.37,1.4-8.99,6.74-10.07,8.09,1.63,1.78,9.24,7.07,11.33,7.87-.9-5.28-1.31-10.57-1.27-15.96h0Zm14.91-8.49c4.19,1.99,8.25,3.91,12.44,5.9-.85-3.11-1.68-6.18-2.57-9.43-3.39,1.21-6.61,2.37-9.86,3.53h0Zm-10.52,28.99c.75,3.15,1.73,6.28,3.09,9.32,3.09-1.28,6.06-2.71,8.86-4.28-3.98-1.68-7.95-3.35-11.95-5.04h0Zm24.04-1.63c-2.63,1.73-5.13,3.38-7.61,5.02,2.2.47,4.38.95,6.68,1.44.32-2.2.62-4.28.94-6.46h0Zm-18.12-28.23c-2.24-.63-4.36-1.23-6.6-1.86-.34,2.13-.66,4.14-1,6.21,2.58-1.48,5.01-2.87,7.6-4.35Z"/>
  <path class="cls-18" d="m43.57,91.75c-.38,0-.73.1-1.04.29-.22-1.73-1.69-3.07-3.48-3.07-.3,0-.58.04-.86.11-.21-1-1.09-1.75-2.15-1.75-.48,0-.92.15-1.28.41-.57-1.97-2.38-3.41-4.53-3.41-.33,0-.65.03-.96.1-1.14-2.73-3.83-4.64-6.97-4.64-4.17,0-7.55,3.38-7.55,7.54,0,.62.08,1.22.21,1.79-.62-.39-1.35-.62-2.13-.62-2.19,0-3.97,1.78-3.97,3.97s1.78,3.97,3.97,3.97c.31,0,.61-.04.89-.1-.07.14-.11.29-.14.45-.12.84.46,1.61,1.29,1.73.43.06.85-.06,1.17-.32.6,1.41,1.89,2.48,3.52,2.72,1.18.17,2.33-.13,3.24-.77.12,1.7,1.41,3.16,3.17,3.41,1.81.26,3.51-.83,4.06-2.51.77.6,1.7,1.02,2.74,1.17,3.19.46,6.15-1.75,6.62-4.94,0-.05.01-.1.02-.15.31.44.79.76,1.36.84,1.1.16,2.13-.6,2.29-1.71.03-.19.03-.37,0-.55.16.04.32.06.49.06,1.11,0,2.02-.9,2.02-2.02s-.9-2.02-2.02-2.02Z"/>
  <path class="cls-5" d="m40.13,91.74c-.3,0-.58.08-.82.23-.17-1.37-1.33-2.42-2.75-2.42-.23,0-.46.03-.68.08-.16-.79-.86-1.38-1.7-1.38-.38,0-.73.12-1.01.33-.45-1.55-1.88-2.69-3.58-2.69-.26,0-.51.03-.75.08-.9-2.15-3.02-3.66-5.5-3.66-3.29,0-5.96,2.67-5.96,5.96,0,.49.06.96.17,1.41-.49-.31-1.06-.49-1.68-.49-1.73,0-3.14,1.4-3.14,3.14s1.4,3.14,3.14,3.14c.24,0,.48-.03.71-.08-.05.11-.09.23-.11.35-.1.66.36,1.27,1.02,1.37.34.05.67-.05.92-.25.47,1.11,1.49,1.96,2.78,2.15.93.14,1.84-.1,2.56-.61.09,1.35,1.11,2.49,2.5,2.69,1.43.21,2.77-.66,3.21-1.98.61.47,1.35.8,2.16.92,2.52.37,4.86-1.38,5.22-3.9,0-.04,0-.08.01-.12.24.35.62.6,1.08.66.87.13,1.68-.48,1.81-1.35.02-.15.02-.29,0-.43.13.03.26.05.39.05.88,0,1.59-.71,1.59-1.59s-.71-1.59-1.59-1.59Z"/>
  <path class="cls-18" d="m185.58,98.72c-.88-3.06-3.7-5.3-7.05-5.3-2.98,0-5.55,1.78-6.7,4.34-1.21.12-2.3.67-3.1,1.5-.68-.61-1.57-.97-2.55-.97-2.12,0-3.83,1.72-3.83,3.83,0,.52.1,1.02.29,1.47-.1-.01-.19-.02-.29-.02-1.55,0-2.81,1.26-2.81,2.81s1.26,2.81,2.81,2.81c.24,0,.47-.03.68-.08.19,1.91,1.81,3.41,3.77,3.41,1.15,0,2.18-.52,2.88-1.33.61.8,1.57,1.32,2.65,1.32.15,0,.3-.01.45-.03.46,2.34,2.53,4.11,5.01,4.11,2.7,0,4.91-2.09,5.09-4.74.52.22,1.1.34,1.7.34,2.45,0,4.43-1.99,4.43-4.43,0-.19-.01-.37-.04-.55.47,1,1.49,1.69,2.67,1.69,1.43,0,2.62-1.02,2.89-2.37.06-.05.12-.1.18-.16.75,2.36,2.97,4.08,5.58,4.08,1.63,0,3.1-.67,4.16-1.74.59,1.04,1.71,1.74,3,1.74,1.03,0,1.96-.45,2.59-1.17,1.07,1.12,2.57,1.83,4.25,1.83,3.13,0,5.69-2.46,5.85-5.55.31.45.83.75,1.42.75.95,0,1.72-.77,1.72-1.72,0-.68-.39-1.26-.96-1.54.77-.63,1.26-1.59,1.26-2.66,0-1.89-1.53-3.43-3.43-3.43-.15,0-.29,0-.43.03.08-.34.13-.7.13-1.07,0-2.47-2-4.47-4.47-4.47-.74,0-1.43.18-2.05.5-1.44-2.79-4.35-4.7-7.7-4.7-3.76,0-6.96,2.4-8.16,5.75-.96-.82-2.21-1.32-3.57-1.32-3.04,0-5.51,2.47-5.51,5.51,0,.24.02.47.05.7-.19-.03-.38-.05-.57-.05-.87,0-1.67.33-2.27.88Z"/>
  <path class="cls-18" d="m274.5,112.09c-.82.28-1.54.77-2.1,1.42-1.29-2.05-3.58-3.42-6.18-3.42-3.15,0-5.84,2-6.86,4.8-.57-.22-1.19-.34-1.84-.34-2.8,0-5.07,2.27-5.07,5.07,0,.19.01.38.03.56-.01,0-.02,0-.03,0-2.15,0-3.9,1.74-3.9,3.9s1.74,3.9,3.9,3.9c1.01,0,1.94-.39,2.63-1.02,0,.05,0,.1,0,.15,0,3.08,2.49,5.57,5.57,5.57,2,0,3.76-1.06,4.74-2.64,1.37,2.75,4.22,4.64,7.5,4.64,4.63,0,8.38-3.75,8.38-8.38,0-.58-.06-1.14-.17-1.68.36.11.74.17,1.14.17,2.2,0,3.98-1.78,3.98-3.98,0-1.06-.42-2.02-1.09-2.74,1.18-.38,2.18-1.15,2.84-2.17.63,2.67,3.02,4.65,5.88,4.65,2.59,0,4.8-1.63,5.65-3.92.76.58,1.71.92,2.73.92,2.43,0,4.41-1.91,4.53-4.3.07,0,.14,0,.21,0,2.12,0,3.85-1.72,3.85-3.85,0-.22-.02-.43-.05-.64.02,0,.04,0,.05,0,1.22,0,2.21-.99,2.21-2.21s-.99-2.21-2.21-2.21c-.43,0-.84.12-1.18.34-.22-.99-1.1-1.73-2.16-1.73-.9,0-1.67.53-2.02,1.3-.9-2.19-3.06-3.74-5.58-3.74-.96,0-1.86.22-2.67.62-1.36-1.93-3.61-3.19-6.16-3.19-1.52,0-2.93.45-4.11,1.22-.93-.76-2.12-1.22-3.42-1.22-2.99,0-5.41,2.42-5.41,5.41,0,.3.03.6.07.89-.77.09-1.46.42-2.01.9-.52-.57-1.27-.93-2.1-.93-1.57,0-2.84,1.27-2.84,2.84s1.27,2.84,2.84,2.84c.03,0,.07,0,.1,0-.06.23-.1.48-.1.73,0,.55.16,1.06.44,1.48Z"/>
  <path class="cls-5" d="m275.65,113.3c-.67.2-1.26.55-1.71,1.01-1.05-1.46-2.92-2.43-5.04-2.43-2.57,0-4.77,1.42-5.6,3.42-.47-.16-.97-.25-1.5-.25-2.29,0-4.14,1.62-4.14,3.61,0,.13,0,.27.03.4,0,0-.02,0-.03,0-1.76,0-3.18,1.24-3.18,2.77s1.42,2.77,3.18,2.77c.83,0,1.58-.28,2.15-.73,0,.04,0,.07,0,.11,0,2.19,2.03,3.97,4.55,3.97,1.63,0,3.06-.75,3.86-1.88,1.12,1.96,3.44,3.3,6.12,3.3,3.78,0,6.84-2.67,6.84-5.97,0-.41-.05-.81-.14-1.2.29.08.61.12.93.12,1.79,0,3.25-1.27,3.25-2.83,0-.76-.34-1.44-.89-1.95.96-.27,1.78-.82,2.32-1.54.51,1.9,2.46,3.31,4.79,3.31,2.11,0,3.91-1.16,4.61-2.79.62.41,1.39.65,2.23.65,1.98,0,3.6-1.36,3.7-3.07.06,0,.11,0,.17,0,1.73,0,3.14-1.23,3.14-2.74,0-.16-.02-.31-.04-.46.01,0,.03,0,.04,0,1,0,1.81-.71,1.81-1.58s-.81-1.57-1.81-1.57c-.35,0-.68.09-.96.24-.18-.7-.9-1.23-1.76-1.23-.73,0-1.36.38-1.64.93-.74-1.56-2.5-2.66-4.55-2.66-.78,0-1.52.16-2.18.44-1.11-1.38-2.95-2.27-5.02-2.27-1.24,0-2.39.32-3.36.87-.76-.54-1.73-.87-2.79-.87-2.44,0-4.41,1.72-4.41,3.85,0,.21.02.43.06.63-.63.06-1.19.3-1.64.64-.42-.41-1.04-.66-1.72-.66-1.28,0-2.32.91-2.32,2.02s1.04,2.02,2.32,2.02c.03,0,.05,0,.08,0-.05.17-.08.34-.08.52,0,.39.13.75.36,1.06Z"/>
  <path class="cls-5" d="m186.19,99.35c-.79-2.46-3.33-4.26-6.33-4.26-2.68,0-4.98,1.43-6.01,3.48-1.09.1-2.07.54-2.79,1.2-.61-.49-1.41-.78-2.29-.78-1.9,0-3.44,1.38-3.44,3.07,0,.42.09.82.26,1.18-.09,0-.17-.01-.26-.01-1.39,0-2.52,1.01-2.52,2.26s1.13,2.25,2.52,2.25c.21,0,.42-.02.61-.07.17,1.54,1.62,2.74,3.39,2.74,1.04,0,1.96-.41,2.59-1.07.54.64,1.41,1.06,2.38,1.06.14,0,.27,0,.4-.03.42,1.88,2.27,3.3,4.49,3.3,2.42,0,4.4-1.68,4.57-3.81.47.17.99.27,1.53.27,2.2,0,3.98-1.59,3.98-3.56,0-.15-.01-.3-.03-.44.42.8,1.33,1.36,2.39,1.36,1.28,0,2.35-.82,2.59-1.9.06-.04.11-.08.16-.12.68,1.9,2.66,3.27,5.01,3.27,1.46,0,2.78-.53,3.74-1.4.53.83,1.54,1.4,2.69,1.4.93,0,1.76-.36,2.33-.94.96.9,2.31,1.47,3.81,1.47,2.81,0,5.11-1.97,5.25-4.45.28.37.74.6,1.27.6.85,0,1.54-.62,1.54-1.38,0-.54-.35-1.01-.86-1.23.69-.5,1.13-1.27,1.13-2.13,0-1.52-1.38-2.75-3.08-2.75-.13,0-.26,0-.39.02.08-.28.12-.56.12-.86,0-1.98-1.8-3.59-4.01-3.59-.66,0-1.29.14-1.84.4-1.29-2.24-3.9-3.77-6.92-3.77-3.38,0-6.25,1.92-7.33,4.61-.86-.66-1.98-1.06-3.21-1.06-2.73,0-4.94,1.98-4.94,4.42,0,.19.02.38.04.57-.17-.02-.34-.04-.51-.04-.78,0-1.5.27-2.04.7Z"/>
  <circle class="cls-51" cx="269.94" cy="52.05" r="8.03"/>
  <path class="cls-34" d="m39.74,30.75c3.58-1.9,8.02-.55,9.93,3.03,1.9,3.58.55,8.02-3.03,9.93-3.58,1.9-8.02.55-9.93-3.03-1.9-3.58-.55-8.02,3.03-9.93Z"/>
  <path class="cls-34" d="m292.66,82.59c3.6,0,6.54-2.94,6.54-6.54s-2.94-6.54-6.54-6.54-6.54,2.94-6.54,6.54,2.94,6.54,6.54,6.54Z"/>
  <path class="cls-34" d="m45.08,56.35c2.91-1.55,6.53-.44,8.08,2.47,1.55,2.91.44,6.53-2.47,8.08-2.91,1.55-6.53.44-8.08-2.47-1.55-2.91-.44-6.53,2.47-8.08Z"/>
  <path class="cls-34" d="m247.88,88.11c3.6,0,6.54-2.94,6.54-6.54s-2.94-6.54-6.54-6.54-6.54,2.94-6.54,6.54,2.94,6.54,6.54,6.54Z"/>
  <path class="cls-34" d="m203.82,83.46c3.6,0,6.54-2.94,6.54-6.54s-2.94-6.54-6.54-6.54-6.54,2.94-6.54,6.54,2.94,6.54,6.54,6.54Z"/>
  <path class="cls-34" d="m234.87,58.21c4.82,0,8.76-3.93,8.76-8.76s-3.93-8.76-8.76-8.76-8.76,3.93-8.76,8.76,3.93,8.76,8.76,8.76Z"/>
  <path class="cls-34" d="m92.6,29.12c3.9-2.07,8.74-.59,10.82,3.31,2.07,3.9.59,8.74-3.31,10.82-3.9,2.07-8.74.59-10.82-3.31-2.07-3.9-.59-8.74,3.31-10.82Z"/>
  <path class="cls-34" d="m280.15,32.02c3.6,0,6.54-2.94,6.54-6.54s-2.94-6.54-6.54-6.54-6.54,2.94-6.54,6.54,2.94,6.54,6.54,6.54Z"/>
  <path class="cls-34" d="m20.75,14.9c2.91-1.55,6.53-.44,8.08,2.47,1.55,2.91.44,6.53-2.47,8.08-2.91,1.55-6.53.44-8.08-2.47-1.55-2.91-.44-6.53,2.47-8.08Z"/>
  <path class="cls-34" d="m251.45,27.17c3.6,0,6.54-2.94,6.54-6.54s-2.94-6.54-6.54-6.54-6.54,2.94-6.54,6.54,2.94,6.54,6.54,6.54Z"/>
  <path class="cls-34" d="m67.81,14.77c2.91-1.55,6.53-.44,8.08,2.47,1.55,2.91.44,6.53-2.47,8.08s-6.53.44-8.08-2.47c-1.55-2.91-.44-6.53,2.47-8.08Z"/>
  <path class="cls-34" d="m205.97,42.02c3.6,0,6.54-2.94,6.54-6.54s-2.94-6.54-6.54-6.54-6.54,2.94-6.54,6.54,2.94,6.54,6.54,6.54Z"/>
  <path class="cls-34" d="m110.86,7.24c2.91-1.55,6.53-.44,8.08,2.47,1.55,2.91.44,6.53-2.47,8.08-2.91,1.55-6.53.44-8.08-2.47-1.55-2.91-.44-6.53,2.47-8.08Z"/>
  <rect class="cls-51" x="282.1" y="51.05" width="1.51" height="29.28" transform="translate(31.16 210.51) rotate(-42.99)"/>
  <rect class="cls-51" x="45.6" y="39.9" width="1.38" height="26.75" transform="translate(-8.84 9.21) rotate(-10.38)"/>
  <rect class="cls-51" x="260.12" y="38.27" width="29.28" height="1.51" transform="translate(133.08 277.65) rotate(-67.39)"/>
  <rect class="cls-51" x="33.02" y="15.41" width="1.38" height="26.75" transform="translate(-9.93 36.59) rotate(-50.63)"/>
  <rect class="cls-51" x="241.89" y="68.16" width="29.28" height="1.51" transform="translate(46.8 231.91) rotate(-52.89)"/>
  <rect class="cls-51" x="241.89" y="68.16" width="29.28" height="1.51" transform="translate(46.8 231.91) rotate(-52.89)"/>
  <rect class="cls-51" x="204.17" y="63.49" width="29.28" height="1.51" transform="translate(9.91 155.7) rotate(-40.01)"/>
  <rect class="cls-51" x="252.82" y="35.62" width="1.51" height="29.28" transform="translate(186.06 299.79) rotate(-86.07)"/>
  <rect class="cls-51" x="44.11" y="27.64" width="26.75" height="1.38" transform="translate(-6.15 35.95) rotate(-33.06)"/>
  <rect class="cls-51" x="229.71" y="32.68" width="29.28" height="1.51" transform="translate(96.56 230.88) rotate(-60.98)"/>
  <rect class="cls-51" x="81.15" y="13.95" width="1.38" height="26.75" transform="translate(14.38 81.12) rotate(-57.03)"/>
  <rect class="cls-51" x="218.19" y="27.63" width="1.51" height="29.28" transform="translate(80.05 216.71) rotate(-62.4)"/>
  <rect class="cls-51" x="92.74" y="22.86" width="26.75" height="1.38" transform="translate(26.74 97.81) rotate(-55.61)"/>
  <path class="cls-18" d="m161.72,91.09c1.51,0,2.75-1.24,2.75-2.75s-1.24-2.75-2.75-2.75-2.75,1.24-2.75,2.75,1.24,2.75,2.75,2.75Z"/>
  <path class="cls-18" d="m169.72,90.59c.55,0,1-.45,1-1s-.45-1-1-1-1,.45-1,1,.45,1,1,1Z"/>
  <path class="cls-18" d="m183.1,91.34c1.17,0,2.13-.95,2.13-2.12s-.95-2.13-2.13-2.13-2.12.95-2.12,2.13.95,2.12,2.12,2.12Z"/>
  <path class="cls-18" d="m165.99,120.62c1.11,0,2.01-.9,2.01-2.01s-.9-2.01-2.01-2.01-2.01.9-2.01,2.01.9,2.01,2.01,2.01Z"/>
  <path class="cls-18" d="m176.88,119.97c1.62,0,2.94-1.32,2.94-2.94s-1.32-2.94-2.94-2.94-2.94,1.32-2.94,2.94,1.32,2.94,2.94,2.94Z"/>
  <path class="cls-18" d="m174.85,124.65c.71,0,1.28-.58,1.28-1.28s-.58-1.28-1.28-1.28-1.28.58-1.28,1.28.58,1.28,1.28,1.28Z"/>
  <path class="cls-18" d="m219.47,89.34c.83,0,1.5-.67,1.5-1.5s-.67-1.5-1.5-1.5-1.5.67-1.5,1.5.67,1.5,1.5,1.5Z"/>
  <path class="cls-18" d="m225.24,117.34c.97,0,1.77-.79,1.77-1.77s-.79-1.77-1.77-1.77-1.77.79-1.77,1.77.79,1.77,1.77,1.77Z"/>
  <path class="cls-18" d="m210.72,118.09c.55,0,1-.45,1-1s-.45-1-1-1-1,.45-1,1,.45,1,1,1Z"/>
  <path class="cls-18" d="m218.97,129.53c2.2,0,4-1.8,4-4s-1.8-4-4-4-4,1.8-4,4,1.8,4,4,4Z"/>
  <circle class="cls-49" cx="235.12" cy="109.48" r="2.89"/>
  <path class="cls-18" d="m224.69,101.11c1.38,0,2.5-1.12,2.5-2.5s-1.12-2.5-2.5-2.5-2.5,1.12-2.5,2.5,1.12,2.5,2.5,2.5Z"/>
  <circle class="cls-49" cx="174.35" cy="77.47" r="1.38"/>
  <path class="cls-18" d="m159.73,125.09c1.1,0,2-.9,2-2s-.9-2-2-2-2,.9-2,2,.9,2,2,2Z"/>
  <g>
    <g>
      <path class="cls-31" d="m235.75,149.88h20.57v36.01h-.03c-.38,5.34-4.83,9.55-10.26,9.55s-9.88-4.21-10.26-9.55h-.03v-36.01Z"/>
      <path class="cls-35" d="m238.26,149.88h1.42v33.02c.46,6.46,8.03,9.31,10.61,1.63-.11,2.15-.98,6.69-6.39,5.93-5.53-1.42-5.64-7.06-5.64-7.06v-33.52Z"/>
      <path class="cls-15" d="m253.28,149.88h3.04v36.01h-.03c-.38,5.34-4.83,9.55-10.26,9.55-4.97,0-9.12-3.53-10.08-8.22,5.74,10.14,17.73,6.98,17.33-4.34v-33Z"/>
      <path class="cls-38" d="m254.79,166v19.53h-.02c-.32,4.54-4.11,8.13-8.73,8.13s-8.41-3.59-8.73-8.13h-.02v-19.53h17.51Z"/>
      <path class="cls-6" d="m240.21,166v17.22c.42,5.91,7.35,8.53,9.71,1.49-.1,1.96-.9,6.13-5.85,5.43-5.07-1.3-5.16-6.47-5.16-6.47v-17.68h1.3Z"/>
      <rect class="cls-44" x="237.28" y="166" width="17.51" height="1.46"/>
      <rect class="cls-48" x="238.91" y="166" width="1.3" height="1.46"/>
      <path class="cls-10" d="m254.79,166v19.53h-.02c-.32,4.54-4.11,8.13-8.73,8.13-4.23,0-7.76-3-8.58-6.99,4.88,8.63,15.09,5.94,14.75-3.7v-16.97h2.58Z"/>
      <rect class="cls-46" x="234.39" y="147.15" width="23.29" height="3.58" rx="1.79" ry="1.79"/>
      <path class="cls-9" d="m257.62,149.4c-.2.76-.9,1.33-1.73,1.33h-19.71c-.83,0-1.53-.57-1.73-1.33h23.17Z"/>
      <g>
        <rect class="cls-41" x="239.49" y="162.4" width="2.33" height=".28"/>
        <rect class="cls-41" x="239.49" y="164.8" width="2.33" height=".28"/>
        <rect class="cls-41" x="239.49" y="167.2" width="2.33" height=".28"/>
        <rect class="cls-41" x="239.49" y="169.6" width="2.33" height=".28"/>
        <rect class="cls-41" x="239.49" y="174.4" width="2.33" height=".28"/>
        <rect class="cls-41" x="239.49" y="176.8" width="2.33" height=".28"/>
        <rect class="cls-41" x="239.49" y="179.2" width="2.33" height=".28"/>
        <rect class="cls-41" x="239.49" y="181.6" width="2.33" height=".28"/>
        <rect class="cls-41" x="239.49" y="186.4" width="2.33" height=".28"/>
        <rect class="cls-41" x="239.49" y="188.8" width="2.33" height=".28"/>
        <rect class="cls-41" x="239.49" y="160" width="4.16" height=".28"/>
        <rect class="cls-41" x="239.49" y="157.6" width="2.33" height=".28"/>
        <rect class="cls-41" x="239.49" y="172" width="4.16" height=".28"/>
        <rect class="cls-41" x="239.49" y="184" width="4.16" height=".28"/>
        <rect class="cls-41" x="239.49" y="155.2" width="2.33" height=".28"/>
        <rect class="cls-41" x="239.49" y="152.8" width="2.33" height=".28"/>
      </g>
    </g>
    <g>
      <path class="cls-31" d="m262.08,149.88h20.58v36.01h-.03c-.38,5.34-4.83,9.55-10.26,9.55s-9.88-4.21-10.26-9.55h-.03v-36.01Z"/>
      <path class="cls-35" d="m264.59,149.88h1.42v33.02c.46,6.46,8.03,9.31,10.61,1.63-.11,2.15-.98,6.69-6.39,5.93-5.53-1.42-5.64-7.06-5.64-7.06v-33.52Z"/>
      <path class="cls-15" d="m279.62,149.88h3.04v36.01h-.03c-.38,5.34-4.83,9.55-10.26,9.55-4.97,0-9.12-3.53-10.08-8.22,5.74,10.14,17.73,6.98,17.33-4.34v-33Z"/>
      <path class="cls-14" d="m281.06,175.77v9.95h-.02c-.32,4.51-4.08,8.07-8.67,8.07s-8.35-3.56-8.67-8.07h-.02v-9.95h17.39Z"/>
      <path class="cls-1" d="m266.58,175.77v7.3c.42,5.88,7.3,8.47,9.65,1.49-.1,1.95-.89,6.09-5.81,5.39-5.03-1.3-5.13-6.43-5.13-6.43v-7.75h1.29Z"/>
      <rect class="cls-40" x="263.67" y="175.77" width="17.39" height="1.45"/>
      <rect class="cls-52" x="265.29" y="175.77" width="1.29" height="1.45"/>
      <path class="cls-2" d="m281.06,175.77v9.95h-.02c-.32,4.51-4.08,8.07-8.67,8.07-4.2,0-7.71-2.98-8.52-6.94,4.85,8.57,14.98,5.9,14.65-3.67v-7.4h2.57Z"/>
      <rect class="cls-46" x="260.72" y="147.15" width="23.29" height="3.58" rx="1.79" ry="1.79"/>
      <path class="cls-9" d="m283.95,149.4c-.2.76-.9,1.33-1.73,1.33h-19.71c-.83,0-1.53-.57-1.73-1.33h23.17Z"/>
      <g>
        <rect class="cls-41" x="265.82" y="162.4" width="2.33" height=".28"/>
        <rect class="cls-41" x="265.82" y="164.8" width="2.33" height=".28"/>
        <rect class="cls-41" x="265.82" y="167.2" width="2.33" height=".28"/>
        <rect class="cls-41" x="265.82" y="169.6" width="2.33" height=".28"/>
        <rect class="cls-41" x="265.82" y="174.4" width="2.33" height=".28"/>
        <rect class="cls-41" x="265.82" y="176.8" width="2.33" height=".28"/>
        <rect class="cls-41" x="265.82" y="179.2" width="2.33" height=".28"/>
        <rect class="cls-41" x="265.82" y="181.6" width="2.33" height=".28"/>
        <rect class="cls-41" x="265.82" y="186.4" width="2.33" height=".28"/>
        <rect class="cls-41" x="265.82" y="188.8" width="2.33" height=".28"/>
        <rect class="cls-41" x="265.82" y="160" width="4.16" height=".28"/>
        <rect class="cls-41" x="265.82" y="157.6" width="2.33" height=".28"/>
        <rect class="cls-41" x="265.82" y="172" width="4.16" height=".28"/>
        <rect class="cls-41" x="265.82" y="184" width="4.16" height=".28"/>
        <rect class="cls-41" x="265.82" y="155.2" width="2.33" height=".28"/>
        <rect class="cls-41" x="265.82" y="152.8" width="2.33" height=".28"/>
      </g>
    </g>
    <g>
      <path class="cls-31" d="m288.42,149.88h20.57v36.01h-.03c-.38,5.34-4.83,9.55-10.26,9.55s-9.88-4.21-10.26-9.55h-.03v-36.01Z"/>
      <path class="cls-35" d="m290.93,149.88h1.42v33.02c.46,6.46,8.03,9.31,10.61,1.63-.11,2.15-.98,6.69-6.39,5.93-5.53-1.42-5.64-7.06-5.64-7.06v-33.52Z"/>
      <path class="cls-15" d="m305.96,149.88h3.04v36.01h-.03c-.38,5.34-4.83,9.55-10.26,9.55-4.97,0-9.12-3.53-10.08-8.22,5.74,10.14,17.73,6.98,17.33-4.34v-33Z"/>
      <path class="cls-20" d="m307.53,163.98v21.72h-.02c-.32,4.58-4.14,8.19-8.8,8.19s-8.47-3.61-8.79-8.19h-.02v-21.72h17.64Z"/>
      <path class="cls-17" d="m292.04,163.98h1.21v19.16c.39,5.54,6.88,7.98,9.09,1.4-.1,1.84-.84,5.73-5.47,5.08-4.74-1.22-4.83-6.05-4.83-6.05v-19.59Z"/>
      <rect class="cls-47" x="289.89" y="163.98" width="17.64" height="1.37"/>
      <rect class="cls-43" x="292.04" y="163.98" width="1.21" height="1.37"/>
      <path class="cls-16" d="m307.53,163.98v21.72h-.02c-.32,4.58-4.14,8.19-8.8,8.19-4.26,0-7.82-3.02-8.64-7.04,4.92,8.69,15.19,5.99,14.85-3.72v-19.14h2.6Z"/>
      <rect class="cls-47" x="304.92" y="163.98" width="2.6" height="1.37"/>
      <rect class="cls-46" x="287.06" y="147.15" width="23.29" height="3.58" rx="1.79" ry="1.79"/>
      <path class="cls-9" d="m310.29,149.4c-.2.76-.9,1.33-1.73,1.33h-19.71c-.83,0-1.53-.57-1.73-1.33h23.17Z"/>
      <g>
        <rect class="cls-41" x="292.23" y="162.4" width="2.33" height=".28"/>
        <rect class="cls-41" x="292.23" y="164.8" width="2.33" height=".28"/>
        <rect class="cls-41" x="292.23" y="167.2" width="2.33" height=".28"/>
        <rect class="cls-41" x="292.23" y="169.6" width="2.33" height=".28"/>
        <rect class="cls-41" x="292.23" y="174.4" width="2.33" height=".28"/>
        <rect class="cls-41" x="292.23" y="176.8" width="2.33" height=".28"/>
        <rect class="cls-41" x="292.23" y="179.2" width="2.33" height=".28"/>
        <rect class="cls-41" x="292.23" y="181.6" width="2.33" height=".28"/>
        <rect class="cls-41" x="292.23" y="186.4" width="2.33" height=".28"/>
        <rect class="cls-41" x="292.23" y="188.8" width="2.33" height=".28"/>
        <rect class="cls-41" x="292.23" y="160" width="4.16" height=".28"/>
        <rect class="cls-41" x="292.23" y="157.6" width="2.33" height=".28"/>
        <rect class="cls-41" x="292.23" y="172" width="4.16" height=".28"/>
        <rect class="cls-41" x="292.23" y="184" width="4.16" height=".28"/>
        <rect class="cls-41" x="292.23" y="155.2" width="2.33" height=".28"/>
        <rect class="cls-41" x="292.23" y="152.8" width="2.33" height=".28"/>
      </g>
    </g>
  </g>
  <path class="cls-18" d="m37.18,84.54c.49,0,.89-.4.89-.89s-.4-.89-.89-.89-.89.4-.89.89.4.89.89.89Z"/>
  <path class="cls-18" d="m42.24,87.36c.34,0,.61-.27.61-.61s-.27-.61-.61-.61-.61.27-.61.61.27.61.61.61Z"/>
  <path class="cls-18" d="m38.14,110.18c1.38,0,2.51-1.13,2.51-2.51s-1.13-2.51-2.51-2.51-2.51,1.13-2.51,2.51,1.13,2.51,2.51,2.51Z"/>
  <path class="cls-18" d="m31.32,106.95c.26,0,.47-.21.47-.47s-.21-.47-.47-.47-.47.21-.47.47.21.47.47.47Z"/>
  <path class="cls-18" d="m22.65,107.23c.54,0,.98-.44.98-.98s-.44-.98-.98-.98-.98.44-.98.98.44.98.98.98Z"/>
  <path class="cls-18" d="m16.86,110c.84,0,1.53-.69,1.53-1.53s-.69-1.53-1.53-1.53-1.53.69-1.53,1.53.69,1.53,1.53,1.53Z"/>
  <path class="cls-18" d="m15.71,103.01c.39,0,.7-.32.7-.7s-.32-.7-.7-.7-.7.32-.7.7.32.7.7.7Z"/>
  <path class="cls-18" d="m9.61,102.54c.59,0,1.08-.48,1.08-1.08s-.48-1.08-1.08-1.08-1.08.48-1.08,1.08.48,1.08,1.08,1.08Z"/>
  <path class="cls-18" d="m27.85,110.98c.31,0,.56-.25.56-.56s-.25-.56-.56-.56-.56.25-.56.56.25.56.56.56Z"/>
  <path class="cls-18" d="m11.16,86.23c.57,0,1.03-.46,1.03-1.03s-.46-1.03-1.03-1.03-1.03.46-1.03,1.03.46,1.03,1.03,1.03Z"/>
  <path class="cls-18" d="m31.27,81.92c1.24,0,2.25-1.01,2.25-2.25s-1.01-2.25-2.25-2.25-2.25,1.01-2.25,2.25,1.01,2.25,2.25,2.25Z"/>
  <path class="cls-38" d="m241.57,138.11c.72,0,1.31-.59,1.31-1.31s-.59-1.31-1.31-1.31-1.31.59-1.31,1.31.59,1.31,1.31,1.31Z"/>
  <path class="cls-38" d="m246.96,141.76c1.11,0,2.02-.91,2.02-2.02s-.91-2.02-2.02-2.02-2.02.91-2.02,2.02.91,2.02,2.02,2.02Z"/>
  <path class="cls-38" d="m252.63,135.76c.46,0,.84-.38.84-.84s-.38-.84-.84-.84-.84.38-.84.84.38.84.84.84Z"/>
  <path class="cls-14" d="m269.03,144.95c.67,0,1.22-.55,1.22-1.22s-.55-1.22-1.22-1.22-1.22.55-1.22,1.22.55,1.22,1.22,1.22Z"/>
  <path class="cls-2" d="m276.16,143.54c1.39,0,2.53-1.14,2.53-2.53s-1.14-2.53-2.53-2.53-2.53,1.14-2.53,2.53,1.14,2.53,2.53,2.53Z"/>
  <path class="cls-14" d="m269.6,138.95c.31,0,.56-.25.56-.56s-.25-.56-.56-.56-.56.25-.56.56.25.56.56.56Z"/>
  <path class="cls-20" d="m292.66,142.37c.65,0,1.17-.53,1.17-1.17s-.53-1.17-1.17-1.17-1.17.53-1.17,1.17.53,1.17,1.17,1.17Z"/>
  <path class="cls-20" d="m298.8,144.2c.75,0,1.36-.61,1.36-1.36s-.61-1.36-1.36-1.36-1.36.61-1.36,1.36.61,1.36,1.36,1.36Z"/>
  <circle class="cls-43" cx="298.05" cy="135.9" r="2.3"/>
  <path class="cls-20" d="m304.94,142.89c.62,0,1.13-.51,1.13-1.13s-.51-1.13-1.13-1.13-1.12.51-1.12,1.13.51,1.13,1.12,1.13Z"/>
  <circle class="cls-54" cx="251.41" cy="143.83" r=".84"/>
  <path class="cls-38" d="m240.72,143.92c.36,0,.66-.29.66-.66s-.29-.66-.66-.66-.66.29-.66.66.29.66.66.66Z"/>
  <path class="cls-20" d="m304.1,132.76c.31,0,.56-.25.56-.56s-.25-.56-.56-.56-.56.25-.56.56.25.56.56.56Z"/>
  <path class="cls-14" d="m265.19,141.76c.57,0,1.03-.46,1.03-1.03s-.46-1.03-1.03-1.03-1.03.46-1.03,1.03.46,1.03,1.03,1.03Z"/>
  <path class="cls-18" d="m292.43,128.61c1.03,0,1.88-.84,1.88-1.88s-.84-1.88-1.88-1.88-1.88.84-1.88,1.88.84,1.88,1.88,1.88Z"/>
  <path class="cls-18" d="m313.14,123.18c.67,0,1.22-.55,1.22-1.22s-.55-1.22-1.22-1.22-1.22.55-1.22,1.22.55,1.22,1.22,1.22Z"/>
  <circle class="cls-49" cx="277.1" cy="95.66" r="1.92"/>
  <path class="cls-18" d="m304.99,97.4c.67,0,1.22-.55,1.22-1.22s-.55-1.22-1.22-1.22-1.22.55-1.22,1.22.55,1.22,1.22,1.22Z"/>
  <path class="cls-18" d="m264.17,105.2c1.94,0,3.53-1.58,3.53-3.53s-1.58-3.53-3.53-3.53-3.53,1.58-3.53,3.53,1.58,3.53,3.53,3.53Z"/>
  <path class="cls-18" d="m256.24,112.77c.77,0,1.41-.63,1.41-1.41s-.63-1.41-1.41-1.41-1.41.63-1.41,1.41.63,1.41,1.41,1.41Z"/>
  <path class="cls-18" d="m246.58,119.52c.83,0,1.5-.67,1.5-1.5s-.67-1.5-1.5-1.5-1.5.67-1.5,1.5.67,1.5,1.5,1.5Z"/>
  <path class="cls-18" d="m318.67,119.33c1.91,0,3.47-1.56,3.47-3.47s-1.56-3.47-3.47-3.47-3.47,1.56-3.47,3.47,1.56,3.47,3.47,3.47Z"/>
  <path class="cls-18" d="m305.83,123.27c.52,0,.94-.42.94-.94s-.42-.94-.94-.94-.94.42-.94.94.42.94.94.94Z"/>
  <path class="cls-18" d="m291.3,91.58c1.08,0,1.97-.88,1.97-1.97s-.88-1.97-1.97-1.97-1.97.88-1.97,1.97.88,1.97,1.97,1.97Z"/>
  <path class="cls-18" d="m309.3,89.89c.46,0,.84-.38.84-.84s-.38-.84-.84-.84-.84.38-.84.84.38.84.84.84Z"/>
  <path class="cls-18" d="m296.83,96.27c.52,0,.94-.42.94-.94s-.42-.94-.94-.94-.94.42-.94.94.42.94.94.94Z"/>
  <path class="cls-18" d="m251.55,97.96c.67,0,1.22-.55,1.22-1.22s-.55-1.22-1.22-1.22-1.22.55-1.22,1.22.55,1.22,1.22,1.22Z"/>
</svg>